<svg width="32" height="32" viewBox="0 0 32 32" fill="none" xmlns="http://www.w3.org/2000/svg">
<circle cx="16" cy="16" r="16" fill="#333333"/>
<path d="M23.2175 16.088C23.2175 16.472 23.1935 16.872 23.1455 17.288H13.8575C13.9215 18.12 14.1855 18.76 14.6495 19.208C15.1295 19.64 15.7135 19.856 16.4015 19.856C17.4255 19.856 18.1375 19.424 18.5375 18.56H22.9055C22.6815 19.44 22.2735 20.232 21.6815 20.936C21.1055 21.64 20.3775 22.192 19.4975 22.592C18.6175 22.992 17.6335 23.192 16.5455 23.192C15.2335 23.192 14.0655 22.912 13.0415 22.352C12.0175 21.792 11.2175 20.992 10.6415 19.952C10.0655 18.912 9.77747 17.696 9.77747 16.304C9.77747 14.912 10.0575 13.696 10.6175 12.656C11.1935 11.616 11.9935 10.816 13.0175 10.256C14.0415 9.696 15.2175 9.416 16.5455 9.416C17.8415 9.416 18.9935 9.688 20.0015 10.232C21.0095 10.776 21.7935 11.552 22.3535 12.56C22.9295 13.568 23.2175 14.744 23.2175 16.088ZM19.0175 15.008C19.0175 14.304 18.7775 13.744 18.2975 13.328C17.8175 12.912 17.2175 12.704 16.4975 12.704C15.8095 12.704 15.2255 12.904 14.7455 13.304C14.2815 13.704 13.9935 14.272 13.8815 15.008H19.0175Z" fill="white"/>
</svg>
