<svg width="195" height="126" viewBox="0 0 195 126" fill="none" xmlns="http://www.w3.org/2000/svg">
<g style="mix-blend-mode:color-burn">
<path d="M123.367 126C128.888 125.748 134.177 123.692 138.431 120.144C142.685 116.596 145.67 111.749 146.935 106.34C148.2 100.932 147.674 95.2555 145.439 90.1741C143.203 85.0926 139.379 80.8833 134.547 78.1851C135.123 75.1761 135.03 72.0762 134.275 69.1076C133.519 66.139 132.119 63.3752 130.176 61.0145C128.232 58.6538 125.793 56.7547 123.033 55.4532C120.274 54.1517 117.262 53.4802 114.214 53.4868C110.877 53.4858 107.591 54.2994 104.637 55.8576C100.986 53.2585 96.6721 51.7642 92.204 51.5515C87.7358 51.3388 83.3005 52.4165 79.4223 54.6572C77.5686 52.3414 75.1947 50.501 72.4955 49.2872C69.7964 48.0735 66.8492 47.5211 63.8963 47.6755C60.9434 47.8299 58.0692 48.6867 55.5099 50.1753C52.9506 51.664 50.7794 53.7421 49.1747 56.2388C48.8165 56.2208 48.4553 56.1847 48.094 56.1847C43.1334 56.1847 38.3758 58.1655 34.8678 61.6913C31.3598 65.2172 29.3886 69.9993 29.3878 74.986C29.3878 75.1031 29.4057 75.2171 29.4057 75.3341C25.9426 74.7634 22.3995 74.9211 19.0001 75.797C15.6007 76.6729 12.4189 78.2481 9.65596 80.4231C6.89299 82.598 4.60882 85.3254 2.94778 88.4329C1.28675 91.5404 0.284971 94.9605 0.0057467 98.477C-0.273478 101.994 0.17593 105.53 1.32556 108.863C2.47518 112.196 4.30004 115.253 6.68483 117.841C9.06961 120.429 11.9625 122.492 15.1806 123.899C18.3987 125.306 21.8722 126.026 25.3815 126.015L123.367 126Z" fill="white"/>
<path d="M124.886 124.464C130.408 124.212 135.697 122.156 139.951 118.607C144.204 115.059 147.19 110.213 148.455 104.804C149.719 99.3951 149.194 93.7191 146.958 88.6376C144.722 83.5562 140.898 79.3468 136.066 76.6486C136.308 75.3693 136.432 74.0704 136.436 72.7683C136.439 69.189 135.523 65.6695 133.777 62.5502C132.031 59.4309 129.514 56.8174 126.468 54.9624C123.423 53.1075 119.953 52.0738 116.394 51.9615C112.836 51.8491 109.308 52.6619 106.153 54.3212C102.504 51.7199 98.1912 50.2229 93.7232 50.007C89.2551 49.7911 84.819 50.8653 80.9389 53.1028C79.0846 50.7877 76.7104 48.948 74.0112 47.7349C71.312 46.5218 68.3649 45.9699 65.4123 46.1246C62.4596 46.2793 59.5856 47.1361 57.0265 48.6247C54.4673 50.1132 52.2961 52.191 50.6913 54.6873C50.3331 54.6693 49.9718 54.6333 49.6106 54.6333C47.1545 54.6329 44.7223 55.1188 42.453 56.0633C40.1837 57.0078 38.1216 58.3923 36.3846 60.1379C34.6475 61.8835 33.2695 63.9559 32.3293 66.2368C31.389 68.5178 30.9048 70.9625 30.9044 73.4315C30.9044 73.5516 30.9223 73.6656 30.9223 73.7827C27.4593 73.212 23.9161 73.3696 20.5167 74.2455C17.1173 75.1214 13.9355 76.6966 11.1726 78.8716C8.40959 81.0465 6.12542 83.7739 4.46439 86.8815C2.80336 89.989 1.80157 93.409 1.52235 96.9256C1.24313 100.442 1.69252 103.979 2.84214 107.312C3.99177 110.645 5.81663 113.702 8.20141 116.29C10.5862 118.878 13.4791 120.94 16.6972 122.347C19.9154 123.754 23.3888 124.475 26.8981 124.464H124.886Z" fill="#FDFDFD"/>
<path d="M126.426 122.927C131.948 122.675 137.237 120.619 141.491 117.071C145.745 113.523 148.73 108.676 149.995 103.268C151.26 97.8586 150.734 92.1826 148.498 87.1011C146.263 82.0197 142.438 77.8103 137.607 75.1121C137.848 73.8318 137.972 72.5319 137.977 71.2288C137.979 67.6498 137.063 64.1306 135.316 61.0118C133.57 57.8929 131.052 55.2798 128.007 53.4251C124.962 51.5705 121.493 50.5372 117.934 50.425C114.375 50.3128 110.848 51.1255 107.693 52.7847C104.045 50.1834 99.7315 48.6864 95.2634 48.4705C90.7954 48.2546 86.3593 49.3288 82.4791 51.5663C80.6249 49.2512 78.2507 47.4115 75.5515 46.1984C72.8523 44.9853 69.9052 44.4334 66.9526 44.5881C63.9999 44.7428 61.1259 45.5996 58.5667 47.0882C56.0076 48.5767 53.8364 50.6545 52.2316 53.1508C51.8734 53.1328 51.5121 53.0968 51.1509 53.0968C48.6948 53.0964 46.2626 53.5823 43.9933 54.5268C41.7239 55.4713 39.6619 56.8558 37.9249 58.6014C36.1878 60.347 34.8098 62.4194 33.8696 64.7003C32.9293 66.9813 32.4451 69.426 32.4447 71.895C32.4447 72.0151 32.4626 72.1291 32.4626 72.2462C28.9995 71.6755 25.4564 71.8331 22.0569 72.709C18.6575 73.5849 15.4758 75.1601 12.7128 77.3351C9.94987 79.51 7.6657 82.2374 6.00467 85.345C4.34364 88.4525 3.34186 91.8725 3.06263 95.3891C2.78341 98.9056 3.23281 102.442 4.38244 105.775C5.53207 109.108 7.35693 112.165 9.74171 114.753C12.1265 117.341 15.0194 119.404 18.2375 120.811C21.4556 122.218 24.9291 122.938 28.4384 122.927H126.426Z" fill="#FAFAFA"/>
<path d="M127.955 121.391C133.477 121.139 138.766 119.083 143.019 115.534C147.273 111.986 150.259 107.14 151.524 101.731C152.788 96.3221 152.263 90.6461 150.027 85.5646C147.791 80.4832 143.967 76.2738 139.135 73.5756C139.377 72.2953 139.501 70.9954 139.505 69.6923C139.508 66.1133 138.591 62.5941 136.845 59.4753C135.099 56.3564 132.581 53.7433 129.536 51.8886C126.491 50.034 123.021 49.0007 119.463 48.8885C115.904 48.7763 112.377 49.589 109.222 51.2482C105.573 48.6469 101.26 47.1499 96.792 46.934C92.324 46.7181 87.8878 47.7923 84.0077 50.0298C82.1535 47.7147 79.7792 45.875 77.08 44.6619C74.3808 43.4488 71.4338 42.8969 68.4811 43.0516C65.5285 43.2063 62.6544 44.0631 60.0953 45.5517C57.5362 47.0402 55.365 49.118 53.7602 51.6143C53.4019 51.5933 53.0407 51.5603 52.6795 51.5603C50.2233 51.5599 47.7912 52.0458 45.5218 52.9903C43.2525 53.9348 41.1905 55.3193 39.4534 57.0649C37.7164 58.8105 36.3384 60.8829 35.3981 63.1638C34.4578 65.4448 33.9737 67.8895 33.9733 70.3585C33.9733 70.4786 33.9912 70.5926 33.9912 70.7097C30.5281 70.139 26.9849 70.2966 23.5855 71.1725C20.1861 72.0484 17.0044 73.6236 14.2414 75.7986C11.4784 77.9735 9.19426 80.7009 7.53323 83.8084C5.8722 86.9159 4.87042 90.336 4.5912 93.8526C4.31197 97.3691 4.76138 100.906 5.91101 104.239C7.06063 107.572 8.88549 110.629 11.2703 113.217C13.6551 115.805 16.5479 117.867 19.7661 119.274C22.9842 120.681 26.4576 121.402 29.9669 121.391H127.955Z" fill="#F8F8F8"/>
<path d="M129.484 119.854C135.005 119.602 140.294 117.546 144.548 113.998C148.802 110.45 151.787 105.603 153.052 100.194C154.317 94.7855 153.791 89.1094 151.556 84.028C149.32 78.9465 145.496 74.7372 140.664 72.039C140.906 70.7588 141.031 69.4589 141.037 68.1557C141.039 64.5766 140.123 61.0575 138.377 57.9386C136.63 54.8197 134.113 52.2066 131.067 50.352C128.022 48.4974 124.553 47.464 120.994 47.3518C117.436 47.2396 113.908 48.0524 110.754 49.7115C107.104 47.1107 102.79 45.614 98.322 45.3981C93.8536 45.1822 89.4171 46.2562 85.5363 48.4931C83.682 46.1781 81.3078 44.3384 78.6086 43.1253C75.9094 41.9122 72.9624 41.3603 70.0097 41.515C67.057 41.6696 64.183 42.5265 61.6239 44.015C59.0647 45.5036 56.8935 47.5814 55.2887 50.0777C54.9305 50.0567 54.5693 50.0236 54.208 50.0236C51.7519 50.0233 49.3197 50.5092 47.0504 51.4537C44.7811 52.3982 42.719 53.7827 40.982 55.5283C39.245 57.2739 37.867 59.3463 36.9267 61.6272C35.9864 63.9081 35.5022 66.3529 35.5018 68.8219C35.5018 68.942 35.5198 69.056 35.5198 69.173C32.0567 68.6024 28.5135 68.76 25.1141 69.6359C21.7147 70.5118 18.533 72.087 15.77 74.262C13.007 76.4369 10.7228 79.1643 9.0618 82.2718C7.40077 85.3793 6.39898 88.7994 6.11976 92.3159C5.84054 95.8325 6.28994 99.3689 7.43957 102.702C8.5892 106.035 10.4141 109.092 12.7988 111.68C15.1836 114.268 18.0765 116.331 21.2946 117.738C24.5128 119.145 27.9862 119.865 31.4955 119.854H129.484Z" fill="#F5F5F5"/>
<path d="M131.012 118.314C136.535 118.064 141.825 116.01 146.08 112.462C150.335 108.915 153.322 104.068 154.588 98.6589C155.854 93.2496 155.329 87.5728 153.094 82.4905C150.858 77.4083 147.034 73.1981 142.201 70.4995C142.444 69.2203 142.569 67.9214 142.574 66.6192C142.577 63.0401 141.661 59.521 139.914 56.4021C138.168 53.2832 135.65 50.6701 132.605 48.8155C129.56 46.9609 126.09 45.9275 122.532 45.8153C118.973 45.7031 115.446 46.5159 112.291 48.175C108.642 45.5742 104.328 44.0775 99.8595 43.8616C95.3911 43.6457 90.9546 44.7197 87.0738 46.9566C85.2197 44.6404 82.8451 42.7996 80.1453 41.5858C77.4455 40.3719 74.4976 39.8196 71.5441 39.9743C68.5905 40.129 65.7157 40.9862 63.156 42.4756C60.5963 43.9649 58.4249 46.0437 56.8203 48.5412C56.462 48.5201 56.1008 48.4871 55.7396 48.4871C50.7807 48.4855 46.0242 50.4636 42.5158 53.9865C39.0074 57.5093 37.0343 62.2886 37.0304 67.2734C37.0304 67.3934 37.0483 67.5075 37.0513 67.6245C33.5872 67.0511 30.0425 67.2065 26.6413 68.0809C23.2401 68.9553 20.0563 70.5297 17.2914 72.7044C14.5265 74.8791 12.2406 77.6069 10.5782 80.7153C8.9158 83.8236 7.91312 87.2449 7.63356 90.7628C7.354 94.2807 7.80365 97.8187 8.95406 101.153C10.1045 104.487 11.9306 107.545 14.317 110.134C16.7034 112.722 19.5981 114.784 22.8182 116.19C26.0382 117.597 29.5134 118.316 33.024 118.302L131.012 118.314Z" fill="#F3F3F3"/>
<path d="M132.54 116.79C138.062 116.538 143.351 114.482 147.605 110.934C151.859 107.386 154.844 102.539 156.109 97.1305C157.374 91.7216 156.848 86.0455 154.612 80.9641C152.377 75.8826 148.552 71.6733 143.721 68.9751C143.963 67.6959 144.088 66.397 144.094 65.0948C144.096 61.5157 143.18 57.9966 141.433 54.8777C139.687 51.7588 137.169 49.1457 134.124 47.2911C131.079 45.4365 127.61 44.4031 124.051 44.2909C120.492 44.1787 116.965 44.9915 113.81 46.6506C110.161 44.0498 105.847 42.5531 101.379 42.3372C96.9105 42.1213 92.474 43.1953 88.5932 45.4322C86.7389 43.1172 84.3646 41.2775 81.6655 40.0644C78.9663 38.8513 76.0192 38.2994 73.0665 38.454C70.1139 38.6087 67.2399 39.4656 64.6807 40.9541C62.1216 42.4427 59.9504 44.5205 58.3456 47.0168C57.9874 46.9958 57.6291 46.9627 57.2649 46.9627C54.8088 46.9623 52.3766 47.4483 50.1073 48.3928C47.8379 49.3372 45.7759 50.7218 44.0389 52.4674C42.3018 54.213 40.9238 56.2854 39.9835 58.5663C39.0433 60.8472 38.5591 63.292 38.5587 65.761C38.5587 65.878 38.5766 65.9951 38.5796 66.1121C35.1156 65.5387 31.5708 65.6942 28.1696 66.5686C24.7684 67.4429 21.5846 69.0173 18.8197 71.192C16.0548 73.3667 13.7689 76.0945 12.1065 79.2029C10.4441 82.3112 9.44144 85.7326 9.16188 89.2505C8.88232 92.7683 9.33197 96.3063 10.4824 99.6405C11.6328 102.975 13.4589 106.033 15.8453 108.621C18.2317 111.21 21.1265 113.272 24.3465 114.678C27.5665 116.084 31.0417 116.803 34.5524 116.79H132.54Z" fill="#F0F0F0"/>
<path d="M134.069 115.241C139.591 114.99 144.88 112.933 149.133 109.385C153.387 105.837 156.373 100.991 157.638 95.5819C158.902 90.173 158.377 84.497 156.141 79.4155C153.905 74.334 150.081 70.1247 145.249 67.4265C145.492 66.1473 145.617 64.8484 145.622 63.5462C145.625 59.9664 144.709 56.4464 142.962 53.3269C141.215 50.2073 138.697 47.5936 135.651 45.7386C132.605 43.8837 129.135 42.8502 125.576 42.7381C122.016 42.6261 118.488 43.4393 115.333 45.099C111.683 42.4997 107.369 41.0042 102.901 40.7888C98.4328 40.5735 93.9966 41.6473 90.1157 43.8836C88.2615 41.5686 85.8872 39.7289 83.188 38.5158C80.4888 37.3027 77.5418 36.7508 74.5891 36.9055C71.6364 37.0601 68.7624 37.917 66.2033 39.4055C63.6442 40.8941 61.473 42.9719 59.8681 45.4682C59.5099 45.4472 59.1517 45.4142 58.7875 45.4142C53.8307 45.4189 49.0785 47.4015 45.5749 50.9262C42.0713 54.451 40.1029 59.2297 40.1021 64.2124C40.1021 64.3295 40.1201 64.4465 40.123 64.5635C36.659 63.9902 33.1143 64.1456 29.7131 65.02C26.3118 65.8944 23.1281 67.4687 20.3632 69.6434C17.5983 71.8181 15.3123 74.5459 13.6499 77.6543C11.9876 80.7627 10.9849 84.184 10.7053 87.7019C10.4258 91.2197 10.8754 94.7577 12.0258 98.0919C13.1762 101.426 15.0024 104.484 17.3888 107.073C19.7752 109.661 22.6699 111.723 25.8899 113.129C29.1099 114.536 32.5851 115.255 36.0958 115.241H134.069Z" fill="#EEEEEE"/>
<path d="M135.598 113.705C141.119 113.453 146.408 111.397 150.662 107.849C154.916 104.301 157.901 99.4544 159.166 94.0455C160.431 88.6366 159.905 82.9605 157.67 77.8791C155.434 72.7976 151.61 68.5882 146.778 65.89C147.02 64.6109 147.145 63.312 147.151 62.0097C147.152 58.431 146.236 54.9124 144.489 51.794C142.742 48.6756 140.225 46.0629 137.18 44.2085C134.135 42.354 130.666 41.3205 127.108 41.2079C123.549 41.0953 120.022 41.9074 116.868 43.5656C113.217 40.9663 108.904 39.4707 104.435 39.2554C99.9673 39.04 95.5311 40.1139 91.6503 42.3502C89.796 40.0351 87.4218 38.1954 84.7226 36.9823C82.0234 35.7692 79.0763 35.2173 76.1237 35.372C73.171 35.5267 70.297 36.3835 67.7379 37.8721C65.1787 39.3607 63.0075 41.4385 61.4027 43.9347C61.0445 43.9137 60.6862 43.8807 60.322 43.8807C57.8659 43.8803 55.4337 44.3662 53.1644 45.3107C50.8951 46.2552 48.833 47.6398 47.096 49.3854C45.3589 51.1309 43.9809 53.2033 43.0407 55.4843C42.1004 57.7652 41.6162 60.21 41.6158 62.679C41.6158 62.796 41.6337 62.913 41.6367 63.0301C38.1727 62.4567 34.628 62.6121 31.2267 63.4865C27.8255 64.3609 24.6418 65.9352 21.8768 68.11C19.1119 70.2847 16.826 73.0125 15.1636 76.1209C13.5012 79.2292 12.4986 82.6505 12.219 86.1684C11.9395 89.6863 12.3891 93.2242 13.5395 96.5585C14.6899 99.8927 16.5161 102.951 18.9025 105.539C21.2889 108.128 24.1836 110.19 27.4036 111.596C30.6236 113.002 34.0988 113.721 37.6095 113.708L135.598 113.705Z" fill="#EBEBEB"/>
<path d="M137.126 112.168C142.648 111.917 147.937 109.861 152.191 106.312C156.444 102.764 159.43 97.9178 160.695 92.5089C161.959 87.1 161.434 81.424 159.198 76.3425C156.962 71.2611 153.138 67.0517 148.306 64.3535C148.549 63.0743 148.674 61.7754 148.679 60.4732C148.682 56.8942 147.765 53.3752 146.019 50.2564C144.272 47.1376 141.755 44.5245 138.71 42.6697C135.665 40.8149 132.196 39.7811 128.637 39.6684C125.078 39.5556 121.551 40.3677 118.396 42.0261C114.746 39.4267 110.432 37.9312 105.964 37.7158C101.496 37.5005 97.0597 38.5743 93.1788 40.8106C91.3246 38.4956 88.9503 36.6559 86.2511 35.4428C83.5519 34.2297 80.6049 33.6778 77.6522 33.8325C74.6996 33.9871 71.8256 34.844 69.2664 36.3325C66.7073 37.8211 64.5361 39.8989 62.9313 42.3952C62.573 42.3742 62.2148 42.3412 61.8506 42.3412C59.3944 42.3408 56.9623 42.8267 54.693 43.7712C52.4236 44.7157 50.3616 46.1002 48.6245 47.8458C46.8875 49.5914 45.5095 51.6638 44.5692 53.9447C43.6289 56.2256 43.1448 58.6704 43.1444 61.1394C43.1444 61.2565 43.1623 61.3735 43.1653 61.4905C39.7012 60.9172 36.1565 61.0726 32.7553 61.947C29.3541 62.8213 26.1703 64.3957 23.4054 66.5704C20.6405 68.7451 18.3546 71.4729 16.6922 74.5813C15.0298 77.6897 14.0271 81.111 13.7476 84.6289C13.468 88.1468 13.9177 91.6847 15.0681 95.0189C16.2185 98.3532 18.0446 101.411 20.431 104C22.8174 106.588 25.7122 108.65 28.9322 110.057C32.1522 111.463 35.6274 112.182 39.1381 112.168H137.126Z" fill="#E9E9E9"/>
<path d="M138.655 110.632C144.176 110.38 149.465 108.324 153.719 104.776C157.973 101.228 160.958 96.3813 162.223 90.9724C163.488 85.5635 162.962 79.8875 160.727 74.806C158.491 69.7246 154.667 65.5152 149.835 62.817C150.411 59.8082 150.318 56.7084 149.563 53.7399C148.807 50.7715 147.407 48.0079 145.464 45.6474C143.52 43.2869 141.081 41.388 138.321 40.0869C135.562 38.7858 132.55 38.1147 129.501 38.1218C126.166 38.1198 122.879 38.9324 119.924 40.4896C116.274 37.8903 111.961 36.3947 107.492 36.1794C103.024 35.964 98.5881 37.0378 94.7073 39.2742C92.8526 36.9594 90.4779 35.1201 87.7785 33.9075C85.079 32.6949 82.1318 32.1436 79.1791 32.2988C76.2264 32.4541 73.3526 33.3115 70.7937 34.8006C68.2348 36.2898 66.064 38.368 64.4597 40.8647C64.1015 40.8437 63.7432 40.8107 63.379 40.8107C60.9229 40.8103 58.4907 41.2962 56.2214 42.2407C53.952 43.1852 51.89 44.5697 50.153 46.3153C48.4159 48.0609 47.0379 50.1333 46.0976 52.4142C45.1574 54.6952 44.6732 57.1399 44.6728 59.6089C44.6728 59.726 44.6907 59.843 44.6937 59.9571C43.3624 59.7359 42.0159 59.6195 40.6665 59.6089C33.9365 59.6089 27.4821 62.2964 22.7233 67.0802C17.9645 71.864 15.291 78.3522 15.291 85.1174C15.291 91.8827 17.9645 98.3709 22.7233 103.155C27.4821 107.938 33.9365 110.626 40.6665 110.626L138.655 110.632Z" fill="#E6E6E6"/>
<path d="M140.183 109.095C145.708 108.847 151 106.792 155.257 103.243C159.514 99.6944 162.502 94.8458 163.767 89.4342C165.032 84.0225 164.505 78.3436 162.266 73.2605C160.027 68.1773 156.199 63.9677 151.363 61.2715C151.94 58.2626 151.847 55.1629 151.091 52.1944C150.335 49.2259 148.936 46.4623 146.992 44.1019C145.048 41.7414 142.609 39.8425 139.85 38.5414C137.09 37.2403 134.078 36.5692 131.03 36.5762C127.694 36.5743 124.407 37.3868 121.453 38.944C117.803 36.3447 113.489 34.8492 109.021 34.6338C104.553 34.4184 100.117 35.4923 96.2356 37.7286C94.3814 35.4135 92.0071 33.5739 89.3079 32.3608C86.6087 31.1477 83.6617 30.5958 80.709 30.7504C77.7564 30.9051 74.8824 31.7619 72.3232 33.2505C69.7641 34.7391 67.5929 36.8169 65.9881 39.3131C65.6298 39.2921 65.2716 39.2561 64.9074 39.2561C59.9467 39.2561 55.1892 41.2369 51.6812 44.7627C48.1732 48.2885 46.202 53.0707 46.2012 58.0574C46.2012 58.1744 46.2191 58.2915 46.2221 58.4055C44.8895 58.1872 43.542 58.0738 42.1919 58.0664C38.8595 58.0664 35.5598 58.7262 32.4811 60.0081C29.4024 61.29 26.605 63.169 24.2487 65.5377C21.8924 67.9063 20.0232 70.7184 18.748 73.8132C17.4728 76.9081 16.8164 80.2251 16.8164 83.5749C16.8164 86.9247 17.4728 90.2417 18.748 93.3366C20.0232 96.4314 21.8924 99.2435 24.2487 101.612C26.605 103.981 29.4024 105.86 32.4811 107.142C35.5598 108.424 38.8595 109.083 42.1919 109.083L140.183 109.095Z" fill="#E4E4E4"/>
<path d="M141.711 107.559C147.233 107.307 152.522 105.251 156.776 101.703C161.03 98.1547 164.015 93.3083 165.28 87.8994C166.545 82.4905 166.019 76.8144 163.783 71.733C161.548 66.6515 157.723 62.4422 152.892 59.744C153.468 56.7352 153.375 53.6354 152.62 50.6669C151.864 47.6984 150.464 44.9349 148.52 42.5744C146.577 40.2139 144.138 38.315 141.378 37.0139C138.618 35.7128 135.607 35.0417 132.558 35.0488C129.222 35.0468 125.936 35.8594 122.981 37.4166C119.331 34.8172 115.018 33.3217 110.549 33.1063C106.081 32.891 101.645 33.9648 97.7642 36.2011C95.9101 33.8859 93.536 32.046 90.837 30.8327C88.1379 29.6193 85.191 29.0671 82.2383 29.2215C79.2856 29.3759 76.4116 30.2324 73.8523 31.7207C71.2931 33.209 69.1216 35.2866 67.5166 37.7827C67.1583 37.7647 66.8001 37.7286 66.4359 37.7286C61.4755 37.7286 56.7183 39.7095 53.2107 43.2354C49.7032 46.7613 47.7327 51.5435 47.7327 56.5299C47.7327 56.647 47.7476 56.764 47.7506 56.878C46.4192 56.6568 45.0727 56.5404 43.7234 56.5299C40.391 56.5299 37.0913 57.1897 34.0126 58.4716C30.9339 59.7536 28.1365 61.6325 25.7802 64.0012C23.4239 66.3699 21.5547 69.1819 20.2795 72.2767C19.0042 75.3716 18.3479 78.6886 18.3479 82.0384C18.3479 85.3883 19.0042 88.7053 20.2795 91.8001C21.5547 94.8949 23.4239 97.707 25.7802 100.076C28.1365 102.444 30.9339 104.323 34.0126 105.605C37.0913 106.887 40.391 107.547 43.7234 107.547L141.711 107.559Z" fill="#E2E2E2"/>
<path d="M143.24 106.022C148.762 105.771 154.051 103.714 158.304 100.166C162.558 96.6182 165.544 91.7718 166.809 86.3629C168.073 80.9539 167.548 75.2779 165.312 70.1964C163.076 65.115 159.252 60.9057 154.42 58.2075C154.997 55.1986 154.904 52.0988 154.148 49.1304C153.392 46.1619 151.993 43.3983 150.049 41.0379C148.105 38.6774 145.666 36.7785 142.907 35.4774C140.147 34.1763 137.135 33.5052 134.087 33.5122C130.751 33.5103 127.464 34.3228 124.51 35.88C120.861 33.2783 116.547 31.7813 112.078 31.5659C107.609 31.3505 103.173 32.4258 99.2927 34.6646C97.4388 32.3518 95.0656 30.514 92.368 29.3021C89.6704 28.0903 86.7253 27.5389 83.7745 27.6932C80.8238 27.8476 77.9516 28.7033 75.3937 30.1901C72.8358 31.6769 70.6651 33.7524 69.0601 36.2461C68.6988 36.2281 68.3406 36.1921 67.9764 36.1921C63.016 36.1921 58.2587 38.1729 54.7512 41.6989C51.2437 45.2248 49.2732 50.007 49.2732 54.9934C49.2732 55.1104 49.2881 55.2275 49.2911 55.3415C47.9607 55.1204 46.6152 55.004 45.2668 54.9934C41.9345 54.9934 38.6348 55.6532 35.5561 56.9351C32.4774 58.217 29.68 60.096 27.3237 62.4646C24.9673 64.8333 23.0982 67.6454 21.823 70.7402C20.5477 73.835 19.8914 77.1521 19.8914 80.5019C19.8914 83.8517 20.5477 87.1687 21.823 90.2636C23.0982 93.3584 24.9673 96.1704 27.3237 98.5391C29.68 100.908 32.4774 102.787 35.5561 104.069C38.6348 105.351 41.9345 106.01 45.2668 106.01L143.24 106.022Z" fill="#DFDFDF"/>
<path d="M144.769 104.486C150.29 104.234 155.579 102.178 159.833 98.6298C164.087 95.0817 167.072 90.2353 168.337 84.8264C169.602 79.4174 169.076 73.7414 166.841 68.6599C164.605 63.5785 160.781 59.3691 155.949 56.6709C156.525 53.6621 156.432 50.5623 155.677 47.5939C154.921 44.6254 153.521 41.8618 151.578 39.5013C149.634 37.1409 147.195 35.242 144.435 33.9408C141.676 32.6397 138.664 31.9686 135.615 31.9757C132.279 31.9738 128.993 32.7863 126.038 34.3435C122.388 31.7441 118.073 30.2497 113.604 30.037C109.136 29.8243 104.7 30.9021 100.821 33.1431C98.9675 30.8279 96.5937 28.988 93.8949 27.7746C91.1961 26.5612 88.2493 26.009 85.2968 26.1634C82.3444 26.3178 79.4705 27.1744 76.9115 28.6627C74.3525 30.151 72.1814 32.2286 70.5766 34.7246C70.2154 34.7066 69.8572 34.6706 69.493 34.6706C64.5331 34.6706 59.7763 36.651 56.2689 40.1763C52.7614 43.7016 50.7906 48.483 50.7898 53.4689C50.7898 53.5859 50.8047 53.7029 50.8077 53.817C49.4773 53.5959 48.1318 53.4795 46.7834 53.4689C40.0534 53.4689 33.5991 56.1564 28.8403 60.9401C24.0814 65.7239 21.408 72.2121 21.408 78.9774C21.408 85.7426 24.0814 92.2308 28.8403 97.0146C33.5991 101.798 40.0534 104.486 46.7834 104.486H144.769Z" fill="#DDDDDD"/>
<path d="M146.297 102.949C151.819 102.698 157.108 100.641 161.362 97.0933C165.615 93.5452 168.601 88.6988 169.866 83.2899C171.13 77.8809 170.605 72.2049 168.369 67.1234C166.133 62.042 162.309 57.8326 157.477 55.1344C158.054 52.1256 157.961 49.0258 157.205 46.0574C156.449 43.0889 155.05 40.3253 153.106 37.9648C151.163 35.6043 148.724 33.7055 145.964 32.4043C143.204 31.1032 140.192 30.4321 137.144 30.4392C133.808 30.4373 130.522 31.2498 127.567 32.807C123.916 30.2076 119.602 28.7132 115.133 28.5005C110.664 28.2878 106.228 29.3656 102.35 31.6066C100.496 29.2914 98.1223 27.4515 95.4234 26.2381C92.7246 25.0247 89.7779 24.4725 86.8254 24.6269C83.8729 24.7813 80.9991 25.6379 78.4401 27.1262C75.8811 28.6145 73.7099 30.6921 72.1052 33.1881C71.744 33.1701 71.3857 33.1341 71.0215 33.1341C66.0611 33.1341 61.3039 35.1149 57.7964 38.6409C54.2888 42.1668 52.3183 46.949 52.3183 51.9354C52.3183 52.0524 52.3333 52.1694 52.3362 52.2835C51.0059 52.0624 49.6604 51.946 48.312 51.9354C41.582 51.9354 35.1277 54.6229 30.3688 59.4066C25.61 64.1904 22.9365 70.6786 22.9365 77.4439C22.9365 84.2091 25.61 90.6973 30.3688 95.4811C35.1277 100.265 41.582 102.952 48.312 102.952L146.297 102.949Z" fill="#DADADA"/>
<path d="M147.826 101.413C153.347 101.161 158.636 99.1049 162.89 95.5568C167.144 92.0086 170.13 87.1622 171.394 81.7533C172.659 76.3444 172.134 70.6684 169.898 65.5869C167.662 60.5054 163.838 56.2961 159.006 53.5979C159.582 50.5891 159.489 47.4893 158.734 44.5208C157.978 41.5524 156.578 38.7888 154.635 36.4283C152.691 34.0678 150.252 32.1689 147.492 30.8678C144.733 29.5667 141.721 28.8956 138.673 28.9027C135.337 28.898 132.051 29.7074 129.096 31.2615C125.445 28.662 121.13 27.1677 116.662 26.9549C112.193 26.7422 107.757 27.8201 103.878 30.0611C102.025 27.7458 99.6508 25.9059 96.952 24.6926C94.2532 23.4792 91.3064 22.927 88.3539 23.0814C85.4015 23.2358 82.5276 24.0923 79.9686 25.5806C77.4096 27.069 75.2385 29.1465 73.6337 31.6426C73.2725 31.6246 72.9143 31.5886 72.5501 31.5886C70.0934 31.587 67.6606 32.0719 65.3904 33.0157C63.1202 33.9595 61.0572 35.3436 59.3193 37.089C57.5814 38.8343 56.2025 40.9068 55.2615 43.188C54.3205 45.4691 53.8357 47.9143 53.8349 50.3838C53.8349 50.5009 53.8528 50.6179 53.8528 50.7319C52.5225 50.5109 51.177 50.3945 49.8286 50.3838C43.0986 50.3838 36.6443 53.0713 31.8854 57.8551C27.1266 62.6389 24.4531 69.127 24.4531 75.8923C24.4531 82.6576 27.1266 89.1458 31.8854 93.9296C36.6443 98.7133 43.0986 101.401 49.8286 101.401L147.826 101.413Z" fill="#D8D8D8"/>
<path d="M149.366 99.8763C154.888 99.6244 160.177 97.5684 164.43 94.0202C168.684 90.4721 171.67 85.6257 172.935 80.2168C174.199 74.8079 173.674 69.1318 171.438 64.0504C169.202 58.9689 165.378 54.7596 160.546 52.0614C161.124 49.0511 161.031 45.9496 160.276 42.9795C159.52 40.0094 158.119 37.2444 156.174 34.883C154.229 32.5216 151.788 30.6224 149.026 29.3217C146.265 28.021 143.251 27.3511 140.201 27.3601C136.865 27.3582 133.578 28.1707 130.624 29.7279C126.975 27.1262 122.661 25.6292 118.192 25.4138C113.723 25.1984 109.287 26.2737 105.407 28.5125C103.553 26.1967 101.18 24.3563 98.4807 23.1425C95.7818 21.9287 92.8349 21.3763 89.8822 21.5307C86.9295 21.6851 84.0555 22.5419 81.4964 24.0306C78.9374 25.5193 76.7664 27.5974 75.1621 30.094C74.8009 30.076 74.4426 30.04 74.0814 30.04C69.1207 30.04 64.3632 32.0208 60.8552 35.5466C57.3472 39.0724 55.376 43.8546 55.3752 48.8413C55.3752 48.9583 55.3931 49.0724 55.3931 49.1894C54.0628 48.9682 52.7173 48.8518 51.3689 48.8413C44.6389 48.8413 38.1845 51.5288 33.4257 56.3126C28.6669 61.0963 25.9934 67.5845 25.9934 74.3498C25.9934 81.1151 28.6669 87.6033 33.4257 92.387C38.1845 97.1708 44.6389 99.8583 51.3689 99.8583L149.366 99.8763Z" fill="#D5D5D5"/>
<path d="M150.883 98.3399C156.404 98.088 161.693 96.0319 165.947 92.4838C170.201 88.9357 173.186 84.0893 174.451 78.6803C175.716 73.2714 175.19 67.5954 172.955 62.5139C170.719 57.4325 166.895 53.2231 162.063 50.5249C162.639 47.516 162.546 44.416 161.791 41.4474C161.035 38.4788 159.635 35.7151 157.692 33.3544C155.748 30.9937 153.309 29.0945 150.549 27.793C147.79 26.4916 144.778 25.8201 141.729 25.8267C138.393 25.8257 135.107 26.6393 132.152 28.1975C128.504 25.596 124.19 24.0991 119.722 23.8837C115.254 23.6684 110.818 24.7435 106.938 26.9821C105.085 24.6661 102.711 22.8255 100.012 21.6115C97.313 20.3975 94.366 19.8448 91.4131 19.9989C88.4602 20.153 85.5859 21.0095 83.0264 22.4979C80.467 23.9863 78.2956 26.0642 76.6907 28.5606C76.3295 28.5426 75.9712 28.5066 75.61 28.5066C70.6493 28.5066 65.8918 30.4873 62.3838 34.0132C58.8758 37.539 56.9046 42.3212 56.9038 47.3078C56.9038 47.4249 56.9217 47.5389 56.9217 47.656C55.5913 47.4348 54.2458 47.3184 52.8974 47.3078C46.1674 47.3078 39.7131 49.9953 34.9543 54.7791C30.1955 59.5629 27.522 66.0511 27.522 72.8163C27.522 79.5816 30.1955 86.0698 34.9543 90.8536C39.7131 95.6374 46.1674 98.3248 52.8974 98.3248L150.883 98.3399Z" fill="#D3D3D3"/>
<path d="M152.411 96.8034C157.933 96.5515 163.222 94.4954 167.476 90.9473C171.729 87.3992 174.715 82.5528 175.98 77.1438C177.244 71.7349 176.719 66.0589 174.483 60.9774C172.247 55.896 168.423 51.6866 163.591 48.9884C164.168 45.9795 164.075 42.8795 163.319 39.9109C162.564 36.9423 161.164 34.1786 159.22 31.8179C157.277 29.4572 154.838 27.558 152.078 26.2565C149.318 24.9551 146.306 24.2836 143.258 24.2902C139.922 24.2892 136.635 25.1028 133.681 26.661C130.032 24.0595 125.719 22.5626 121.251 22.3472C116.783 22.1319 112.346 23.207 108.467 25.4456C106.613 23.1298 104.239 21.2893 101.54 20.0756C98.8409 18.8618 95.8938 18.3094 92.9409 18.4638C89.988 18.6182 87.1137 19.475 84.5544 20.9637C81.9952 22.4524 79.8239 24.5305 78.2193 27.0271C77.861 27.0091 77.4998 26.9731 77.1386 26.9731C72.1779 26.9731 67.4204 28.9538 63.9124 32.4797C60.4044 36.0055 58.4332 40.7877 58.4324 45.7743C58.4324 45.8914 58.4503 46.0054 58.4503 46.1225C54.987 45.5518 51.4435 45.7094 48.0439 46.5855C44.6443 47.4616 41.4625 49.0371 38.6994 51.2124C35.9364 53.3876 33.6523 56.1154 31.9914 59.2233C30.3305 62.3311 29.329 65.7516 29.0502 69.2684C28.7714 72.7852 29.2212 76.3218 30.3714 79.6549C31.5216 82.988 33.3471 86.0451 35.7325 88.6328C38.1179 91.2206 41.0113 93.2828 44.23 94.6891C47.4486 96.0955 50.9225 96.8154 54.432 96.8034H152.411Z" fill="#D0D0D0"/>
<path d="M153.942 95.2668C159.459 95.0097 164.742 92.9516 168.991 89.4045C173.24 85.8573 176.222 81.0145 177.486 75.6102C178.75 70.2058 178.227 64.5345 175.996 59.4559C173.765 54.3773 169.947 50.1683 165.123 47.4669C165.363 46.1805 165.485 44.8745 165.487 43.5656C165.49 39.9862 164.574 36.4667 162.828 33.3475C161.081 30.2282 158.564 27.6146 155.519 25.7597C152.473 23.9047 149.004 22.8711 145.445 22.7587C141.886 22.6464 138.358 23.4591 135.203 25.1184C131.555 22.5172 127.241 21.0202 122.773 20.8043C118.305 20.5884 113.869 21.6626 109.989 23.9C108.135 21.5849 105.761 19.7453 103.061 18.5321C100.362 17.319 97.4152 16.7671 94.4626 16.9218C91.5099 17.0765 88.6359 17.9333 86.0767 19.4219C83.5176 20.9105 81.3464 22.9883 79.7416 25.4845C79.3834 25.4665 79.0221 25.4305 78.6609 25.4305C76.2048 25.4301 73.7726 25.916 71.5033 26.8605C69.2339 27.805 67.1719 29.1896 65.4349 30.9352C63.6978 32.6807 62.3198 34.7532 61.3796 37.0341C60.4393 39.315 59.9551 41.7598 59.9547 44.2288C59.9547 44.3488 59.9726 44.4629 59.9726 44.5799C56.5095 44.0092 52.9664 44.1668 49.567 45.0428C46.1676 45.9187 42.9858 47.4939 40.2229 49.6688C37.4599 51.8438 35.1757 54.5712 33.5147 57.6787C31.8536 60.7862 30.8519 64.2063 30.5726 67.7228C30.2934 71.2393 30.7428 74.7758 31.8924 78.1089C33.0421 81.4419 34.8669 84.499 37.2517 87.087C39.6365 89.675 42.5294 91.7376 45.7475 93.1445C48.9656 94.5514 52.4391 95.272 55.9484 95.2608L153.942 95.2668Z" fill="#CECECE"/>
<path d="M155.471 93.7303C160.993 93.4784 166.282 91.4223 170.536 87.8742C174.789 84.3261 177.775 79.4797 179.04 74.0708C180.304 68.6618 179.779 62.9858 177.543 57.9043C175.307 52.8229 171.483 48.6135 166.651 45.9153C166.893 44.635 167.017 43.3351 167.021 42.032C167.024 38.453 166.108 34.9338 164.361 31.815C162.615 28.6961 160.097 26.083 157.052 24.2284C154.007 22.3737 150.537 21.3404 146.979 21.2282C143.42 21.116 139.893 21.9287 136.738 23.5879C133.089 20.9867 128.776 19.4896 124.308 19.2737C119.84 19.0578 115.404 20.1321 111.524 22.3695C109.67 20.0544 107.295 18.2147 104.596 17.0016C101.897 15.7885 98.9499 15.2366 95.9972 15.3913C93.0446 15.546 90.1705 16.4028 87.6114 17.8914C85.0523 19.3799 82.8811 21.4577 81.2763 23.954C80.918 23.936 80.5568 23.9 80.1956 23.9C77.7394 23.8996 75.3073 24.3855 73.0379 25.33C70.7686 26.2745 68.7066 27.659 66.9695 29.4046C65.2325 31.1502 63.8545 33.2226 62.9142 35.5036C61.9739 37.7845 61.4898 40.2292 61.4894 42.6982C61.4894 42.8183 61.5073 42.9323 61.5073 43.0494C58.0442 42.4787 54.501 42.6363 51.1016 43.5122C47.7022 44.3881 44.5205 45.9634 41.7575 48.1383C38.9945 50.3132 36.7104 53.0406 35.0493 56.1482C33.3883 59.2557 32.3865 62.6757 32.1073 66.1923C31.8281 69.7088 32.2775 73.2453 33.4271 76.5783C34.5767 79.9114 36.4016 82.9685 38.7864 85.5564C41.1712 88.1444 44.064 90.2071 47.2822 91.614C50.5003 93.0209 53.9737 93.7415 57.483 93.7303H155.471Z" fill="#CCCCCC"/>
<path d="M157 92.1818C162.517 91.9245 167.8 89.866 172.049 86.3182C176.298 82.7704 179.28 77.9269 180.543 72.5218C181.807 67.1168 181.283 61.4451 179.05 56.3664C176.818 51.2878 173 47.0793 168.174 44.3788C168.415 43.0985 168.539 41.7986 168.544 40.4955C168.547 36.9166 167.631 33.3974 165.885 30.2784C164.139 27.1594 161.622 24.5462 158.577 22.6915C155.532 20.8368 152.062 19.8034 148.504 19.6913C144.945 19.5791 141.418 20.392 138.264 22.0514C134.614 19.4506 130.3 17.9539 125.832 17.738C121.364 17.5221 116.927 18.596 113.046 20.833C111.192 18.5167 108.818 16.676 106.118 15.4621C103.418 14.2482 100.47 13.6959 97.5165 13.8506C94.563 14.0053 91.6882 14.8626 89.1285 16.3519C86.5688 17.8412 84.3974 19.9201 82.7927 22.4175C82.4345 22.3965 82.0733 22.3635 81.712 22.3635C76.7532 22.3659 71.9983 24.3478 68.4927 27.8734C64.9871 31.3991 63.0178 36.1799 63.0178 41.1647C63.0178 41.2848 63.0357 41.3988 63.0357 41.5159C59.5673 40.9318 56.016 41.0788 52.6071 41.9476C49.1983 42.8164 46.0062 44.3879 43.2336 46.5626C40.461 48.7372 38.1683 51.4675 36.501 54.58C34.8337 57.6926 33.8282 61.1196 33.5483 64.6436C33.2684 68.1675 33.7202 71.7115 34.8751 75.0506C36.0299 78.3897 37.8626 81.451 40.2569 84.0404C42.6511 86.6297 45.5546 88.6906 48.7832 90.0921C52.0117 91.4936 55.4948 92.2052 59.0115 92.1818H157Z" fill="#C9C9C9"/>
<path d="M158.528 90.6573C164.05 90.4054 169.339 88.3493 173.592 84.8012C177.846 81.2531 180.832 76.4067 182.097 70.9978C183.361 65.5888 182.836 59.9128 180.6 54.8313C178.364 49.7499 174.54 45.5405 169.708 42.8423C169.951 41.5622 170.076 40.2622 170.081 38.959C170.082 35.3821 169.166 31.8653 167.42 28.7484C165.674 25.6315 163.159 23.0198 160.116 21.1656C157.073 19.3114 153.606 18.2773 150.049 18.1634C146.493 18.0494 142.967 18.8593 139.813 20.5149C136.163 17.9141 131.85 16.4174 127.381 16.2015C122.913 15.9856 118.476 17.0595 114.596 19.2965C112.741 16.9814 110.367 15.1417 107.668 13.9286C104.969 12.7155 102.022 12.1636 99.069 12.3183C96.1163 12.473 93.2423 13.3298 90.6832 14.8184C88.1241 16.3069 85.9529 18.3847 84.348 20.881C83.9898 20.86 83.6286 20.827 83.2673 20.827C80.8112 20.8266 78.3791 21.3125 76.1097 22.257C73.8404 23.2015 71.7784 24.5861 70.0413 26.3316C68.3043 28.0772 66.9263 30.1496 65.986 32.4306C65.0457 34.7115 64.5616 37.1562 64.5612 39.6253C64.5612 39.7453 64.5791 39.8593 64.5791 39.9764C61.116 39.4057 57.5728 39.5633 54.1734 40.4392C50.774 41.3152 47.5923 42.8904 44.8293 45.0653C42.0663 47.2402 39.7822 49.9676 38.1211 53.0752C36.4601 56.1827 35.4583 59.6027 35.1791 63.1193C34.8999 66.6358 35.3493 70.1723 36.4989 73.5053C37.6485 76.8384 39.4734 79.8955 41.8582 82.4835C44.243 85.0715 47.1358 87.1341 50.3539 88.541C53.5721 89.9479 57.0455 90.6685 60.5548 90.6573H158.528Z" fill="#C7C7C7"/>
<path d="M160.057 89.1177C165.578 88.8658 170.867 86.8098 175.121 83.2616C179.375 79.7135 182.36 74.8671 183.625 69.4582C184.89 64.0493 184.364 58.3732 182.129 53.2918C179.893 48.2103 176.069 44.001 171.237 41.3028C171.479 40.0236 171.604 38.7247 171.61 37.4225C171.612 33.8434 170.696 30.3243 168.95 27.2054C167.203 24.0865 164.686 21.4734 161.64 19.6188C158.595 17.7642 155.126 16.7308 151.567 16.6186C148.008 16.5064 144.481 17.3192 141.326 18.9783C137.677 16.3771 133.364 14.8798 128.895 14.6634C124.427 14.447 119.99 15.5204 116.109 17.7569C114.255 15.4419 111.881 13.6022 109.182 12.3891C106.482 11.176 103.535 10.6241 100.583 10.7788C97.63 10.9334 94.756 11.7903 92.1968 13.2788C89.6377 14.7674 87.4665 16.8452 85.8617 19.3415C85.5035 19.3205 85.1452 19.2874 84.781 19.2874C82.3246 19.2871 79.8922 19.7731 77.6227 20.7178C75.3531 21.6624 73.291 23.0473 71.5539 24.7932C69.8168 26.5391 68.4389 28.6118 67.4988 30.8931C66.5587 33.1744 66.0748 35.6194 66.0748 38.0887C66.0748 38.2088 66.0927 38.3228 66.0957 38.4398C62.6316 37.8665 59.0869 38.0219 55.6857 38.8962C52.2845 39.7706 49.1007 41.345 46.3358 43.5197C43.5709 45.6944 41.285 48.4222 39.6226 51.5306C37.9602 54.639 36.9576 58.0603 36.678 61.5782C36.3984 65.096 36.8481 68.634 37.9985 71.9682C39.1489 75.3025 40.975 78.3605 43.3614 80.9489C45.7478 83.5372 48.6426 85.5997 51.8626 87.0058C55.0826 88.4119 58.5578 89.131 62.0685 89.1177H160.057Z" fill="#C4C4C4"/>
<path d="M161.585 87.5813C167.107 87.3294 172.396 85.2733 176.65 81.7252C180.903 78.1771 183.889 73.3307 185.154 67.9218C186.418 62.5128 185.893 56.8368 183.657 51.7553C181.421 46.6739 177.597 42.4645 172.765 39.7663C173.008 38.4872 173.133 37.1883 173.138 35.886C173.141 32.3071 172.224 28.7881 170.478 25.6693C168.731 22.5505 166.214 19.9373 163.169 18.0825C160.124 16.2277 156.655 15.194 153.096 15.0812C149.537 14.9685 146.01 15.7805 142.855 17.4389C139.205 14.8403 134.891 13.3451 130.423 13.1298C125.955 12.9145 121.519 13.9879 117.638 16.2235C115.784 13.9084 113.409 12.0687 110.71 10.8556C108.011 9.64252 105.064 9.09063 102.111 9.2453C99.1586 9.39998 96.2845 10.2568 93.7254 11.7454C91.1663 13.2339 88.9951 15.3118 87.3903 17.808C87.032 17.787 86.6738 17.754 86.3096 17.754C83.8534 17.7536 81.4212 18.2395 79.1519 19.184C76.8826 20.1285 74.8205 21.5131 73.0835 23.2586C71.3465 25.0042 69.9685 27.0766 69.0282 29.3576C68.0879 31.6385 67.6038 34.0832 67.6034 36.5523C67.6034 36.6693 67.6213 36.7863 67.6243 36.9034C64.1602 36.33 60.6155 36.4854 57.2143 37.3598C53.813 38.2342 50.6293 39.8085 47.8644 41.9833C45.0995 44.158 42.8136 46.8858 41.1512 49.9941C39.4888 53.1025 38.4861 56.5238 38.2066 60.0417C37.927 63.5596 38.3766 67.0975 39.527 70.4318C40.6775 73.766 42.5036 76.824 44.89 79.4124C47.2764 82.0008 50.1711 84.0633 53.3912 85.4693C56.6112 86.8754 60.0864 87.5946 63.597 87.5813H161.585Z" fill="#C2C2C2"/>
<path d="M163.113 86.0448C168.635 85.7929 173.924 83.7368 178.178 80.1887C182.432 76.6406 185.417 71.7942 186.682 66.3853C187.947 60.9763 187.421 55.3003 185.185 50.2188C182.95 45.1374 179.125 40.928 174.294 38.2298C174.536 36.9507 174.661 35.6518 174.667 34.3495C174.669 30.7706 173.752 27.2516 172.006 24.1328C170.259 21.014 167.742 18.4008 164.697 16.546C161.652 14.6912 158.183 13.6575 154.624 13.5447C151.066 13.432 147.538 14.244 144.383 15.9024C140.733 13.3031 136.419 11.8075 131.951 11.5922C127.483 11.3768 123.047 12.4507 119.166 14.687C117.312 12.3719 114.938 10.5322 112.238 9.31913C109.539 8.10602 106.592 7.55413 103.64 7.7088C100.687 7.86348 97.8128 8.72031 95.2537 10.2089C92.6946 11.6974 90.5234 13.7752 88.9186 16.2715C88.5603 16.2505 88.2021 16.2175 87.8379 16.2175C85.3818 16.2171 82.9496 16.703 80.6802 17.6475C78.4109 18.592 76.3489 19.9766 74.6118 21.7221C72.8748 23.4677 71.4968 25.5401 70.5565 27.8211C69.6163 30.102 69.1321 32.5467 69.1317 35.0158C69.1317 35.1328 69.1496 35.2498 69.1526 35.3669C65.6886 34.7935 62.1438 34.9489 58.7426 35.8233C55.3414 36.6977 52.1576 38.272 49.3927 40.4467C46.6278 42.6215 44.3419 45.3493 42.6795 48.4576C41.0171 51.566 40.0144 54.9873 39.7349 58.5052C39.4553 62.0231 39.905 65.561 41.0554 68.8953C42.2058 72.2295 44.0319 75.2875 46.4183 77.8759C48.8047 80.4643 51.6995 82.5268 54.9195 83.9328C58.1395 85.3389 61.6147 86.0581 65.1253 86.0448H163.113Z" fill="#BFBFBF"/>
<path d="M164.642 84.5081C170.164 84.2563 175.453 82.2002 179.706 78.6521C183.96 75.104 186.946 70.2576 188.211 64.8486C189.475 59.4397 188.95 53.7637 186.714 48.6822C184.478 43.6008 180.654 39.3914 175.822 36.6932C176.065 35.4141 176.19 34.1151 176.195 32.8129C176.197 29.2339 175.281 25.7149 173.534 22.5961C171.788 19.4773 169.271 16.8642 166.226 15.0094C163.181 13.1546 159.711 12.1209 156.153 12.0081C152.594 11.8954 149.067 12.7074 145.912 14.3658C142.262 11.7665 137.948 10.2709 133.48 10.0556C129.012 9.8402 124.576 10.914 120.695 13.1504C118.84 10.8353 116.466 8.99562 113.767 7.78251C111.068 6.5694 108.121 6.01751 105.168 6.17218C102.215 6.32686 99.3414 7.18369 96.7823 8.67226C94.2232 10.1608 92.052 12.2386 90.4472 14.7349C90.0889 14.7139 89.7307 14.6809 89.3665 14.6809C86.9103 14.6805 84.4781 15.1664 82.2088 16.1109C79.9395 17.0554 77.8774 18.4399 76.1404 20.1855C74.4034 21.9311 73.0254 24.0035 72.0851 26.2844C71.1448 28.5654 70.6606 31.0101 70.6603 33.4791C70.6603 33.5962 70.6782 33.7132 70.6812 33.8303C67.2171 33.2569 63.6724 33.4123 60.2712 34.2867C56.8699 35.1611 53.6862 36.7354 50.9213 38.9101C48.1564 41.0849 45.8705 43.8126 44.2081 46.921C42.5457 50.0294 41.543 53.4507 41.2634 56.9686C40.9839 60.4865 41.4335 64.0244 42.5839 67.3586C43.7344 70.6929 45.5605 73.7509 47.9469 76.3393C50.3333 78.9277 53.228 80.9901 56.448 82.3962C59.668 83.8023 63.1432 84.5214 66.6539 84.5081H164.642Z" fill="#BDBDBD"/>
<path d="M166.171 82.9716C171.69 82.7177 176.977 80.6608 181.229 77.1131C185.48 73.5653 188.465 68.7204 189.729 63.3133C190.994 57.9062 190.469 52.232 188.235 47.1517C186.001 42.0714 182.18 37.8622 177.351 35.1627C177.593 33.8835 177.718 32.5846 177.724 31.2824C177.726 27.7034 176.809 24.1844 175.063 21.0656C173.317 17.9468 170.799 15.3337 167.754 13.4789C164.709 11.6241 161.24 10.5904 157.681 10.4776C154.123 10.3648 150.596 11.1769 147.441 12.8353C143.79 10.2359 139.477 8.74039 135.008 8.52503C130.54 8.30968 126.104 9.38352 122.223 11.6198C120.369 9.30478 117.995 7.4651 115.296 6.25199C112.596 5.03889 109.649 4.48699 106.697 4.64167C103.744 4.79634 100.87 5.65318 98.3109 7.14174C95.7517 8.63031 93.5805 10.7081 91.9757 13.2044C91.6175 13.1834 91.2592 13.1504 90.895 13.1504C88.4389 13.15 86.0067 13.6359 83.7374 14.5804C81.468 15.5249 79.406 16.9094 77.669 18.655C75.9319 20.4006 74.554 22.473 73.6137 24.7539C72.6734 27.0348 72.1892 29.4796 72.1888 31.9486C72.1888 32.0657 72.2068 32.1827 72.2097 32.2997C68.7457 31.7264 65.201 31.8818 61.7997 32.7562C58.3985 33.6306 55.2148 35.2049 52.4499 37.3796C49.6849 39.5543 47.399 42.2821 45.7366 45.3905C44.0742 48.4989 43.0716 51.9202 42.792 55.4381C42.5125 58.956 42.9621 62.4939 44.1125 65.8281C45.2629 69.1624 47.0891 72.2204 49.4755 74.8088C51.8619 77.3972 54.7566 79.4596 57.9766 80.8657C61.1966 82.2718 64.6718 82.9909 68.1825 82.9776L166.171 82.9716Z" fill="#BABABA"/>
<path d="M167.699 81.4352C173.221 81.1833 178.51 79.1272 182.763 75.5791C187.017 72.031 190.003 67.1846 191.268 61.7756C192.532 56.3667 192.007 50.6907 189.771 45.6092C187.535 40.5278 183.711 36.3184 178.879 33.6202C179.456 30.6114 179.363 27.5116 178.607 24.5431C177.851 21.5747 176.452 18.8111 174.508 16.4506C172.564 14.0901 170.125 12.1913 167.366 10.8901C164.606 9.58903 161.594 8.91794 158.546 8.92499C155.21 8.92306 151.923 9.7356 148.969 11.2928C145.317 8.69579 141.003 7.20289 136.535 6.9902C132.067 6.7775 127.631 7.85389 123.752 10.0924C121.897 7.77731 119.523 5.93763 116.824 4.72453C114.125 3.51142 111.178 2.95952 108.225 3.1142C105.272 3.26888 102.398 4.12571 99.8393 5.61428C97.2802 7.10284 95.109 9.18064 93.5041 11.6769C93.1459 11.6559 92.7877 11.6229 92.4235 11.6229C89.9673 11.6225 87.5352 12.1084 85.2658 13.0529C82.9965 13.9974 80.9344 15.3819 79.1974 17.1275C77.4604 18.8731 76.0824 20.9455 75.1421 23.2265C74.2018 25.5074 73.7176 27.9521 73.7172 30.4212C73.7172 30.5382 73.7352 30.6552 73.7382 30.7693C72.4068 30.5481 71.0603 30.4317 69.7109 30.4212C62.9809 30.4212 56.5266 33.1087 51.7678 37.8924C47.0089 42.6762 44.3354 49.1644 44.3354 55.9297C44.3354 62.6949 47.0089 69.1831 51.7678 73.9669C56.5266 78.7507 62.9809 81.4382 69.7109 81.4382L167.699 81.4352Z" fill="#B8B8B8"/>
<path d="M169.228 79.8986C174.75 79.6479 180.04 77.5927 184.294 74.045C188.549 70.4974 191.536 65.651 192.801 60.2418C194.066 54.8326 193.542 49.1561 191.306 44.0741C189.07 38.9921 185.246 34.7822 180.414 32.0837C180.99 29.0749 180.897 25.9751 180.142 23.0066C179.386 20.0381 177.986 17.2746 176.043 14.9141C174.099 12.5536 171.66 10.6547 168.9 9.3536C166.141 8.05249 163.129 7.38139 160.08 7.38845C156.745 7.38651 153.458 8.19906 150.504 9.75624C146.852 7.15925 142.537 5.66634 138.069 5.45365C133.601 5.24095 129.166 6.31735 125.286 8.55584C123.433 6.23881 121.06 4.39702 118.36 3.18192C115.661 1.96682 112.714 1.41312 109.76 1.56635C106.807 1.71957 103.932 2.57535 101.371 4.0633C98.811 5.55126 96.6386 7.62889 95.0327 10.1254C94.6745 10.1044 94.3162 10.0683 93.952 10.0683C88.9929 10.0683 84.2367 12.0478 80.729 15.5717C77.2212 19.0956 75.249 23.8755 75.2458 28.8606C75.2458 28.9776 75.2637 29.0947 75.2667 29.2087C73.9354 28.9875 72.5889 28.8711 71.2395 28.8606C64.5095 28.8606 58.0551 31.5481 53.2963 36.3319C48.5375 41.1156 45.864 47.6038 45.864 54.3691C45.864 61.1344 48.5375 67.6226 53.2963 72.4063C58.0551 77.1901 64.5095 79.8776 71.2395 79.8776L169.228 79.8986Z" fill="#B5B5B5"/>
<path d="M170.756 78.3772C176.278 78.1253 181.567 76.0692 185.821 72.5211C190.074 68.973 193.06 64.1266 194.325 58.7176C195.589 53.3087 195.064 47.6327 192.828 42.5512C190.592 37.4698 186.768 33.2604 181.936 30.5622C182.515 27.5526 182.424 24.4514 181.67 21.4813C180.916 18.5111 179.516 15.7457 177.573 13.3835C175.629 11.0213 173.19 9.12096 170.429 7.81878C167.669 6.5166 164.655 5.84493 161.606 5.85197C158.27 5.85003 154.984 6.66259 152.029 8.21977C148.379 5.62046 144.065 4.12491 139.597 3.90956C135.129 3.6942 130.693 4.76804 126.812 7.00436C124.958 4.68915 122.584 2.84925 119.885 1.63589C117.186 0.422535 114.239 -0.129634 111.286 0.0247489C108.333 0.179132 105.459 1.03566 102.9 2.52396C100.341 4.01225 98.1693 6.08981 96.5642 8.58589C96.206 8.56788 95.8477 8.53187 95.4835 8.53187C90.5231 8.53187 85.7659 10.5127 82.2583 14.0386C78.7508 17.5646 76.7803 22.3467 76.7803 27.3331C76.7803 27.4502 76.7952 27.5672 76.7982 27.6813C75.4669 27.4601 74.1204 27.3437 72.771 27.3331C69.4386 27.3331 66.1389 27.9929 63.0602 29.2749C59.9815 30.5568 57.1841 32.4357 54.8278 34.8044C52.4715 37.1731 50.6023 39.9851 49.3271 43.08C48.0519 46.1748 47.3955 49.4918 47.3955 52.8416C47.3955 56.1915 48.0519 59.5085 49.3271 62.6033C50.6023 65.6982 52.4715 68.5102 54.8278 70.8789C57.1841 73.2476 59.9815 75.1265 63.0602 76.4084C66.1389 77.6903 69.4386 78.3501 72.771 78.3501L170.756 78.3772Z" fill="#B3B3B3"/>
</g>
</svg>
