<svg width="204" height="134" viewBox="0 0 204 134" fill="none" xmlns="http://www.w3.org/2000/svg">
<g style="mix-blend-mode:color-burn">
<path d="M129.663 134C134.337 134.005 138.861 132.351 142.422 129.332C145.983 126.314 148.349 122.13 149.095 117.531C149.841 112.931 148.919 108.217 146.494 104.234C144.069 100.251 140.3 97.2588 135.862 95.7952C135.84 91.3237 134.092 87.0324 130.981 83.8111C127.87 80.5897 123.634 78.6855 119.152 78.4933C118.046 74.9739 116.102 71.7737 113.485 69.1663C110.868 66.559 107.657 64.622 104.126 63.5208C100.595 62.4197 96.8487 62.1873 93.2078 62.8434C89.5669 63.4994 86.1395 65.0246 83.2186 67.2883C81.0395 63.5927 77.9755 60.4931 74.3006 58.2667C70.6257 56.0404 66.4544 54.7567 62.16 54.5305C57.8656 54.3043 53.5819 55.1428 49.6921 56.9708C45.8023 58.7987 42.4276 61.5593 39.8701 65.0054C34.9801 62.8697 29.5497 62.2845 24.3148 63.3291C19.0799 64.3737 14.2939 66.9976 10.6055 70.845C6.91719 74.6925 4.5049 79.5774 3.6957 84.8376C2.88651 90.0978 3.71954 95.4788 6.08187 100.251C3.24339 102.955 1.28266 106.445 0.45253 110.27C-0.377605 114.096 -0.0390828 118.081 1.42445 121.713C2.88797 125.345 5.4094 128.456 8.66358 130.646C11.9178 132.836 15.7555 134.004 19.6819 134H129.663Z" fill="white"/>
<path d="M131.427 132.242C136.101 132.248 140.624 130.593 144.185 127.575C147.746 124.557 150.112 120.373 150.858 115.773C151.605 111.174 150.683 106.459 148.258 102.476C145.833 98.493 142.063 95.5013 137.626 94.0376C137.603 89.5662 135.855 85.2748 132.744 82.0535C129.633 78.8322 125.397 76.928 120.916 76.7358C119.81 73.2146 117.866 70.0127 115.248 67.404C112.631 64.7953 109.418 62.8575 105.886 61.7563C102.353 60.655 98.6052 60.4231 94.9631 61.0805C91.3209 61.7378 87.8927 63.2648 84.9716 65.5308C82.7926 61.8351 79.7286 58.7355 76.0536 56.5092C72.3787 54.2828 68.2075 52.9991 63.9131 52.7729C59.6186 52.5468 55.3349 53.3852 51.4451 55.2132C47.5553 57.0412 44.1807 59.8017 41.6231 63.2479C36.7339 61.1136 31.3047 60.5291 26.0711 61.5737C20.8375 62.6182 16.0526 65.2413 12.3647 69.0875C8.67681 72.9337 6.26429 77.8171 5.45403 83.0758C4.64377 88.3346 5.47494 93.7145 7.83493 98.4866C4.99465 101.19 3.032 104.679 2.20013 108.505C1.36826 112.33 1.70532 116.317 3.16785 119.95C4.63039 123.582 7.15129 126.695 10.4054 128.886C13.6595 131.077 17.4976 132.246 21.4246 132.242H131.427Z" fill="#FDFDFD"/>
<path d="M133.19 130.485C137.864 130.49 142.387 128.835 145.948 125.817C149.509 122.799 151.875 118.615 152.622 114.015C153.368 109.416 152.446 104.702 150.021 100.719C147.596 96.7353 143.826 93.7436 139.389 92.2799C139.366 87.8078 137.617 83.5161 134.505 80.2943C131.394 77.0725 127.158 75.1677 122.676 74.9746C121.57 71.455 119.625 68.2545 117.009 65.6471C114.392 63.0396 111.18 61.1027 107.649 60.0018C104.118 58.901 100.371 58.669 96.7303 59.3258C93.0894 59.9825 89.6622 61.5085 86.7418 63.7731C84.5627 60.0774 81.4987 56.9778 77.8238 54.7515C74.1489 52.5251 69.9776 51.2414 65.6832 51.0153C61.3888 50.7891 57.1051 51.6275 53.2153 53.4555C49.3254 55.2835 45.9508 58.044 43.3933 61.4902C38.5033 59.3545 33.0728 58.7693 27.838 59.8139C22.6031 60.8585 17.8171 63.4823 14.1287 67.3298C10.4404 71.1772 8.02809 76.0622 7.21889 81.3223C6.40969 86.5825 7.24273 91.9635 9.60506 96.7358C6.76658 99.44 4.80586 102.93 3.97572 106.755C3.14559 110.581 3.48411 114.566 4.94764 118.198C6.41117 121.83 8.93259 124.941 12.1868 127.131C15.441 129.321 19.2787 130.489 23.2051 130.485H133.19Z" fill="#FAFAFA"/>
<path d="M134.953 128.727C139.627 128.732 144.151 127.078 147.712 124.06C151.273 121.041 153.639 116.857 154.385 112.258C155.131 107.658 154.209 102.944 151.784 98.9608C149.359 94.9776 145.59 91.9859 141.152 90.5222C141.129 86.0507 139.381 81.7594 136.27 78.5377C133.159 75.316 128.924 73.4108 124.442 73.2169C123.337 69.6973 121.392 66.4969 118.775 63.8894C116.159 61.2819 112.947 59.345 109.416 58.2441C105.884 57.1433 102.138 56.9114 98.4972 57.5681C94.8562 58.2249 91.4291 59.7508 88.5086 62.0154C86.3296 58.3197 83.2656 55.2201 79.5906 52.9938C75.9157 50.7674 71.7445 49.4837 67.4501 49.2576C63.1556 49.0314 58.8719 49.8698 54.9821 51.6978C51.0923 53.5258 47.7177 56.2863 45.1601 59.7325C40.2702 57.5968 34.8397 57.0116 29.6048 58.0562C24.37 59.1008 19.5839 61.7246 15.8956 65.5721C12.2072 69.4195 9.79494 74.3045 8.98574 79.5646C8.17654 84.8248 9.00958 90.2058 11.3719 94.9781C8.53343 97.6823 6.5727 101.172 5.74257 104.997C4.91243 108.823 5.25096 112.808 6.71448 116.44C8.17801 120.072 10.6994 123.183 13.9536 125.373C17.2078 127.563 21.0455 128.732 24.9719 128.727H134.953Z" fill="#F8F8F8"/>
<path d="M136.716 126.98C141.391 126.985 145.914 125.33 149.475 122.312C153.036 119.294 155.402 115.11 156.148 110.51C156.895 105.911 155.972 101.197 153.547 97.2135C151.122 93.2303 147.353 90.2386 142.915 88.7749C142.893 84.3031 141.145 80.0114 138.034 76.7895C134.923 73.5676 130.688 71.6627 126.206 71.4697C125.1 67.95 123.155 64.7496 120.539 62.1421C117.922 59.5346 114.71 57.5977 111.179 56.4968C107.648 55.396 103.901 55.164 100.26 55.8208C96.6194 56.4775 93.1922 58.0035 90.2718 60.2681C88.094 56.5692 85.03 53.4664 81.3541 51.2375C77.6782 49.0086 73.5051 47.7232 69.2086 47.4963C64.912 47.2694 60.6261 48.1082 56.7345 49.9375C52.8429 51.7668 49.4672 54.5295 46.9095 57.9783C42.0196 55.8426 36.5891 55.2574 31.3542 56.302C26.1194 57.3466 21.3334 59.9705 17.645 63.8179C13.9566 67.6654 11.5444 72.5503 10.7352 77.8105C9.92596 83.0707 10.759 88.4517 13.1213 93.224C10.2802 95.9279 8.31723 99.4186 7.48578 103.245C6.65433 107.072 6.99255 111.06 8.4568 114.693C9.92105 118.327 12.4441 121.439 15.7004 123.629C18.9566 125.819 22.7966 126.986 26.7248 126.98H136.716Z" fill="#F5F5F5"/>
<path d="M138.48 125.212C143.153 125.215 147.674 123.558 151.234 120.54C154.793 117.521 157.158 113.338 157.904 108.739C158.65 104.141 157.729 99.4276 155.305 95.4447C152.882 91.4617 149.115 88.4692 144.679 87.0035C144.655 82.5324 142.907 78.2415 139.796 75.0203C136.685 71.7992 132.45 69.8947 127.969 69.7017C126.864 66.1803 124.919 62.9782 122.302 60.3694C119.684 57.7606 116.471 55.8229 112.938 54.7219C109.406 53.6209 105.658 53.3895 102.016 54.0475C98.3733 54.7055 94.9453 56.2333 92.0248 58.5001C89.8457 54.8045 86.7817 51.7049 83.1068 49.4785C79.4319 47.2522 75.2606 45.9685 70.9662 45.7423C66.6718 45.5161 62.3881 46.3546 58.4983 48.1825C54.6085 50.0105 51.2338 52.771 48.6763 56.2172C43.786 54.0793 38.3545 53.4923 33.1182 54.5359C27.8819 55.5794 23.0944 58.2031 19.4048 62.0511C15.7152 65.899 13.3022 70.785 12.493 76.0464C11.6838 81.3077 12.5175 86.6899 14.8812 91.4629C12.0427 94.1671 10.082 97.6568 9.25185 101.482C8.42171 105.308 8.76023 109.293 10.2238 112.925C11.6873 116.557 14.2087 119.668 17.4629 121.858C20.7171 124.048 24.5548 125.216 28.4812 125.212H138.48Z" fill="#F3F3F3"/>
<path d="M140.24 123.454C144.913 123.457 149.434 121.801 152.994 118.782C156.553 115.764 158.918 111.58 159.664 106.982C160.41 102.383 159.489 97.67 157.065 93.687C154.642 89.7041 150.874 86.7116 146.439 85.2459C146.415 80.7747 144.667 76.4839 141.556 73.2627C138.445 70.0416 134.21 68.1371 129.729 67.9441C128.623 64.4244 126.679 61.224 124.062 58.6165C121.445 56.0091 118.234 54.0721 114.702 52.9713C111.171 51.8704 107.424 51.6385 103.784 52.2952C100.143 52.952 96.7154 54.4779 93.795 56.7425C91.6165 53.0462 88.5527 49.9458 84.8778 47.7189C81.2028 45.492 77.0313 44.2081 72.7366 43.9819C68.4418 43.7557 64.1578 44.5944 60.2679 46.4229C56.378 48.2514 53.0035 51.0127 50.4465 54.4596C45.5566 52.3239 40.1261 51.7387 34.8912 52.7833C29.6563 53.8279 24.8703 56.4517 21.182 60.2992C17.4936 64.1467 15.0813 69.0316 14.2721 74.2918C13.4629 79.5519 14.296 84.9329 16.6583 89.7053C13.8198 92.4095 11.8591 95.8992 11.0289 99.7246C10.1988 103.55 10.5373 107.535 12.0009 111.167C13.4644 114.799 15.9858 117.911 19.24 120.101C22.4942 122.291 26.3319 123.459 30.2583 123.454H140.24Z" fill="#F0F0F0"/>
<path d="M142.006 121.696C146.679 121.699 151.201 120.043 154.76 117.024C158.32 114.006 160.684 109.823 161.43 105.224C162.177 100.625 161.255 95.9123 158.832 91.9294C156.408 87.9464 152.641 84.9539 148.205 83.4882C148.181 79.0167 146.432 74.7259 143.321 71.5048C140.209 68.2837 135.974 66.3794 131.492 66.1864C130.386 62.6667 128.442 59.4663 125.825 56.8588C123.208 54.2514 119.997 52.3144 116.465 51.2136C112.934 50.1127 109.188 49.8808 105.547 50.5375C101.906 51.1943 98.4786 52.7202 95.5582 54.9848C93.3797 51.2885 90.3159 48.1881 86.641 45.9612C82.966 43.7344 78.7945 42.4504 74.4998 42.2242C70.205 41.9981 65.921 42.8367 62.0311 44.6652C58.1412 46.4937 54.7667 49.255 52.2097 52.7019C47.3197 50.5662 41.8893 49.981 36.6544 51.0256C31.4195 52.0702 26.6335 54.6941 22.9451 58.5415C19.2568 62.389 16.8445 67.2739 16.0353 72.5341C15.2261 77.7943 16.0591 83.1753 18.4215 87.9476C15.583 90.6518 13.6223 94.1415 12.7921 97.9669C11.962 101.792 12.3005 105.778 13.764 109.41C15.2276 113.041 17.749 116.153 21.0032 118.343C24.2574 120.533 28.0951 121.701 32.0215 121.696H142.006Z" fill="#EEEEEE"/>
<path d="M143.769 119.939C148.443 119.942 152.964 118.285 156.524 115.267C160.083 112.248 162.448 108.065 163.194 103.466C163.94 98.8679 163.019 94.1548 160.595 90.1718C158.172 86.1888 154.404 83.1963 149.968 81.7306C149.944 77.2591 148.195 72.9683 145.084 69.7472C141.972 66.5262 137.737 64.6218 133.255 64.4288C132.149 60.9091 130.205 57.7087 127.588 55.1013C124.971 52.4938 121.76 50.5568 118.229 49.456C114.697 48.3552 110.951 48.1232 107.31 48.78C103.669 49.4367 100.242 50.9626 97.3214 53.2272C95.1429 49.5309 92.0791 46.4306 88.4041 44.2037C84.7292 41.9768 80.5577 40.6928 76.2629 40.4667C71.9682 40.2405 67.6842 41.0792 63.7943 42.9077C59.9044 44.7362 56.5299 47.4974 53.9729 50.9444C49.0829 48.8087 43.6524 48.2234 38.4176 49.268C33.1827 50.3126 28.3967 52.9365 24.7083 56.7839C21.02 60.6314 18.6077 65.5163 17.7985 70.7765C16.9893 76.0367 17.8223 81.4177 20.1847 86.19C17.3462 88.8942 15.3854 92.384 14.5553 96.2093C13.7252 100.035 14.0637 104.02 15.5272 107.652C16.9908 111.284 19.5122 114.395 22.7664 116.585C26.0205 118.775 29.8583 119.943 33.7847 119.939H143.769Z" fill="#EBEBEB"/>
<path d="M145.533 118.181C150.206 118.184 154.727 116.528 158.287 113.509C161.846 110.491 164.211 106.307 164.957 101.709C165.703 97.1102 164.782 92.397 162.358 88.414C159.935 84.4311 156.168 81.4386 151.732 79.9729C151.708 75.5014 149.959 71.2105 146.847 67.9895C143.736 64.7684 139.5 62.8641 135.018 62.6711C133.915 59.1491 131.971 55.9461 129.355 53.3362C126.738 50.7263 123.526 48.7873 119.993 47.6849C116.461 46.5826 112.713 46.3498 109.07 47.0065C105.428 47.6632 101.999 49.1898 99.0778 51.4558C96.8993 47.7594 93.8355 44.6591 90.1605 42.4322C86.4856 40.2053 82.3141 38.9214 78.0193 38.6952C73.7246 38.469 69.4406 39.3077 65.5507 41.1362C61.6608 42.9647 58.2863 45.7259 55.7293 49.1729C50.8393 47.0372 45.4088 46.452 40.174 47.4966C34.9391 48.5412 30.1531 51.165 26.4647 55.0125C22.7764 58.8599 20.3641 63.7448 19.5549 69.005C18.7457 74.2652 19.5787 79.6462 21.9411 84.4185C19.0975 87.122 17.1324 90.6133 16.2995 94.4414C15.4666 98.2694 15.8042 102.259 17.2688 105.893C18.7333 109.528 21.2575 112.642 24.5153 114.832C27.7731 117.023 31.6149 118.189 35.5445 118.181H145.533Z" fill="#E9E9E9"/>
<path d="M147.296 116.424C151.969 116.426 156.491 114.77 160.05 111.752C163.61 108.733 165.974 104.55 166.72 99.9511C167.466 95.3526 166.545 90.6394 164.122 86.6564C161.698 82.6735 157.931 79.681 153.495 78.2153C153.471 73.7438 151.722 69.4529 148.61 66.2319C145.499 63.0108 141.263 61.1065 136.782 60.9135C135.676 57.3938 133.732 54.1934 131.115 51.5859C128.498 48.9785 125.287 47.0415 121.755 45.9407C118.224 44.8398 114.477 44.6078 110.837 45.2646C107.196 45.9213 103.768 47.4473 100.848 49.7119C98.6695 46.0156 95.6057 42.9152 91.9308 40.6883C88.2558 38.4614 84.0843 37.1775 79.7896 36.9513C75.4948 36.7251 71.2108 37.5638 67.3209 39.3923C63.431 41.2208 60.0565 43.9821 57.4995 47.429C52.6095 45.2933 47.179 44.7081 41.9442 45.7527C36.7093 46.7973 31.9233 49.4211 28.2349 53.2686C24.5466 57.1161 22.1343 62.001 21.3251 67.2612C20.5159 72.5213 21.3489 77.9023 23.7113 82.6746C20.8728 85.3788 18.9121 88.8686 18.0819 92.694C17.2518 96.5194 17.5903 100.505 19.0538 104.137C20.5174 107.768 23.0388 110.88 26.293 113.07C29.5472 115.26 33.3849 116.428 37.3113 116.424H147.296Z" fill="#E6E6E6"/>
<path d="M149.059 114.666C153.733 114.669 158.254 113.012 161.813 109.994C165.373 106.975 167.738 102.792 168.484 98.1934C169.23 93.5949 168.308 88.8817 165.885 84.8988C163.462 80.9158 159.694 77.9233 155.258 76.4576C155.234 71.9861 153.485 67.6953 150.374 64.4742C147.262 61.2531 143.027 59.3488 138.545 59.1558C137.439 55.6361 135.495 52.4357 132.878 49.8282C130.261 47.2208 127.05 45.2838 123.518 44.183C119.987 43.0821 116.241 42.8502 112.6 43.5069C108.959 44.1636 105.532 45.6896 102.611 47.9542C100.433 44.2579 97.3691 41.1575 93.6941 38.9306C90.0191 36.7038 85.8476 35.4198 81.5529 35.1936C77.2582 34.9674 72.9742 35.8061 69.0843 37.6346C65.1943 39.4631 61.8199 42.2244 59.2628 45.6713C54.3733 43.5363 48.9434 42.9514 43.7092 43.996C38.4749 45.0406 33.6895 47.6641 30.0013 51.511C26.3132 55.3578 23.9008 60.2419 23.0911 65.5014C22.2813 70.7608 23.1135 76.1413 25.4746 80.9135C22.6367 83.6182 20.6764 87.1081 19.8466 90.9335C19.0167 94.7589 19.3553 98.7444 20.8187 102.376C22.2821 106.008 24.8032 109.12 28.057 111.31C31.3109 113.501 35.1483 114.669 39.0746 114.666H149.059Z" fill="#E4E4E4"/>
<path d="M150.823 112.905C155.496 112.908 160.017 111.251 163.577 108.233C167.136 105.214 169.501 101.031 170.247 96.4324C170.993 91.8338 170.072 87.1207 167.648 83.1377C165.225 79.1547 161.458 76.1622 157.022 74.6966C156.998 70.2251 155.249 65.9342 152.137 62.7132C149.026 59.4921 144.79 57.5878 140.308 57.3948C139.203 53.8751 137.258 50.6747 134.641 48.0672C132.025 45.4597 128.813 43.5228 125.282 42.4219C121.75 41.3211 118.004 41.0891 114.363 41.7459C110.722 42.4026 107.295 43.9286 104.375 46.1932C102.197 42.4964 99.1342 39.3955 95.4599 37.1679C91.7855 34.9404 87.6144 33.6557 83.3199 33.4288C79.0253 33.2019 74.7413 34.04 70.8514 35.868C66.9614 37.6959 63.5868 40.4568 61.0296 43.9034C56.1399 41.7673 50.7095 41.1815 45.4745 42.2256C40.2396 43.2697 35.4533 45.8931 31.7646 49.7402C28.0759 53.5872 25.6631 58.4719 24.8534 63.732C24.0436 68.992 24.8761 74.3731 27.2379 79.1456C24.398 81.8495 22.4357 85.3394 21.6043 89.1653C20.7728 92.9912 21.1102 96.9777 22.573 100.611C24.0358 104.244 26.557 107.357 29.8113 109.548C33.0656 111.739 36.9038 112.908 40.831 112.905H150.823Z" fill="#E2E2E2"/>
<path d="M152.586 111.151C157.259 111.153 161.781 109.497 165.34 106.479C168.899 103.46 171.264 99.2767 172.01 94.6782C172.756 90.0796 171.835 85.3665 169.412 81.3835C166.988 77.4006 163.221 74.4081 158.785 72.9424C158.762 68.4712 157.013 64.1803 153.903 60.9592C150.792 57.738 146.557 55.8336 142.075 55.6405C140.969 52.1219 139.024 48.9227 136.407 46.3162C133.79 43.7096 130.58 41.7733 127.049 40.6726C123.518 39.5719 119.773 39.3395 116.133 39.9954C112.492 40.6513 109.065 42.1759 106.145 44.439C103.967 40.7427 100.903 37.6423 97.2287 35.4154C93.554 33.1884 89.3827 31.9044 85.0882 31.6782C80.7937 31.452 76.5099 32.2907 72.6202 34.1193C68.7306 35.9478 65.3564 38.7092 62.7998 42.1561C57.9098 40.0177 52.4783 39.4302 47.2419 40.4733C42.0056 41.5164 37.2178 44.1396 33.5278 47.9871C29.8379 51.8347 27.4244 56.7203 26.6147 61.9816C25.8049 67.2429 26.6381 72.6251 29.0012 77.3983C26.1633 80.103 24.203 83.5929 23.3732 87.4183C22.5434 91.2437 22.882 95.2292 24.3453 98.861C25.8087 102.493 28.3298 105.604 31.5836 107.795C34.8375 109.985 38.6749 111.154 42.6012 111.151H152.586Z" fill="#DFDFDF"/>
<path d="M154.36 109.393C159.033 109.396 163.554 107.739 167.114 104.721C170.673 101.702 173.038 97.519 173.784 92.9204C174.53 88.3219 173.609 83.6088 171.185 79.6258C168.762 75.6428 164.995 72.6503 160.559 71.1846C160.535 66.7135 158.787 62.4226 155.676 59.2015C152.565 55.9803 148.33 54.0758 143.849 53.8828C142.743 50.3631 140.798 47.1627 138.181 44.5553C135.563 41.9479 132.352 40.0109 128.82 38.9101C125.289 37.8093 121.542 37.5774 117.901 38.2341C114.26 38.8908 110.832 40.4167 107.912 42.6812C105.734 38.9847 102.671 35.8841 98.9961 33.6568C95.3216 31.4296 91.1504 30.1452 86.8559 29.9187C82.5614 29.6922 78.2775 30.5305 74.3877 32.3588C70.4979 34.1871 67.1235 36.9481 64.5665 40.3949C59.6765 38.2602 54.2463 37.6757 49.0118 38.7206C43.7773 39.7654 38.9917 42.3892 35.3033 46.2362C31.615 50.0832 29.2023 54.9676 28.3923 60.2273C27.5823 65.487 28.414 70.8678 30.7749 75.6405C27.937 78.3452 25.9767 81.8352 25.1469 85.6606C24.317 89.486 24.6556 93.4714 26.119 97.1032C27.5824 100.735 30.1035 103.847 33.3573 106.037C36.6111 108.228 40.4486 109.396 44.3749 109.393H154.36Z" fill="#DDDDDD"/>
<path d="M156.113 107.635C160.786 107.638 165.307 105.982 168.867 102.963C172.426 99.9449 174.791 95.7614 175.537 91.1629C176.283 86.5643 175.362 81.8512 172.938 77.8682C170.515 73.8853 166.747 70.8928 162.312 69.4271C162.289 64.9556 160.541 60.6643 157.43 57.443C154.319 54.2217 150.083 52.3174 145.602 52.1252C144.496 48.6055 142.551 45.4051 139.934 42.7977C137.316 40.1903 134.105 38.2534 130.573 37.1526C127.041 36.0518 123.295 35.8198 119.654 36.4766C116.013 37.1333 112.585 38.6591 109.665 40.9237C107.487 37.2271 104.424 34.1265 100.749 31.8992C97.0745 29.672 92.9033 28.3876 88.6088 28.1611C84.3143 27.9346 80.0304 28.773 76.1406 30.6012C72.2508 32.4295 68.8764 35.1906 66.3195 38.6374C61.4294 36.5027 55.9992 35.9181 50.7647 36.963C45.5303 38.0079 40.7446 40.6316 37.0562 44.4786C33.3679 48.3257 30.9552 53.21 30.1452 58.4697C29.3352 63.7295 30.167 69.1103 32.5278 73.883C29.6916 76.5884 27.7329 80.0782 26.9041 83.9031C26.0753 87.7279 26.4142 91.7124 27.8773 95.3435C29.3404 98.9746 31.8606 102.086 35.1133 104.277C38.366 106.467 42.2023 107.637 46.1278 107.635H156.113Z" fill="#DADADA"/>
<path d="M157.876 105.878C162.549 105.88 167.07 104.224 170.63 101.206C174.189 98.1871 176.554 94.0037 177.3 89.4051C178.046 84.8066 177.125 80.0935 174.701 76.1105C172.278 72.1275 168.511 69.135 164.075 67.6693C164.052 63.1979 162.304 58.9066 159.193 55.6853C156.082 52.4639 151.847 50.5597 147.365 50.3675C146.259 46.8478 144.315 43.6474 141.698 41.04C139.081 38.4325 135.87 36.4955 132.338 35.3947C128.807 34.2939 125.061 34.0619 121.42 34.7187C117.779 35.3754 114.352 36.9013 111.431 39.1659C109.253 35.4694 106.189 32.3688 102.515 30.1416C98.8398 27.9144 94.6684 26.6301 90.3737 26.4035C86.0789 26.177 81.7948 27.0154 77.9047 28.8436C74.0147 30.6718 70.64 33.4329 68.0826 36.8796C63.1926 34.7449 57.7624 34.1604 52.5279 35.2053C47.2934 36.2501 42.5078 38.8739 38.8194 42.7209C35.1311 46.5679 32.7184 51.4523 31.9084 56.712C31.0984 61.9717 31.9301 67.3525 34.291 72.1252C31.4548 74.8306 29.4961 78.3205 28.6673 82.1453C27.8385 85.9701 28.1774 89.9547 29.6405 93.5858C31.1036 97.2169 33.6238 100.328 36.8765 102.519C40.1292 104.71 43.9654 105.879 47.891 105.878H157.876Z" fill="#D8D8D8"/>
<path d="M159.642 104.117C164.317 104.122 168.84 102.467 172.401 99.4491C175.962 96.4309 178.328 92.2469 179.074 87.6473C179.821 83.0478 178.898 78.3336 176.473 74.3504C174.048 70.3671 170.279 67.3754 165.841 65.9118C165.819 61.4403 164.071 57.149 160.96 53.9277C157.849 50.7064 153.613 48.8021 149.132 48.6099C148.026 45.0902 146.081 41.8899 143.465 39.2824C140.848 36.6749 137.636 34.738 134.105 33.6371C130.574 32.5363 126.827 32.3043 123.186 32.9611C119.545 33.6178 116.118 35.1437 113.198 37.4084C111.02 33.7118 107.956 30.6112 104.281 28.384C100.607 26.1568 96.4351 24.8725 92.1403 24.646C87.8456 24.4195 83.5615 25.2578 79.6714 27.086C75.7814 28.9143 72.4067 31.6753 69.8493 35.1221C64.9593 32.9874 59.5291 32.4028 54.2946 33.4477C49.0601 34.4926 44.2744 37.1163 40.5861 40.9633C36.8978 44.8104 34.4851 49.6947 33.6751 54.9544C32.8651 60.2142 33.6968 65.595 36.0577 70.3677C33.2205 73.073 31.2612 76.5633 30.4323 80.3887C29.6034 84.2142 29.9428 88.1994 31.4069 91.8308C32.871 95.4622 35.3927 98.5732 38.6468 100.763C41.9009 102.953 45.7384 104.121 49.6646 104.117H159.642Z" fill="#D5D5D5"/>
<path d="M161.406 102.359C166.08 102.364 170.603 100.71 174.164 97.6914C177.725 94.6733 180.091 90.4892 180.837 85.8897C181.584 81.2901 180.662 76.576 178.237 72.5927C175.812 68.6095 172.042 65.6178 167.605 64.1541C167.582 59.6827 165.834 55.3914 162.723 52.1701C159.612 48.9487 155.377 47.0445 150.895 46.8523C149.788 43.332 147.842 40.1314 145.224 37.5242C142.606 34.917 139.393 32.9807 135.86 31.8811C132.328 30.7816 128.58 30.5514 124.939 31.2102C121.297 31.8691 117.87 33.3974 114.951 35.6645C112.773 31.9679 109.709 28.8673 106.034 26.6401C102.359 24.4129 98.188 23.1286 93.8932 22.9021C89.5985 22.6756 85.3144 23.5139 81.4243 25.3421C77.5343 27.1703 74.1596 29.9314 71.6022 33.3781C66.7127 31.2431 61.2828 30.6583 56.0486 31.7029C50.8144 32.7475 46.0289 35.3709 42.3408 39.2178C38.6526 43.0646 36.2402 47.9487 35.4305 53.2082C34.6208 58.4677 35.4529 63.8481 37.814 68.6203C34.9758 71.3243 33.0151 74.8138 32.1849 78.6388C31.3546 82.4639 31.6929 86.4492 33.156 90.0808C34.6191 93.7125 37.14 96.824 40.3936 99.0142C43.6473 101.204 47.4845 102.373 51.4106 102.369L161.406 102.359Z" fill="#D3D3D3"/>
<path d="M163.169 100.601C167.843 100.607 172.367 98.9519 175.928 95.9337C179.489 92.9156 181.855 88.7316 182.601 84.132C183.347 79.5324 182.425 74.8183 180 70.8351C177.575 66.8518 173.806 63.8601 169.368 62.3965C169.346 57.925 167.598 53.6337 164.487 50.4124C161.375 47.1911 157.14 45.2868 152.658 45.0946C151.552 41.5752 149.608 38.375 146.991 35.7676C144.374 33.1602 141.163 31.2232 137.632 30.1221C134.101 29.021 130.355 28.7886 126.714 29.4447C123.073 30.1008 119.645 31.6258 116.724 33.8896C114.545 30.194 111.481 27.0944 107.806 24.868C104.132 22.6416 99.9603 21.358 95.6659 21.1318C91.3714 20.9057 87.0877 21.7441 83.1979 23.572C79.3081 25.4 75.9335 28.1606 73.3759 31.6068C68.486 29.4711 63.0555 28.8858 57.8207 29.9304C52.5858 30.975 47.7998 33.5989 44.1114 37.4463C40.423 41.2938 38.0108 46.1787 37.2016 51.4389C36.3924 56.6991 37.2254 62.08 39.5877 66.8524C36.7492 69.5565 34.7885 73.0463 33.9584 76.8717C33.1283 80.6971 33.4668 84.6826 34.9303 88.3144C36.3938 91.9462 38.9153 95.0577 42.1694 97.2477C45.4236 99.4377 49.2613 100.606 53.1877 100.601H163.169Z" fill="#D0D0D0"/>
<path d="M164.932 98.8299C169.607 98.8353 174.13 97.1806 177.691 94.1624C181.252 91.1443 183.618 86.9602 184.364 82.3606C185.111 77.7611 184.189 73.0469 181.764 69.0637C179.338 65.0805 175.569 62.0887 171.131 60.6251C171.109 56.1537 169.361 51.8624 166.25 48.641C163.139 45.4197 158.903 43.5155 154.422 43.3233C153.316 39.8038 151.371 36.6036 148.754 33.9963C146.138 31.3889 142.926 29.4519 139.395 28.3508C135.864 27.2497 132.118 27.0172 128.477 27.6733C124.836 28.3294 121.409 29.8545 118.488 32.1183C116.309 28.4227 113.245 25.323 109.57 23.0966C105.895 20.8703 101.724 19.5866 97.4293 19.3605C93.1349 19.1343 88.8512 19.9727 84.9613 21.8007C81.0715 23.6286 77.6969 26.3892 75.1394 29.8354C70.2494 27.6997 64.8189 27.1145 59.5841 28.159C54.3492 29.2036 49.5632 31.8275 45.8748 35.675C42.1865 39.5224 39.7742 44.4074 38.965 49.6675C38.1558 54.9277 38.9888 60.3087 41.3511 65.081C38.5133 67.7846 36.5528 71.2735 35.7224 75.0979C34.8919 78.9223 35.2296 82.9069 36.6918 86.5383C38.154 90.1697 40.6739 93.2812 43.9264 95.472C47.179 97.6628 51.0153 98.8324 54.9408 98.8299H164.932Z" fill="#CECECE"/>
<path d="M166.696 97.086C171.37 97.0914 175.893 95.4366 179.454 92.4185C183.015 89.4003 185.381 85.2163 186.127 80.6167C186.874 76.0172 185.952 71.303 183.527 67.3198C181.102 63.3366 177.332 60.3449 172.895 58.8812C172.871 54.4097 171.123 50.1185 168.012 46.8967C164.902 43.675 160.666 41.7698 156.185 41.5759C155.079 38.0562 153.135 34.8559 150.518 32.2484C147.901 29.6409 144.69 27.704 141.158 26.6031C137.627 25.5023 133.88 25.2703 130.24 25.9271C126.599 26.5838 123.171 28.1097 120.251 30.3743C118.072 26.6787 115.008 23.5791 111.333 21.3527C107.658 19.1264 103.487 17.8427 99.1924 17.6166C94.898 17.3904 90.6143 18.2288 86.7245 20.0568C82.8347 21.8847 79.4601 24.6453 76.9025 28.0915C72.0129 25.958 66.5834 25.3746 61.35 26.4202C56.1165 27.4658 51.3321 30.0898 47.6449 33.9368C43.9578 37.7838 41.5462 42.6677 40.737 47.9267C39.9278 53.1856 40.7602 58.5655 43.1212 63.3371C40.2827 66.0413 38.322 69.5311 37.4918 73.3564C36.6617 77.1818 37.0002 81.1674 38.4638 84.7992C39.9273 88.431 42.4487 91.5425 45.7029 93.7325C48.9571 95.9225 52.7948 97.0905 56.7212 97.086H166.696Z" fill="#CCCCCC"/>
<path d="M168.459 95.3283C173.133 95.3337 177.656 93.6789 181.217 90.6608C184.778 87.6427 187.144 83.4586 187.891 78.8591C188.637 74.2595 187.715 69.5454 185.29 65.5621C182.865 61.5789 179.095 58.5872 174.658 57.1235C174.635 52.652 172.886 48.3607 169.776 45.139C166.665 41.9173 162.43 40.0121 157.948 39.8182C156.842 36.2985 154.898 33.0981 152.281 30.4907C149.664 27.8832 146.453 25.9463 142.921 24.8454C139.39 23.7446 135.644 23.5126 132.003 24.1694C128.362 24.8261 124.935 26.352 122.014 28.6167C119.835 24.921 116.771 21.8214 113.096 19.5951C109.421 17.3687 105.25 16.085 100.956 15.8589C96.6612 15.6327 92.3775 16.4711 88.4877 18.2991C84.5979 20.1271 81.2233 22.8876 78.6657 26.3338C73.7758 24.1981 68.3453 23.6129 63.1104 24.6575C57.8756 25.702 53.0896 28.3259 49.4012 32.1734C45.7128 36.0208 43.3006 40.9057 42.4914 46.1659C41.6822 51.4261 42.5152 56.8071 44.8775 61.5794C42.039 64.2836 40.0783 67.7734 39.2482 71.5987C38.4181 75.4241 38.7566 79.4097 40.2201 83.0415C41.6836 86.6733 44.205 89.7848 47.4592 91.9748C50.7134 94.1648 54.5511 95.3328 58.4775 95.3283H168.459Z" fill="#C9C9C9"/>
<path d="M170.222 93.5708C174.896 93.5761 179.42 91.9214 182.981 88.9032C186.542 85.8851 188.908 81.701 189.654 77.1015C190.4 72.5019 189.478 67.7878 187.053 63.8046C184.628 59.8213 180.859 56.8296 176.421 55.3659C176.397 50.8937 174.647 46.6022 171.534 43.3815C168.421 40.1608 164.184 38.258 159.701 38.0675C158.595 34.5479 156.651 31.3474 154.034 28.74C151.417 26.1325 148.206 24.1956 144.674 23.0948C141.143 21.9939 137.397 21.7619 133.756 22.4187C130.115 23.0754 126.688 24.6013 123.767 26.866C121.588 23.1703 118.524 20.0707 114.849 17.8444C111.174 15.618 107.003 14.3343 102.709 14.1081C98.4142 13.882 94.1305 14.7204 90.2407 16.5484C86.3508 18.3764 82.9762 21.1369 80.4187 24.5831C75.5287 22.4474 70.0982 21.8622 64.8634 22.9068C59.6285 23.9514 54.8425 26.5752 51.1541 30.4227C47.4658 34.2701 45.0535 39.155 44.2443 44.4152C43.4351 49.6754 44.2681 55.0564 46.6305 59.8287C43.792 62.5329 41.8312 66.0227 41.0011 69.848C40.171 73.6734 40.5095 77.659 41.973 81.2908C43.4366 84.9226 45.958 88.0341 49.2122 90.2241C52.4663 92.414 56.3041 93.5821 60.2305 93.5776L170.222 93.5708Z" fill="#C7C7C7"/>
<path d="M171.985 91.8131C176.659 91.8159 181.18 90.1595 184.74 87.1411C188.299 84.1226 190.664 79.9392 191.41 75.3406C192.156 70.7421 191.235 66.0289 188.811 62.0459C186.388 58.063 182.62 55.0705 178.184 53.6048C178.161 49.1336 176.413 44.8428 173.302 41.6216C170.191 38.4005 165.956 36.496 161.475 36.303C160.369 32.7833 158.424 29.5829 155.808 26.9754C153.191 24.3679 149.979 22.431 146.448 21.3302C142.917 20.2294 139.17 19.9974 135.529 20.6541C131.888 21.3109 128.461 22.8368 125.541 25.1014C123.362 21.4058 120.298 18.3062 116.623 16.0798C112.948 13.8534 108.777 12.5698 104.482 12.3436C100.188 12.1175 95.9041 12.9558 92.0143 14.7838C88.1245 16.6118 84.7499 19.3723 82.1923 22.8185C77.3024 20.6828 71.8719 20.0976 66.6371 21.1422C61.4022 22.1868 56.6162 24.8106 52.9278 28.6581C49.2395 32.5055 46.8272 37.3905 46.018 42.6507C45.2088 47.9108 46.0418 53.2918 48.4041 58.0642C45.5657 60.7683 43.6049 64.2581 42.7748 68.0835C41.9447 71.9089 42.2832 75.8944 43.7467 79.5262C45.2102 83.158 47.7317 86.2695 50.9858 88.4595C54.24 90.6495 58.0777 91.8176 62.0041 91.8131H171.985Z" fill="#C4C4C4"/>
<path d="M173.749 90.0553C178.422 90.0581 182.944 88.4019 186.503 85.3834C190.062 82.3649 192.427 78.1815 193.173 73.5829C193.919 68.9844 192.998 64.2712 190.575 60.2882C188.151 56.3053 184.384 53.3128 179.948 51.8471C179.925 47.3759 178.176 43.0851 175.065 39.8639C171.954 36.6428 167.719 34.7383 163.238 34.5453C162.132 31.0256 160.188 27.8252 157.571 25.2177C154.954 22.6103 151.743 20.6733 148.211 19.5725C144.68 18.4717 140.934 18.2397 137.293 18.8964C133.652 19.5532 130.225 21.0791 127.304 23.3437C125.126 19.6474 122.062 16.5471 118.387 14.3202C114.712 12.0933 110.541 10.8093 106.246 10.5831C101.951 10.3569 97.6671 11.1956 93.7772 13.0241C89.8873 14.8526 86.5128 17.6139 83.9558 21.0608C79.0658 18.9251 73.6354 18.3399 68.4005 19.3845C63.1656 20.4291 58.3796 23.0529 54.6912 26.9004C51.0029 30.7478 48.5906 35.6328 47.7814 40.893C46.9722 46.1531 47.8052 51.5341 50.1676 56.3065C47.3291 59.0106 45.3684 62.5004 44.5382 66.3258C43.7081 70.1512 44.0466 74.1367 45.5101 77.7685C46.9737 81.4003 49.4951 84.5118 52.7493 86.7018C56.0035 88.8918 59.8412 90.0598 63.7676 90.0553H173.749Z" fill="#C2C2C2"/>
<path d="M175.512 88.2977C180.185 88.3005 184.707 86.6443 188.266 83.6258C191.826 80.6073 194.19 76.4239 194.936 71.8253C195.682 67.2268 194.761 62.5136 192.338 58.5307C189.914 54.5477 186.147 51.5552 181.711 50.0895C181.687 45.618 179.938 41.3272 176.826 38.1061C173.715 34.885 169.479 32.9807 164.998 32.7877C163.892 29.2671 161.947 26.066 159.33 23.458C156.712 20.8501 153.5 18.913 149.968 17.8124C146.435 16.7118 142.688 16.4805 139.046 17.1383C135.405 17.7961 131.977 19.3234 129.057 21.5896C126.879 17.8932 123.815 14.7929 120.14 12.566C116.465 10.3391 112.293 9.05514 107.999 8.82897C103.704 8.60279 99.42 9.44147 95.5301 11.27C91.6402 13.0985 88.2657 15.8597 85.7086 19.3067C80.8194 17.1723 75.3902 16.5879 70.1566 17.6324C64.923 18.677 60.1381 21.3001 56.4502 25.1463C52.7623 28.9925 50.3498 33.8759 49.5395 39.1346C48.7293 44.3934 49.5604 49.7733 51.9204 54.5454C49.0816 57.2486 47.1201 60.7374 46.2888 64.5621C45.4576 68.3868 45.7946 72.372 47.2566 76.0039C48.7185 79.6358 51.2384 82.748 54.4912 84.9393C57.744 87.1305 61.5807 88.3002 65.5067 88.2977H175.512Z" fill="#BFBFBF"/>
<path d="M177.275 86.5401C181.949 86.5429 186.47 84.8866 190.029 81.8681C193.589 78.8496 195.953 74.6662 196.7 70.0677C197.446 65.4691 196.524 60.756 194.101 56.773C191.677 52.79 187.91 49.7975 183.474 48.3319C183.45 43.8598 181.701 39.5684 178.588 36.3473C175.476 33.1261 171.24 31.2222 166.758 31.03C165.652 27.5103 163.707 24.3099 161.091 21.7025C158.474 19.095 155.262 17.1581 151.731 16.0572C148.2 14.9564 144.453 14.7244 140.812 15.3812C137.171 16.0379 133.744 17.5638 130.824 19.8284C128.645 16.1321 125.582 13.0318 121.907 10.8049C118.232 8.57803 114.06 7.29403 109.765 7.06786C105.471 6.84168 101.187 7.68036 97.2967 9.50886C93.4068 11.3374 90.0324 14.0986 87.4753 17.5456C82.5854 15.4099 77.1549 14.8247 71.92 15.8692C66.6852 16.9138 61.8991 19.5377 58.2108 23.3851C54.5224 27.2326 52.1101 32.1175 51.3009 37.3777C50.4917 42.6379 51.3248 48.0189 53.6871 52.7912C50.8486 55.4954 48.8879 58.9852 48.0578 62.8105C47.2276 66.6359 47.5661 70.6215 49.0297 74.2533C50.4932 77.8851 53.0146 80.9965 56.2688 83.1865C59.523 85.3765 63.3607 86.5446 67.2871 86.5401H177.275Z" fill="#BDBDBD"/>
<path d="M179.039 84.7824C183.712 84.7852 188.233 83.1289 191.793 80.1104C195.352 77.0919 197.717 72.9085 198.463 68.31C199.209 63.7114 198.288 58.9983 195.864 55.0153C193.441 51.0323 189.674 48.0398 185.238 46.5742C185.214 42.1027 183.465 37.8118 180.353 34.5907C177.242 31.3697 173.006 29.4653 168.524 29.2723C167.419 25.7526 165.474 22.5522 162.857 19.9448C160.241 17.3373 157.029 15.4003 153.498 14.2995C149.966 13.1987 146.22 12.9667 142.579 13.6235C138.938 14.2802 135.511 15.8061 132.591 18.0708C130.412 14.3744 127.348 11.2741 123.673 9.04722C119.998 6.82033 115.827 5.53634 111.532 5.31017C107.237 5.08399 102.953 5.92267 99.0636 7.75117C95.1737 9.57966 91.7992 12.3409 89.2422 15.7879C84.3522 13.6522 78.9217 13.067 73.6869 14.1116C68.452 15.1561 63.666 17.78 59.9776 21.6274C56.2893 25.4749 53.877 30.3598 53.0678 35.62C52.2586 40.8802 53.0916 46.2612 55.4539 51.0335C52.6155 53.7377 50.6547 57.2275 49.8246 61.0528C48.9945 64.8782 49.333 68.8638 50.7965 72.4956C52.26 76.1274 54.7815 79.2389 58.0356 81.4288C61.2898 83.6188 65.1276 84.7869 69.0539 84.7824H179.039Z" fill="#BABABA"/>
<path d="M180.802 83.0385C185.475 83.0413 189.997 81.385 193.556 78.3665C197.115 75.348 199.48 71.1647 200.226 66.5661C200.972 61.9675 200.051 57.2544 197.628 53.2714C195.204 49.2884 191.437 46.2959 187.001 44.8303C186.977 40.3588 185.228 36.0679 182.116 32.8469C179.005 29.6258 174.769 27.7215 170.288 27.5285C169.182 24.0088 167.237 20.8084 164.621 18.2009C162.004 15.5934 158.792 13.6565 155.261 12.5556C151.73 11.4548 147.983 11.2228 144.342 11.8796C140.701 12.5363 137.274 14.0623 134.354 16.3269C132.177 12.6273 129.113 9.52382 125.437 7.29439C121.761 5.06496 117.588 3.7792 113.291 3.55231C108.994 3.32541 104.708 4.16445 100.816 5.99427C96.9243 7.82409 93.5487 10.5875 90.9916 14.0371C86.1016 11.9014 80.6711 11.3162 75.4363 12.3608C70.2014 13.4054 65.4154 16.0293 61.727 19.8767C58.0387 23.7242 55.6264 28.6091 54.8172 33.8693C54.008 39.1294 54.841 44.5104 57.2034 49.2828C54.362 51.9869 52.399 55.4779 51.5676 59.3051C50.7363 63.1323 51.0748 67.12 52.5395 70.7536C54.0042 74.3871 56.5278 77.4997 59.7845 79.6895C63.0413 81.8793 66.8818 83.0458 70.8103 83.0385H180.802Z" fill="#B8B8B8"/>
<path d="M182.565 81.2672C187.238 81.27 191.76 79.6137 195.319 76.5952C198.879 73.5767 201.243 69.3934 201.989 64.7948C202.735 60.1962 201.814 55.4831 199.391 51.5001C196.967 47.5171 193.2 44.5247 188.764 43.059C188.74 38.5875 186.991 34.2966 183.879 31.0756C180.768 27.8545 176.533 25.9502 172.051 25.7571C170.946 22.2358 169.001 19.0337 166.384 16.4249C163.766 13.8161 160.553 11.8783 157.02 10.7773C153.488 9.67635 149.74 9.44496 146.097 10.1029C142.455 10.7609 139.027 12.2887 136.107 14.5556C133.929 10.8593 130.865 7.75887 127.191 5.53193C123.516 3.30499 119.345 2.02097 115.05 1.79479C110.756 1.56861 106.472 2.40733 102.582 4.23587C98.6925 6.06442 95.3183 8.82573 92.7617 12.2727C87.8717 10.1343 82.4402 9.54676 77.2038 10.5898C71.9675 11.6329 67.1797 14.2561 63.4898 18.1037C59.7998 21.9512 57.3863 26.837 56.5766 32.0982C55.7668 37.3595 56.6 42.7417 58.9631 47.5149C56.1252 50.2196 54.165 53.7095 53.3351 57.5349C52.5053 61.3603 52.8439 65.3458 54.3073 68.9776C55.7706 72.6094 58.2917 75.7211 61.5455 77.9115C64.7994 80.1019 68.6368 81.2707 72.5631 81.2672H182.565Z" fill="#B5B5B5"/>
<path d="M184.322 79.5095C188.995 79.5123 193.516 77.856 197.076 74.8375C200.635 71.8191 203 67.6357 203.746 63.0371C204.492 58.4385 203.571 53.7254 201.147 49.7424C198.724 45.7594 194.956 42.767 190.521 41.3013C190.496 36.8298 188.747 32.5389 185.636 29.3179C182.524 26.0968 178.289 24.1925 173.807 23.9995C172.702 20.4798 170.757 17.2794 168.14 14.6719C165.523 12.0644 162.312 10.1275 158.781 9.02664C155.249 7.92581 151.503 7.69387 147.862 8.35062C144.221 9.00737 140.794 10.5333 137.874 12.7979C135.695 9.10156 132.632 6.00118 128.957 3.77424C125.283 1.5473 121.111 0.26328 116.817 0.0370973C112.522 -0.189085 108.239 0.649636 104.349 2.47818C100.459 4.30673 97.0851 7.06804 94.5285 10.515C89.6388 8.37886 84.2084 7.79314 78.9734 8.83723C73.7385 9.88131 68.9522 12.5047 65.2635 16.3517C61.5748 20.1988 59.162 25.0835 58.3523 30.3435C57.5425 35.6036 58.375 40.9847 60.7368 45.7572C57.8989 48.4619 55.9386 51.9518 55.1088 55.7772C54.279 59.6026 54.6176 63.5881 56.0809 67.2199C57.5443 70.8517 60.0654 73.9634 63.3192 76.1538C66.5731 78.3442 70.4105 79.513 74.3368 79.5095H184.322Z" fill="#B3B3B3"/>
</g>
</svg>
