<svg width="205" height="151" viewBox="0 0 205 151" fill="none" xmlns="http://www.w3.org/2000/svg">
<g style="mix-blend-mode:color-burn">
<path d="M129.261 151C140.59 148.824 149.15 138.501 149.15 126.65C149.146 122.858 148.246 119.121 146.522 115.735C144.797 112.35 142.296 109.41 139.217 107.153C140.452 104.685 141.029 101.945 140.894 99.1948C140.76 96.4441 139.918 93.7729 138.448 91.4342C136.979 89.0955 134.93 87.1667 132.497 85.8305C130.063 84.4943 127.325 83.7948 124.542 83.7984C123.065 83.8027 121.595 84.0041 120.173 84.3972C121.161 80.2437 120.718 75.8826 118.916 72.0061C117.114 68.1297 114.054 64.96 110.224 63.0002C106.394 61.0404 102.011 60.4028 97.7731 61.1886C93.5347 61.9743 89.683 64.1385 86.8293 67.3375C83.7416 62.6076 79.2035 58.9814 73.8806 56.9906C68.5578 54.9998 62.7303 54.7492 57.253 56.2757C51.7757 57.8021 46.9369 61.0252 43.4462 65.4722C39.9556 69.9192 37.9969 75.3561 37.8574 80.9853C37.1881 80.9083 36.5151 80.8665 35.8414 80.86C33.1603 80.8616 30.5172 81.487 28.1255 82.6858C25.7337 83.8846 23.6603 85.6232 22.0728 87.7611C20.4852 89.899 19.4279 92.3764 18.9863 94.9932C18.5446 97.61 18.731 100.293 19.5303 102.825C13.5751 104.066 8.29566 107.446 4.7117 112.313C1.12774 117.18 -0.506484 123.189 0.124706 129.179C0.755897 135.168 3.60772 140.714 8.12933 144.745C12.6509 148.776 18.5215 151.005 24.6073 151.004L129.261 151Z" fill="white"/>
<path d="M131.062 149.224C142.391 147.048 150.951 136.726 150.951 124.874C150.948 121.083 150.048 117.345 148.323 113.959C146.598 110.574 144.097 107.635 141.019 105.377C142.253 102.909 142.83 100.17 142.696 97.4192C142.561 94.6684 141.719 91.9973 140.249 89.6586C138.78 87.3199 136.731 85.3911 134.298 84.0549C131.865 82.7186 129.127 82.0192 126.344 82.0228C124.867 82.0272 123.397 82.2287 121.974 82.6216C122.962 78.4681 122.52 74.1069 120.717 70.2305C118.915 66.354 115.856 63.1843 112.025 61.2245C108.195 59.2647 103.813 58.6271 99.5744 59.4129C95.336 60.1987 91.4843 62.3628 88.6306 65.5618C85.5418 60.8307 81.0019 57.2039 75.677 55.2136C70.3522 53.2234 64.5228 52.9746 59.0446 54.5036C53.5663 56.0327 48.7276 59.2591 45.2385 63.7094C41.7495 68.1598 39.7939 73.5996 39.6587 79.2305C38.9894 79.1536 38.3164 79.1117 37.6427 79.1052C34.9616 79.1068 32.3185 79.7323 29.9267 80.9311C27.535 82.1299 25.4616 83.8684 23.874 86.0063C22.2864 88.1443 21.2292 90.6216 20.7875 93.2384C20.3459 95.8553 20.5322 98.5381 21.3316 101.071C15.4022 102.335 10.1536 105.722 6.59315 110.581C3.03274 115.44 1.41146 121.43 2.04043 127.399C2.6694 133.369 5.50431 138.899 10.0011 142.927C14.4978 146.955 20.3396 149.198 26.4051 149.224H131.062Z" fill="#FDFDFD"/>
<path d="M132.863 147.435C144.192 145.259 152.752 134.936 152.752 123.085C152.75 119.293 151.85 115.555 150.126 112.169C148.401 108.784 145.899 105.845 142.82 103.588C144.054 101.119 144.632 98.3803 144.497 95.6296C144.362 92.8789 143.52 90.2077 142.051 87.869C140.581 85.5303 138.533 83.6015 136.099 82.2653C133.666 80.9291 130.928 80.2296 128.145 80.2332C126.668 80.2377 125.198 80.4391 123.775 80.8321C124.763 76.6785 124.321 72.3174 122.519 68.4409C120.716 64.5645 117.657 61.3948 113.827 59.435C109.996 57.4752 105.614 56.8376 101.376 57.6233C97.1374 58.4091 93.2857 60.5733 90.432 63.7723C87.3432 59.0411 82.8033 55.4143 77.4784 53.4241C72.1536 51.4339 66.3242 51.185 60.846 52.7141C55.3677 54.2431 50.529 57.4696 47.0399 61.9199C43.5509 66.3702 41.5953 71.81 41.4601 77.441C40.7908 77.364 40.1179 77.3222 39.4441 77.3157C36.7626 77.3156 34.1186 77.94 31.7261 79.1384C29.3336 80.3367 27.2597 82.0755 25.6721 84.2139C24.0844 86.3524 23.0276 88.8306 22.5872 91.448C22.1467 94.0655 22.3349 96.7488 23.1365 99.281C17.1816 100.521 11.9024 103.901 8.31841 108.768C4.73445 113.635 3.1 119.643 3.73073 125.633C4.36145 131.622 7.2126 137.168 11.7335 141.199C16.2545 145.23 22.1245 147.46 28.21 147.459L132.863 147.435Z" fill="#FAFAFA"/>
<path d="M134.665 145.652C145.994 143.476 154.554 133.153 154.554 121.302C154.551 117.511 153.652 113.772 151.927 110.387C150.202 107.001 147.7 104.062 144.622 101.805C145.856 99.3369 146.433 96.5977 146.299 93.847C146.164 91.0963 145.322 88.4251 143.852 86.0864C142.383 83.7477 140.334 81.819 137.901 80.4827C135.467 79.1465 132.73 78.447 129.947 78.4506C128.469 78.4551 127 78.6565 125.577 79.0495C126.565 74.8959 126.123 70.5348 124.32 66.6583C122.518 62.7819 119.459 59.6122 115.628 57.6524C111.798 55.6926 107.416 55.055 103.177 55.8407C98.9389 56.6265 95.0872 58.7907 92.2335 61.9897C89.1447 57.2586 84.6048 53.6317 79.2799 51.6415C73.9551 49.6513 68.1258 49.4024 62.6475 50.9315C57.1692 52.4605 52.3305 55.687 48.8415 60.1373C45.3524 64.5876 43.3968 70.0274 43.2616 75.6584C42.5923 75.5814 41.9194 75.5396 41.2456 75.5331C38.5641 75.533 35.9201 76.1574 33.5276 77.3558C31.1351 78.5542 29.0612 80.2929 27.4736 82.4313C25.886 84.5698 24.8292 87.048 24.3887 89.6654C23.9482 92.2829 24.1364 94.9662 24.938 97.4984C18.9831 98.7389 13.7039 102.119 10.1199 106.986C6.53596 111.852 4.90151 117.861 5.53224 123.85C6.16297 129.84 9.01411 135.385 13.5351 139.416C18.056 143.447 23.926 145.678 30.0115 145.677L134.665 145.652Z" fill="#F8F8F8"/>
<path d="M136.466 143.87C147.795 141.694 156.355 131.371 156.355 119.519C156.353 115.728 155.453 111.99 153.728 108.604C152.004 105.218 149.502 102.279 146.423 100.023C147.659 97.5543 148.238 94.8144 148.104 92.0629C147.97 89.3113 147.129 86.6391 145.659 84.2996C144.189 81.9601 142.14 80.0308 139.705 78.6947C137.271 77.3585 134.532 76.6597 131.748 76.6646C130.271 76.6702 128.801 76.8728 127.378 77.2669C128.366 73.1133 127.924 68.7522 126.122 64.8757C124.319 60.9993 121.26 57.8296 117.43 55.8698C113.599 53.91 109.217 53.2724 104.979 54.0582C100.74 54.8439 96.8885 57.0081 94.0348 60.2071C90.9491 55.4728 86.4108 51.8423 81.0863 49.8483C75.7618 47.8544 69.9315 47.6022 64.4514 49.1287C58.9714 50.6552 54.1303 53.88 50.6388 58.3297C47.1472 62.7794 45.1893 68.2195 45.0524 73.8514C44.3831 73.7744 43.7102 73.7326 43.0364 73.7261C40.3548 73.726 37.7109 74.3504 35.3184 75.5488C32.9259 76.7472 30.852 78.4859 29.2644 80.6244C27.6767 82.7628 26.62 85.241 26.1795 87.8585C25.739 90.4759 25.9272 93.1593 26.7289 95.6914C20.7739 96.9319 15.4946 100.312 11.9107 105.179C8.32673 110.045 6.69228 116.054 7.32301 122.043C7.95374 128.033 10.8049 133.578 15.3258 137.609C19.8468 141.64 25.7168 143.871 31.8023 143.87H136.466Z" fill="#F5F5F5"/>
<path d="M138.268 142.087C149.597 139.911 158.157 129.588 158.157 117.737C158.154 113.945 157.255 110.207 155.53 106.822C153.805 103.436 151.303 100.497 148.224 98.2401C149.631 95.4392 150.186 92.2948 149.822 89.1881C149.458 86.0814 148.192 83.1458 146.176 80.7371C144.16 78.3284 141.481 76.5501 138.465 75.6178C135.448 74.6855 132.223 74.6391 129.18 75.4844C130.168 71.3308 129.725 66.9697 127.923 63.0933C126.121 59.2168 123.061 56.0471 119.231 54.0873C115.401 52.1275 111.018 51.4899 106.78 52.2757C102.542 53.0615 98.69 55.2256 95.8363 58.4246C92.7475 53.6935 88.2076 50.0667 82.8827 48.0764C77.5579 46.0862 71.7285 45.8373 66.2503 47.3664C60.772 48.8955 55.9333 52.1219 52.4442 56.5722C48.9552 61.0226 46.9996 66.4624 46.8644 72.0933C46.1951 72.0164 45.5222 71.9745 44.8484 71.968C42.1669 71.9679 39.5229 72.5923 37.1304 73.7907C34.7379 74.9891 32.664 76.7278 31.0764 78.8663C29.4887 81.0047 28.4319 83.4829 27.9915 86.1004C27.551 88.7178 27.7392 91.4011 28.5408 93.9333C22.5859 95.1738 17.3067 98.5538 13.7227 103.421C10.1387 108.287 8.5043 114.296 9.13502 120.285C9.76575 126.275 12.6169 131.82 17.1378 135.851C21.6588 139.882 27.5288 142.113 33.6143 142.112L138.268 142.087Z" fill="#F3F3F3"/>
<path d="M140.069 140.305C151.398 138.129 159.958 127.806 159.958 115.954C159.955 112.163 159.056 108.425 157.331 105.039C155.606 101.653 153.104 98.7143 150.026 96.4573C151.44 93.6556 152.002 90.5075 151.642 87.3958C151.283 84.2842 150.017 81.3429 148 78.9295C145.983 76.5162 143.3 74.7347 140.279 73.8017C137.257 72.8686 134.027 72.8242 130.981 73.6738C131.969 69.5203 131.527 65.1592 129.724 61.2827C127.922 57.4063 124.863 54.2366 121.032 52.2768C117.202 50.317 112.82 49.6794 108.581 50.4651C104.343 51.2509 100.491 53.4151 97.6375 56.6141C94.5488 51.8829 90.0088 48.2561 84.684 46.2659C79.3591 44.2757 73.5298 44.0268 68.0515 45.5558C62.5733 47.0849 57.7345 50.3114 54.2455 54.7617C50.7565 59.212 48.8008 64.6518 48.6657 70.2828C47.9964 70.2057 47.3234 70.1639 46.6497 70.1574C43.9681 70.1574 41.3242 70.7818 38.9317 71.9802C36.5392 73.1785 34.4653 74.9173 32.8776 77.0557C31.29 79.1942 30.2332 81.6723 29.7927 84.2898C29.3523 86.9073 29.5404 89.5906 30.3421 92.1228C24.3871 93.3633 19.1079 96.7433 15.524 101.61C11.94 106.477 10.3056 112.485 10.9363 118.475C11.567 124.464 14.4182 130.01 18.9391 134.041C23.4601 138.072 29.3301 140.302 35.4156 140.301L140.069 140.305Z" fill="#F0F0F0"/>
<path d="M141.87 138.522C153.199 136.346 161.76 126.023 161.76 114.172C161.757 110.38 160.857 106.642 159.133 103.256C157.408 99.8708 154.906 96.9318 151.827 94.6749C153.233 91.874 153.788 88.7297 153.425 85.623C153.061 82.5162 151.795 79.5806 149.779 77.1719C147.763 74.7633 145.084 72.985 142.067 72.0526C139.051 71.1203 135.825 71.074 132.782 71.9192C133.77 67.7657 133.328 63.4045 131.526 59.5281C129.723 55.6516 126.664 52.4819 122.834 50.5221C119.003 48.5623 114.621 47.9247 110.383 48.7105C106.144 49.4963 102.293 51.6604 99.439 54.8594C96.3511 50.1275 91.8114 46.4999 86.4866 44.5092C81.1617 42.5184 75.3321 42.2693 69.8537 43.7985C64.3752 45.3278 59.5365 48.5547 56.0479 53.0056C52.5593 57.4565 50.6046 62.8969 50.4707 68.5281C49.8004 68.4494 49.1262 68.4076 48.4512 68.4028C45.7696 68.4028 43.1257 69.0272 40.7332 70.2255C38.3407 71.4239 36.2668 73.1626 34.6792 75.3011C33.0915 77.4395 32.0347 79.9177 31.5942 82.5352C31.1538 85.1527 31.342 87.836 32.1436 90.3682C26.1887 91.6086 20.9094 94.9887 17.3255 99.8554C13.7415 104.722 12.1071 110.73 12.7378 116.72C13.3685 122.709 16.2197 128.255 20.7406 132.286C25.2616 136.317 31.1316 138.547 37.2171 138.546L141.87 138.522Z" fill="#EEEEEE"/>
<path d="M143.672 136.739C155.001 134.563 163.561 124.241 163.561 112.389C163.558 108.598 162.659 104.86 160.934 101.474C159.209 98.0883 156.707 95.1493 153.629 92.8923C155.035 90.0915 155.59 86.9471 155.226 83.8404C154.862 80.7337 153.596 77.7981 151.58 75.3894C149.564 72.9807 146.885 71.2024 143.869 70.2701C140.852 69.3377 137.627 69.2914 134.584 70.1367C135.572 65.9831 135.129 61.622 133.327 57.7455C131.525 53.8691 128.466 50.6994 124.635 48.7396C120.805 46.7798 116.423 46.1422 112.184 46.928C107.946 47.7137 104.094 49.8779 101.24 53.0769C98.1541 48.3471 93.6176 44.7204 88.296 42.7287C82.9745 40.737 77.148 40.4851 71.6712 42.01C66.1943 43.5348 61.3554 46.7562 57.8642 51.2016C54.3729 55.647 52.413 61.0825 52.272 66.7108C51.6017 66.6321 50.9274 66.5902 50.2524 66.5854C47.5717 66.5876 44.929 67.2135 42.5377 68.4125C40.1464 69.6115 38.0734 71.3501 36.4863 73.488C34.8991 75.6258 33.8421 78.103 33.4007 80.7195C32.9592 83.3361 33.1456 86.0187 33.9449 88.5508C27.99 89.7913 22.7107 93.1713 19.1268 98.038C15.5428 102.905 13.9083 108.913 14.5391 114.903C15.1698 120.892 18.021 126.438 22.5419 130.469C27.0628 134.5 32.9329 136.73 39.0183 136.729L143.672 136.739Z" fill="#EBEBEB"/>
<path d="M145.473 134.95C156.802 132.774 165.362 122.451 165.362 110.6C165.36 106.808 164.46 103.07 162.735 99.6843C161.011 96.2987 158.509 93.3597 155.43 91.1027C156.836 88.3019 157.391 85.1575 157.028 82.0508C156.664 78.9441 155.398 76.0085 153.382 73.5998C151.366 71.1911 148.687 69.4128 145.67 68.4805C142.653 67.5481 139.428 67.5018 136.385 68.3471C137.373 64.1935 136.931 59.8324 135.129 55.956C133.326 52.0795 130.267 48.9098 126.437 46.95C122.606 44.9902 118.224 44.3526 113.986 45.1384C109.747 45.9242 105.896 48.0883 103.042 51.2873C99.9539 46.5554 95.4143 42.9278 90.0894 40.937C84.7645 38.9462 78.935 38.6972 73.4565 40.2264C67.9781 41.7556 63.1393 44.9826 59.6507 49.4335C56.1621 53.8844 54.2074 59.3248 54.0736 64.956C53.4032 64.8773 52.729 64.8355 52.054 64.8307C49.3733 64.8328 46.7306 65.4587 44.3393 66.6577C41.948 67.8568 39.875 69.5954 38.2878 71.7332C36.7007 73.871 35.6437 76.3482 35.2023 78.9648C34.7608 81.5813 34.9472 84.2639 35.7465 86.796C29.8162 88.0606 24.567 91.4483 21.0066 96.3087C17.4463 101.169 15.8257 107.16 16.456 113.13C17.0864 119.101 19.9232 124.63 24.4219 128.657C28.9207 132.685 34.7642 134.926 40.8305 134.95H145.473Z" fill="#E9E9E9"/>
<path d="M147.274 133.174C158.603 130.998 167.164 120.675 167.164 108.824C167.161 105.033 166.261 101.294 164.537 97.9087C162.812 94.523 160.31 91.5841 157.231 89.3271C158.637 86.5263 159.192 83.3819 158.829 80.2752C158.465 77.1685 157.199 74.2328 155.183 71.8242C153.167 69.4155 150.488 67.6372 147.471 66.7048C144.455 65.7725 141.229 65.7262 138.186 66.5714C139.174 62.4179 138.732 58.0568 136.93 54.1803C135.127 50.3038 132.068 47.1342 128.238 45.1744C124.407 43.2146 120.025 42.577 115.787 43.3628C111.549 44.1485 107.697 46.3127 104.843 49.5117C101.755 44.7795 97.215 41.1518 91.8898 39.1612C86.5646 37.1705 80.7347 36.9217 75.2561 38.4514C69.7775 39.981 64.9388 43.2085 61.4504 47.66C57.9621 52.1114 56.0079 57.5524 55.8748 63.1839C55.2045 63.105 54.5302 63.0632 53.8552 63.0585C51.1745 63.0607 48.5318 63.6865 46.1405 64.8856C43.7492 66.0846 41.6762 67.8232 40.0891 69.9611C38.5019 72.0989 37.4449 74.5761 37.0035 77.1926C36.562 79.8092 36.7484 82.4917 37.5477 85.0239C31.5927 86.2643 26.3135 89.6443 22.7295 94.5111C19.1456 99.3779 17.5111 105.386 18.1419 111.376C18.7726 117.365 21.6237 122.911 26.1447 126.942C30.6656 130.973 36.5357 133.203 42.6211 133.202L147.274 133.174Z" fill="#E6E6E6"/>
<path d="M149.076 131.392C160.405 129.216 168.969 118.893 168.969 107.041C168.965 103.25 168.064 99.5118 166.339 96.1263C164.613 92.7408 162.111 89.8019 159.033 87.5445C160.269 85.0765 160.848 82.3368 160.714 79.5854C160.581 76.8339 159.739 74.1618 158.269 71.8225C156.799 69.4832 154.75 67.5543 152.315 66.2185C149.881 64.8828 147.142 64.1845 144.358 64.19C142.881 64.1945 141.411 64.3959 139.988 64.7889C140.976 60.6353 140.534 56.2742 138.731 52.3977C136.929 48.5213 133.87 45.3516 130.039 43.3918C126.209 41.432 121.827 40.7944 117.588 41.5802C113.35 42.3659 109.498 44.5301 106.645 47.7291C103.557 42.997 99.0165 39.3693 93.6913 37.3786C88.3661 35.3879 82.5362 35.1391 77.0576 36.6688C71.579 38.1984 66.7403 41.4259 63.2519 45.8774C59.7636 50.3289 57.8094 55.7698 57.6763 61.4013C57.0071 61.3226 56.3341 61.2807 55.6603 61.2759C52.9792 61.2776 50.3361 61.903 47.9443 63.1018C45.5526 64.3006 43.4792 66.0392 41.8916 68.1771C40.3041 70.315 39.2467 72.7924 38.8051 75.4092C38.3634 78.026 38.5499 80.7089 39.3492 83.2413C33.3943 84.4818 28.115 87.8618 24.5311 92.7285C20.9471 97.5953 19.3126 103.604 19.9434 109.593C20.5741 115.583 23.4252 121.128 27.9462 125.159C32.4671 129.19 38.3372 131.421 44.4226 131.42L149.076 131.392Z" fill="#E4E4E4"/>
<path d="M150.877 129.609C162.206 127.43 170.77 117.11 170.77 105.259C170.77 101.464 169.871 97.7224 168.145 94.3336C166.42 90.9447 163.916 88.0031 160.834 85.7446C162.071 83.2765 162.649 80.5369 162.516 77.7854C162.382 75.034 161.54 72.3619 160.07 70.0226C158.601 67.6833 156.551 65.7543 154.117 64.4186C151.682 63.0828 148.943 62.3846 146.159 62.3901C144.682 62.3948 143.212 62.5962 141.789 62.9889C142.777 58.8354 142.335 54.4743 140.533 50.5978C138.731 46.7213 135.671 43.5517 131.841 41.5919C128.01 39.6321 123.628 38.9944 119.39 39.7802C115.152 40.566 111.3 42.7301 108.446 45.9291C105.359 41.1977 100.819 37.5702 95.4953 35.5793C90.1711 33.5883 84.3421 33.3387 78.864 34.867C73.3858 36.3954 68.5471 39.6212 65.058 44.071C61.5688 48.5208 59.6131 53.9603 59.4778 59.5909C58.8086 59.5122 58.1356 59.4704 57.4617 59.4656C54.7807 59.4672 52.1376 60.0926 49.7458 61.2914C47.3541 62.4902 45.2807 64.2288 43.6931 66.3667C42.1055 68.5046 41.0482 70.982 40.6066 73.5988C40.1649 76.2156 40.3513 78.8985 41.1507 81.4309C35.1954 82.6715 29.916 86.0517 26.332 90.9189C22.7481 95.786 21.1139 101.795 21.7451 107.784C22.3763 113.774 25.228 119.32 29.7497 123.351C34.2713 127.381 40.1419 129.611 46.2276 129.609H150.877Z" fill="#E2E2E2"/>
<path d="M152.679 127.827C164.008 125.647 172.571 115.328 172.571 103.476C172.568 99.685 171.668 95.9471 169.943 92.5616C168.219 89.1761 165.717 86.237 162.639 83.9795C163.873 81.5112 164.451 78.772 164.316 76.0213C164.181 73.2706 163.339 70.5994 161.87 68.2608C160.4 65.9221 158.352 63.9933 155.918 62.6571C153.485 61.3208 150.747 60.6214 147.964 60.625C146.486 60.6294 145.015 60.8309 143.591 61.2238C144.579 57.0702 144.137 52.7091 142.334 48.8327C140.532 44.9562 137.473 41.7865 133.642 39.8267C129.812 37.8669 125.43 37.2293 121.191 38.0151C116.953 38.8009 113.101 40.965 110.247 44.164C107.159 39.4319 102.619 35.8042 97.2941 33.8135C91.9689 31.8228 86.1391 31.574 80.6604 33.1037C75.1818 34.6334 70.3431 37.8609 66.8548 42.3123C63.3665 46.7638 61.4122 52.2047 61.2791 57.8362C60.61 57.7575 59.9369 57.7157 59.2631 57.7109C56.5844 57.7122 53.9434 58.3363 51.5531 59.5329C49.1628 60.7294 47.0901 62.4649 45.5019 64.5995C43.9138 66.7341 42.8546 69.2081 42.4099 71.8221C41.9651 74.436 42.1472 77.1168 42.9415 79.6484C36.9862 80.8889 31.7068 84.2692 28.1228 89.1363C24.5388 94.0035 22.9047 100.012 23.5358 106.002C24.167 111.992 27.0188 117.537 31.5404 121.568C36.062 125.599 41.9327 127.829 48.0185 127.827H152.679Z" fill="#DFDFDF"/>
<path d="M154.473 126.044C165.802 123.864 174.366 113.545 174.366 101.694C174.365 97.8994 173.467 94.158 171.742 90.7693C170.017 87.3805 167.514 84.4387 164.434 82.1794C165.668 79.7111 166.245 76.972 166.11 74.2213C165.976 71.4706 165.134 68.7994 163.664 66.4607C162.195 64.122 160.146 62.1932 157.713 60.857C155.279 59.5208 152.542 58.8213 149.759 58.8249C148.28 58.8294 146.809 59.0308 145.385 59.4237C146.373 55.2702 145.931 50.9091 144.129 47.0326C142.326 43.1562 139.267 39.9865 135.437 38.0267C131.606 36.0669 127.224 35.4293 122.986 36.215C118.747 37.0008 114.896 39.165 112.042 42.364C108.954 37.6319 104.414 34.0041 99.0886 32.0135C93.7634 30.0228 87.9335 29.774 82.4549 31.3036C76.9762 32.8333 72.1376 36.0608 68.6492 40.5123C65.1609 44.9637 63.2066 50.4047 63.0735 56.0362C62.4044 55.9575 61.7313 55.9156 61.0575 55.9108C58.3798 55.9147 55.7405 56.5408 53.3522 57.7387C50.9638 58.9366 48.8931 60.6728 47.3069 62.8075C45.7206 64.9422 44.6631 67.4157 44.2196 70.0288C43.7761 72.6418 43.959 75.3214 44.7535 77.8518C38.7982 79.0923 33.5188 82.4726 29.9348 87.3397C26.3508 92.2069 24.7167 98.2156 25.3479 104.205C25.979 110.195 28.8308 115.741 33.3524 119.772C37.874 123.802 43.7447 126.032 49.8304 126.03L154.473 126.044Z" fill="#DDDDDD"/>
<path d="M156.281 124.261C167.611 122.082 176.174 111.762 176.174 99.9111C176.171 96.1198 175.271 92.3819 173.546 88.9964C171.821 85.6109 169.32 82.6718 166.242 80.4142C167.476 77.946 168.053 75.2068 167.919 72.4561C167.784 69.7054 166.942 67.0342 165.473 64.6955C164.003 62.3568 161.955 60.4281 159.521 59.0918C157.088 57.7556 154.35 57.0562 151.567 57.0598C150.089 57.0642 148.618 57.2656 147.194 57.6586C148.18 53.5058 147.737 49.1459 145.935 45.2707C144.132 41.3954 141.074 38.2267 137.244 36.2672C133.415 34.3078 129.034 33.6698 124.797 34.4545C120.559 35.2392 116.708 37.4017 113.854 40.5988C110.765 35.8675 106.224 32.2406 100.899 30.2504C95.5741 28.2603 89.7445 28.0117 84.266 29.5412C78.7876 31.0707 73.9489 34.2977 70.4601 38.7486C66.9714 43.1994 65.0163 48.6397 64.8818 54.271C64.2127 54.1923 63.5396 54.1504 62.8658 54.1456C60.1847 54.1473 57.5416 54.7727 55.1499 55.9715C52.7581 57.1703 50.6847 58.9089 49.0972 61.0468C47.5096 63.1847 46.4523 65.6621 46.0107 68.2789C45.569 70.8957 45.7554 73.5786 46.5547 76.111C40.5995 77.3515 35.32 80.7318 31.7361 85.5989C28.1521 90.4661 26.5179 96.4748 27.1491 102.464C27.7803 108.454 30.6321 114 35.1537 118.031C39.6753 122.061 45.5459 124.291 51.6317 124.289L156.281 124.261Z" fill="#DADADA"/>
<path d="M158.083 122.479C169.415 120.299 177.976 109.98 177.976 98.1286C177.972 94.3372 177.072 90.5993 175.348 87.2138C173.623 83.8283 171.121 80.8892 168.043 78.6317C169.278 76.1634 169.855 73.4242 169.72 70.6735C169.586 67.9228 168.744 65.2516 167.274 62.913C165.805 60.5743 163.756 58.6455 161.323 57.3093C158.889 55.973 156.151 55.2736 153.368 55.2772C151.89 55.2816 150.419 55.4831 148.995 55.876C149.982 51.7232 149.538 47.3634 147.736 43.4881C145.934 39.6128 142.875 36.4441 139.046 34.4847C135.216 32.5252 130.836 31.8872 126.598 32.6719C122.361 33.4566 118.509 35.6191 115.655 38.8162C112.566 34.0849 108.026 30.458 102.701 28.4678C97.3755 26.4777 91.5459 26.2291 86.0675 27.7586C80.589 29.2881 75.7503 32.5151 72.2615 36.966C68.7728 41.4169 66.8177 46.8572 66.6832 52.4884C66.0141 52.4097 65.341 52.3679 64.6672 52.3631C61.9863 52.3641 59.3432 52.9891 56.9514 54.1875C54.5596 55.3858 52.4862 57.1241 50.8985 59.2618C49.3108 61.3994 48.2535 63.8766 47.8119 66.4933C47.3702 69.11 47.5567 71.7927 48.3562 74.3249C42.4038 75.5691 37.128 78.9507 33.5468 83.8174C29.9657 88.6841 28.3331 94.6909 28.9641 100.679C29.595 106.666 32.4447 112.211 36.9634 116.242C41.4821 120.272 47.3494 122.504 53.4331 122.507L158.083 122.479Z" fill="#D8D8D8"/>
<path d="M159.888 120.696C171.217 118.517 179.777 108.197 179.777 96.3251C179.774 92.5338 178.874 88.7958 177.149 85.4103C175.424 82.0248 172.923 79.0857 169.845 76.8282C171.077 74.3608 171.653 71.623 171.518 68.8738C171.383 66.1247 170.541 63.4551 169.073 61.1176C167.604 58.7801 165.557 56.852 163.126 55.5156C160.694 54.1793 157.958 53.4789 155.177 53.4807C153.698 53.4852 152.227 53.6866 150.803 54.0795C151.79 49.9267 151.347 45.5669 149.545 41.6916C147.742 37.8164 144.684 34.6477 140.854 32.6882C137.025 30.7287 132.644 30.0907 128.407 30.8754C124.169 31.6602 120.318 33.8226 117.464 37.0197C114.376 32.2851 109.835 28.6552 104.508 26.6631C99.1811 24.671 93.3491 24.4218 87.8686 25.9521C82.388 27.4823 77.5478 30.7114 74.0589 35.1649C70.57 39.6185 68.6163 45.0619 68.4847 50.6954C67.8156 50.6167 67.1426 50.5749 66.4687 50.5701C63.7878 50.5711 61.1447 51.1961 58.7529 52.3945C56.3611 53.5929 54.2877 55.3311 52.7 57.4688C51.1124 59.6064 50.055 62.0836 49.6134 64.7003C49.1717 67.317 49.3582 69.9997 50.1577 72.5319C44.2053 73.776 38.9295 77.1577 35.3484 82.0244C31.7672 86.8911 30.1346 92.8979 30.7656 98.8856C31.3965 104.873 34.2463 110.418 38.7649 114.449C43.2836 118.48 49.1509 120.711 55.2346 120.714L159.888 120.696Z" fill="#D5D5D5"/>
<path d="M161.689 118.91C173.018 116.734 181.578 106.415 181.578 94.56C181.575 90.7686 180.675 87.0307 178.95 83.6452C177.226 80.2597 174.724 77.3206 171.646 75.0631C172.88 72.5948 173.458 69.8556 173.323 67.1049C173.188 64.3542 172.346 61.683 170.877 59.3444C169.407 57.0057 167.359 55.0769 164.925 53.7407C162.492 52.4044 159.754 51.705 156.971 51.7086C155.493 51.713 154.022 51.9145 152.598 52.3074C153.584 48.1546 153.141 43.7948 151.339 39.9195C149.537 36.0442 146.478 32.8755 142.649 30.9161C138.819 28.9566 134.438 28.3186 130.201 29.1033C125.963 29.888 122.112 32.0505 119.258 35.2476C116.169 30.5163 111.629 26.8894 106.304 24.8992C100.978 22.9091 95.1488 22.6605 89.6703 24.19C84.1919 25.7195 79.3532 28.9465 75.8644 33.3974C72.3757 37.8482 70.4206 43.2886 70.2861 48.9198C69.617 48.84 68.944 48.7969 68.2701 48.791C65.589 48.7926 62.9459 49.4181 60.5542 50.6169C58.1624 51.8157 56.089 53.5542 54.5015 55.6921C52.9139 57.83 51.8566 60.3074 51.415 62.9242C50.9733 65.541 51.1597 68.2239 51.959 70.7563C46.0038 71.9969 40.7243 75.3771 37.1404 80.2443C33.5564 85.1114 31.9222 91.1201 32.5534 97.1098C33.1846 103.1 36.0364 108.645 40.558 112.676C45.0796 116.707 50.9503 118.937 57.036 118.935L161.689 118.91Z" fill="#D3D3D3"/>
<path d="M163.491 117.128C174.82 114.952 183.38 104.629 183.38 92.7774C183.376 88.986 182.476 85.2481 180.752 81.8626C179.027 78.4771 176.526 75.538 173.447 73.2805C174.682 70.8122 175.259 68.073 175.124 65.3223C174.99 62.5716 174.148 59.9005 172.678 57.5618C171.209 55.2231 169.16 53.2943 166.727 51.9581C164.293 50.6218 161.555 49.9224 158.772 49.926C157.295 49.9302 155.825 50.1316 154.403 50.5248C155.391 46.3712 154.948 42.0101 153.146 38.1337C151.344 34.2572 148.284 31.0875 144.454 29.1277C140.624 27.1679 136.241 26.5303 132.003 27.3161C127.765 28.1019 123.913 30.266 121.059 33.465C117.97 28.7339 113.431 25.1071 108.106 23.1168C102.781 21.1266 96.9515 20.8777 91.4732 22.4068C85.995 23.9359 81.1562 27.1623 77.6672 31.6126C74.1782 36.063 72.2225 41.5028 72.0874 47.1337C71.4181 47.0568 70.7451 47.0149 70.0714 47.0084C67.3903 47.01 64.7472 47.6355 62.3554 48.8343C59.9637 50.0331 57.8903 51.7716 56.3027 53.9095C54.7152 56.0475 53.6579 58.5248 53.2162 61.1416C52.7746 63.7584 52.961 66.4414 53.7603 68.9737C47.8051 70.2143 42.5256 73.5946 38.9416 78.4617C35.3577 83.3288 33.7235 89.3375 34.3547 95.3272C34.9859 101.317 37.8377 106.863 42.3593 110.893C46.8809 114.924 52.7515 117.154 58.8373 117.152L163.491 117.128Z" fill="#D0D0D0"/>
<path d="M165.292 115.345C176.621 113.169 185.181 102.846 185.181 90.9948C185.178 87.2035 184.278 83.4655 182.553 80.08C180.828 76.6945 178.327 73.7554 175.249 71.4979C176.483 69.0297 177.06 66.2905 176.926 63.5398C176.791 60.7891 175.949 58.1179 174.48 55.7792C173.01 53.4405 170.962 51.5117 168.528 50.1755C166.095 48.8393 163.357 48.1398 160.574 48.1434C159.097 48.1479 157.627 48.3493 156.204 48.7423C157.192 44.5887 156.75 40.2276 154.947 36.3511C153.145 32.4746 150.086 29.305 146.255 27.3452C142.425 25.3854 138.043 24.7478 133.804 25.5335C129.566 26.3193 125.714 28.4835 122.861 31.6825C119.771 26.959 115.234 23.3386 109.914 21.3518C104.594 19.3649 98.7708 19.1159 93.2976 20.6413C87.8244 22.1667 82.9885 25.3862 79.4984 29.8284C76.0083 34.2705 74.0474 39.7019 73.9028 45.3268C73.2335 45.2498 72.5606 45.208 71.8868 45.2015C69.2057 45.2031 66.5626 45.8285 64.1709 47.0273C61.7791 48.2261 59.7057 49.9647 58.1182 52.1026C56.5306 54.2405 55.4733 56.7179 55.0316 59.3347C54.59 61.9515 54.7764 64.6344 55.5757 67.1668C49.6205 68.4074 44.341 71.7876 40.7571 76.6548C37.1731 81.5219 35.5389 87.5306 36.1701 93.5203C36.8013 99.51 39.6531 105.056 44.1747 109.087C48.6963 113.117 54.5669 115.347 60.6527 115.345H165.292Z" fill="#CECECE"/>
<path d="M167.093 113.563C178.423 111.387 186.983 101.064 186.983 89.2123C186.98 85.4208 186.08 81.6826 184.356 78.297C182.631 74.9113 180.129 71.9724 177.05 69.7154C178.285 67.2472 178.862 64.508 178.727 61.7573C178.593 59.0066 177.751 56.3354 176.281 53.9967C174.812 51.658 172.763 49.7292 170.33 48.393C167.896 47.0568 165.158 46.3573 162.375 46.3609C160.898 46.3654 159.428 46.5668 158.006 46.9597C158.994 42.8062 158.551 38.445 156.749 34.5686C154.947 30.6921 151.887 27.5224 148.057 25.5627C144.227 23.6029 139.844 22.9653 135.606 23.751C131.368 24.5368 127.516 26.701 124.662 29.9C121.573 25.1688 117.033 21.542 111.709 19.5518C106.384 17.5615 100.554 17.3127 95.0762 18.8417C89.5979 20.3708 84.7592 23.5973 81.2701 28.0476C77.7811 32.4979 75.8255 37.9377 75.6903 43.5687C75.021 43.4917 74.348 43.4499 73.6743 43.4433C70.9956 43.4445 68.3546 44.0687 65.9646 45.2657C63.5746 46.4628 61.5025 48.199 59.9154 50.3344C58.3283 52.4697 57.2707 54.9444 56.828 57.5587C56.3853 60.173 56.5698 62.8536 57.3668 65.3843C51.4118 66.6248 46.1325 70.0048 42.5486 74.8716C38.9646 79.7383 37.3302 85.7466 37.961 91.7361C38.5917 97.7255 41.4428 103.271 45.9638 107.302C50.4847 111.333 56.3547 113.564 62.4402 113.563H167.093Z" fill="#CCCCCC"/>
<path d="M168.898 111.78C180.227 109.604 188.787 99.281 188.787 87.4297C188.785 83.6382 187.885 79.9 186.16 76.5144C184.436 73.1287 181.934 70.1898 178.855 67.9328C180.089 65.4646 180.667 62.7254 180.532 59.9747C180.397 57.224 179.555 54.5528 178.086 52.2141C176.616 49.8754 174.568 47.9466 172.134 46.6104C169.701 45.2742 166.963 44.5747 164.18 44.5783C162.703 44.5828 161.233 44.7842 159.81 45.1772C160.798 41.0236 160.356 36.6625 158.554 32.786C156.751 28.9095 153.692 25.7399 149.862 23.7801C146.031 21.8203 141.649 21.1827 137.411 21.9684C133.172 22.7542 129.321 24.9184 126.467 28.1174C123.378 23.3862 118.838 19.7594 113.513 17.7692C108.188 15.7789 102.359 15.5301 96.8808 17.0592C91.4026 18.5882 86.5638 21.8146 83.0748 26.265C79.5858 30.7153 77.6301 36.1551 77.495 41.7861C76.8257 41.7091 76.1527 41.6673 75.479 41.6607C72.7974 41.6607 70.1535 42.2851 67.761 43.4835C65.3685 44.6818 63.2946 46.4206 61.707 48.559C60.1194 50.6975 59.0626 53.1756 58.6221 55.7931C58.1816 58.4106 58.3698 61.0939 59.1714 63.6261C53.2165 64.8666 47.9372 68.2466 44.3533 73.1133C40.7693 77.9801 39.1349 83.9884 39.7656 89.9779C40.3964 95.9673 43.2475 101.513 47.7685 105.544C52.2894 109.575 58.1594 111.805 64.2449 111.804L168.898 111.78Z" fill="#C9C9C9"/>
<path d="M170.696 109.997C182.025 107.821 190.585 97.4985 190.585 85.6471C190.583 81.8556 189.683 78.1174 187.958 74.7318C186.234 71.3461 183.732 68.4072 180.653 66.1502C181.889 63.6819 182.468 60.9421 182.334 58.1906C182.2 55.439 181.359 52.7668 179.889 50.4273C178.419 48.0878 176.37 46.1585 173.935 44.8224C171.501 43.4862 168.762 42.7874 165.978 42.7922C164.501 42.7979 163.031 43.0005 161.608 43.3946C162.596 39.241 162.154 34.8799 160.352 31.0034C158.549 27.1269 155.49 23.9573 151.66 21.9975C147.829 20.0377 143.447 19.4001 139.209 20.1858C134.97 20.9716 131.119 23.1358 128.265 26.3348C125.176 21.6037 120.636 17.9768 115.311 15.9866C109.987 13.9963 104.157 13.7475 98.6789 15.2766C93.2007 16.8056 88.3619 20.0321 84.8729 24.4824C81.3839 28.9327 79.4282 34.3725 79.2931 40.0035C78.6238 39.9265 77.9508 39.8847 77.2771 39.8781C74.5963 39.8784 71.9533 40.5028 69.5615 41.7008C67.1697 42.8988 65.0963 44.6368 63.5088 46.7744C61.9213 48.9119 60.8643 51.3891 60.4232 54.0056C59.9821 56.6222 60.1692 59.3048 60.9695 61.8365C55.0146 63.077 49.7354 66.457 46.1514 71.3238C42.5675 76.1905 40.933 82.1988 41.5637 88.1883C42.1945 94.1778 45.0456 99.7235 49.5666 103.755C54.0875 107.786 59.9575 110.016 66.043 110.015L170.696 109.997Z" fill="#C7C7C7"/>
<path d="M172.497 108.215C183.827 106.039 192.387 95.7159 192.387 83.8645C192.384 80.073 191.485 76.3348 189.76 72.9492C188.035 69.5635 185.533 66.6246 182.454 64.3676C183.861 61.5668 184.416 58.4224 184.052 55.3157C183.688 52.209 182.422 49.2734 180.406 46.8647C178.39 44.456 175.711 42.6777 172.695 41.7453C169.678 40.813 166.452 40.7667 163.41 41.6119C164.398 37.4584 163.955 33.0973 162.153 29.2208C160.351 25.3443 157.291 22.1747 153.461 20.2149C149.631 18.2551 145.248 17.6175 141.01 18.4033C136.772 19.189 132.92 21.3532 130.066 24.5522C126.977 19.821 122.437 16.1942 117.113 14.204C111.788 12.2138 105.958 11.9649 100.48 13.494C95.0019 15.023 90.1632 18.2495 86.6742 22.6998C83.1851 27.1501 81.2295 32.5899 81.0943 38.2209C80.425 38.1439 79.7521 38.1021 79.0783 38.0955C76.3968 38.0955 73.7529 38.7199 71.3604 39.9183C68.9679 41.1166 66.894 42.8554 65.3064 44.9938C63.7187 47.1323 62.6619 49.6104 62.2214 52.2279C61.781 54.8454 61.9692 57.5287 62.7708 60.0609C56.8158 61.3014 51.5366 64.6814 47.9527 69.5481C44.3687 74.4149 42.7343 80.4232 43.365 86.4127C43.9957 92.4021 46.8469 97.9478 51.3678 101.979C55.8888 106.01 61.7588 108.24 67.8443 108.239L172.497 108.215Z" fill="#C4C4C4"/>
<path d="M174.299 106.432C185.628 104.256 194.188 93.9333 194.188 82.0819C194.186 78.2905 193.286 74.5522 191.561 71.1666C189.837 67.781 187.335 64.842 184.256 62.5851C185.662 59.7842 186.217 56.6398 185.854 53.5331C185.49 50.4264 184.223 47.4908 182.208 45.0821C180.192 42.6734 177.513 40.8951 174.496 39.9628C171.479 39.0304 168.254 38.9841 165.211 39.8294C166.199 35.6758 165.757 31.3147 163.954 27.4382C162.152 23.5618 159.093 20.3921 155.263 18.4323C151.432 16.4725 147.05 15.8349 142.812 16.6207C138.573 17.4065 134.721 19.5706 131.868 22.7696C128.78 18.0395 124.241 14.4132 118.918 12.4225C113.595 10.4318 107.767 10.1815 102.29 11.7084C96.8124 13.2353 91.9736 16.4589 88.4832 20.9065C84.9928 25.3541 83.0347 30.7914 82.8959 36.4209C82.2266 36.3438 81.5536 36.302 80.8798 36.2956C78.1983 36.2955 75.5544 36.9199 73.1619 38.1183C70.7694 39.3167 68.6955 41.0554 67.1079 43.1939C65.5202 45.3323 64.4634 47.8105 64.023 50.4279C63.5825 53.0454 63.7707 55.7287 64.5723 58.2609C58.6174 59.5014 53.3382 62.8814 49.7542 67.7482C46.1702 72.6149 44.5358 78.6232 45.1665 84.6127C45.7972 90.6021 48.6484 96.1479 53.1693 100.179C57.6903 104.21 63.5603 106.44 69.6458 106.439L174.299 106.432Z" fill="#C2C2C2"/>
<path d="M176.1 104.66C187.429 102.484 195.989 92.1612 195.989 80.3098C195.987 76.5184 195.087 72.7801 193.363 69.3945C191.638 66.0089 189.136 63.0699 186.057 60.8129C187.463 58.0121 188.018 54.8677 187.655 51.761C187.291 48.6543 186.025 45.7187 184.009 43.31C181.993 40.9013 179.314 39.123 176.297 38.1907C173.281 37.2583 170.055 37.212 167.012 38.0573C168 33.9037 167.558 29.5426 165.756 25.6662C163.953 21.7897 160.894 18.62 157.064 16.6602C153.233 14.7004 148.851 14.0628 144.613 14.8486C140.374 15.6344 136.523 17.7985 133.669 20.9975C130.581 16.2656 126.041 12.638 120.716 10.6472C115.392 8.65644 109.562 8.40737 104.084 9.9366C98.6051 11.4658 93.7664 14.6928 90.2778 19.1437C86.7892 23.5946 84.8345 29.035 84.7006 34.6662C84.0303 34.5875 83.3561 34.5457 82.6811 34.5409C80.0003 34.543 77.3576 35.1689 74.9663 36.3679C72.575 37.567 70.5021 39.3056 68.9149 41.4434C67.3278 43.5812 66.2708 46.0584 65.8293 48.675C65.3878 51.2915 65.5743 53.9741 66.3735 56.5062C60.4447 57.7704 55.1965 61.1567 51.636 66.0153C48.0756 70.8738 46.4538 76.8624 47.0818 82.8317C47.7099 88.801 50.5435 94.3305 55.039 98.3591C59.5345 102.388 65.3751 104.632 71.44 104.66H176.1Z" fill="#BFBFBF"/>
<path d="M177.902 102.867C189.231 100.691 197.791 90.3681 197.791 78.5168C197.789 74.7253 196.889 70.987 195.164 67.6014C193.439 64.2158 190.937 61.2768 187.859 59.0199C189.265 56.219 189.82 53.0746 189.456 49.9679C189.093 46.8612 187.826 43.9256 185.81 41.5169C183.794 39.1082 181.116 37.3299 178.099 36.3976C175.082 35.4653 171.857 35.4189 168.814 36.2642C169.802 32.1106 169.36 27.7495 167.557 23.8731C165.755 19.9966 162.696 16.8269 158.865 14.8671C155.035 12.9073 150.653 12.2697 146.414 13.0555C142.176 13.8413 138.324 16.0054 135.471 19.2044C132.383 14.4725 127.843 10.8449 122.518 8.85412C117.193 6.86335 111.364 6.61428 105.885 8.1435C100.407 9.67272 95.568 12.8997 92.0794 17.3506C88.5908 21.8015 86.6361 27.2419 86.5022 32.8731C85.8319 32.7944 85.1576 32.7526 84.4826 32.7478C81.8019 32.75 79.1592 33.3758 76.7679 34.5749C74.3766 35.7739 72.3037 37.5125 70.7165 39.6503C69.1293 41.7882 68.0724 44.2654 67.6309 46.8819C67.1894 49.4984 67.3758 52.181 68.1751 54.7131C62.2201 55.9536 56.9409 59.3336 53.357 64.2004C49.773 69.0672 48.1386 75.0754 48.7693 81.0649C49.4 87.0544 52.2512 92.6001 56.7721 96.6311C61.2931 100.662 67.1631 102.892 73.2486 102.891L177.902 102.867Z" fill="#BDBDBD"/>
<path d="M179.703 101.084C191.032 98.9084 199.592 88.5855 199.592 76.7342C199.59 72.9427 198.69 69.2045 196.965 65.8188C195.241 62.4332 192.739 59.4942 189.66 57.2373C191.066 54.4364 191.621 51.2921 191.258 48.1854C190.894 45.0787 189.627 42.143 187.612 39.7343C185.596 37.3256 182.917 35.5474 179.9 34.615C176.883 33.6827 173.658 33.6363 170.615 34.4816C171.603 30.3281 171.161 25.9669 169.359 22.0905C167.556 18.214 164.497 15.0443 160.667 13.0846C156.836 11.1248 152.454 10.4871 148.216 11.2729C143.977 12.0587 140.126 14.2228 137.272 17.4218C134.182 12.692 129.642 9.06661 124.318 7.07748C118.993 5.08834 113.165 4.84024 107.687 6.36958C102.21 7.89891 97.3717 11.1252 93.8831 15.5749C90.3945 20.0247 88.439 25.4638 88.3035 31.094C87.6332 31.0153 86.9589 30.9735 86.2839 30.9687C83.6031 30.9709 80.9605 31.5967 78.5692 32.7958C76.1779 33.9948 74.1049 35.7334 72.5178 37.8712C70.9306 40.0091 69.8736 42.4862 69.4322 45.1028C68.9907 47.7193 69.1771 50.4019 69.9764 52.934C64.0214 54.1745 58.7422 57.5545 55.1583 62.4213C51.5743 67.2881 49.9398 73.2963 50.5706 79.2858C51.2013 85.2753 54.0524 90.821 58.5734 94.852C63.0943 98.883 68.9644 101.113 75.0498 101.112L179.703 101.084Z" fill="#BABABA"/>
<path d="M181.504 99.3019C192.834 97.1259 201.394 86.803 201.394 74.9517C201.391 71.1602 200.491 67.422 198.767 64.0364C197.042 60.6507 194.54 57.7118 191.461 55.4548C192.872 52.6535 193.43 49.5073 193.068 46.3981C192.707 43.2889 191.441 40.3504 189.424 37.9394C187.408 35.5284 184.727 33.7485 181.708 32.8158C178.689 31.8831 175.461 31.8378 172.417 32.6852C173.405 28.5317 172.962 24.1705 171.16 20.2941C169.358 16.4176 166.298 13.2479 162.468 11.2881C158.638 9.32834 154.255 8.69073 150.017 9.47651C145.779 10.2623 141.927 12.4264 139.073 15.6254C135.985 10.8933 131.445 7.26562 126.12 5.27493C120.795 3.28425 114.965 3.03547 109.486 4.56512C104.008 6.09478 99.1688 9.32227 95.6805 13.7737C92.1921 18.2252 90.238 23.6661 90.1048 29.2976C89.4345 29.2188 88.7603 29.177 88.0853 29.1723C85.4073 29.1773 82.768 29.8047 80.3799 31.0039C77.9918 32.203 75.9217 33.9405 74.3365 36.0763C72.7512 38.2121 71.695 40.6864 71.253 43.3001C70.811 45.9137 70.9956 48.5936 71.7918 51.1237C65.8368 52.3642 60.5576 55.7442 56.9736 60.611C53.3897 65.4777 51.7553 71.486 52.386 77.4755C53.0167 83.4649 55.8679 89.0107 60.3888 93.0417C64.9098 97.0727 70.7798 99.303 76.8653 99.3019H181.504Z" fill="#B8B8B8"/>
<path d="M183.323 97.5193C194.652 95.3433 203.216 85.0204 203.216 73.169C203.212 69.3775 202.311 65.6394 200.586 62.2539C198.861 58.8685 196.359 55.9295 193.28 53.6721C194.687 50.8715 195.243 47.7271 194.879 44.6202C194.516 41.5134 193.249 38.5777 191.233 36.1691C189.217 33.7605 186.538 31.9825 183.521 31.0507C180.504 30.119 177.278 30.0736 174.236 30.92C175.224 26.7664 174.781 22.4053 172.979 18.5288C171.177 14.6524 168.117 11.4827 164.287 9.52287C160.457 7.56308 156.074 6.92548 151.836 7.71125C147.598 8.49703 143.746 10.6612 140.892 13.8602C137.804 9.12807 133.264 5.50036 127.939 3.50967C122.614 1.51899 116.784 1.27021 111.305 2.79986C105.827 4.32952 100.988 7.55701 97.4995 12.0085C94.0112 16.4599 92.0569 21.9009 91.9238 27.5324C91.2546 27.4537 90.5816 27.4118 89.9078 27.407C87.2267 27.4086 84.5836 28.0341 82.1919 29.2329C79.8001 30.4317 77.7267 32.1702 76.1392 34.3082C74.5516 36.4461 73.4943 38.9235 73.0527 41.5403C72.611 44.1571 72.7974 46.84 73.5967 49.3724C67.6418 50.6129 62.3625 53.9929 58.7786 58.8596C55.1946 63.7264 53.5602 69.7347 54.1909 75.7242C54.8217 81.7136 57.6728 87.2594 62.1938 91.2904C66.7147 95.3214 72.5847 97.5517 78.6702 97.5506L183.323 97.5193Z" fill="#B5B5B5"/>
<path d="M185.107 95.7368C196.436 93.5573 205 83.2378 205 71.3865C204.997 67.5948 204.097 63.8565 202.371 60.4709C200.646 57.0852 198.144 54.1464 195.064 51.8896C196.301 49.4216 196.879 46.6819 196.746 43.9305C196.612 41.179 195.77 38.5069 194.3 36.1676C192.831 33.8283 190.781 31.8993 188.347 30.5636C185.912 29.2278 183.173 28.5296 180.389 28.5351C178.912 28.5398 177.442 28.7412 176.019 29.134C177.007 24.9804 176.565 20.6193 174.763 16.7428C172.96 12.8664 169.901 9.69668 166.071 7.73688C162.241 5.77709 157.858 5.13947 153.62 5.92524C149.382 6.71102 145.53 8.87517 142.676 12.0742C139.588 7.34206 135.048 3.71435 129.723 1.72366C124.398 -0.267022 118.568 -0.515804 113.089 1.01385C107.61 2.54351 102.772 5.771 99.2834 10.2225C95.7951 14.6739 93.8409 20.1149 93.7078 25.7464C93.0386 25.6677 92.3656 25.6258 91.6918 25.621C89.0135 25.6238 86.3734 26.2491 83.9841 27.4466C81.5948 28.644 79.5232 30.3801 77.9362 32.5149C76.3491 34.6498 75.291 37.1236 74.8472 39.7372C74.4033 42.3508 74.586 45.0311 75.3807 47.562C69.4254 48.8025 64.146 52.1828 60.562 57.05C56.9781 61.9171 55.3439 67.9258 55.975 73.9155C56.6062 79.9052 59.4581 85.451 63.9797 89.4818C68.5013 93.5125 74.3719 95.7422 80.4577 95.7402L185.107 95.7368Z" fill="#B3B3B3"/>
</g>
</svg>
