<svg width="27" height="33" viewBox="0 0 27 33" fill="none" xmlns="http://www.w3.org/2000/svg">
<g clip-path="url(#clip0_1464_7102)">
<path d="M21.1193 0H21.8843C22.8405 0.371938 23.0285 1.20536 22.9149 2.20322H24.619C26.0857 2.20322 27.0012 3.20452 27.0012 4.81108C27.0012 13.3381 27.0012 21.8648 27.0012 30.3913C27.0076 30.6271 26.9903 30.863 26.9495 31.0947C26.7099 32.2699 25.839 32.9957 24.6824 32.9966H4.60507C3.78515 32.9966 2.96446 33.006 2.14376 32.9966C1.69091 32.991 1.2512 32.8284 0.887398 32.5318C0.523594 32.2353 0.254279 31.82 0.117864 31.3452C0.0375902 31.0374 -0.000682956 30.7183 0.00430806 30.3982C-0.00195681 21.8711 -0.00351805 13.3444 -0.000385619 4.81797C-0.000385619 4.71035 -0.000388296 4.60273 0.00665968 4.49597C0.0771394 3.49036 0.542301 2.7792 1.38258 2.40382C1.68016 2.27037 2.02629 2.23163 2.35285 2.21785C2.91512 2.18858 3.47974 2.2101 4.0287 2.2101C4.0434 2.17996 4.05521 2.14822 4.06394 2.1154C4.07084 2.04075 4.07268 1.96563 4.06942 1.89068C4.00051 0.980643 4.31532 0.330613 5.11644 0.00688921H5.8784C6.86199 0.351276 7.04054 1.18814 6.9356 2.19116H20.0519C20.0519 2.03791 20.0456 1.90102 20.0519 1.76068C20.0644 1.5265 20.0566 1.28456 20.109 1.05985C20.2437 0.483002 20.6376 0.185108 21.1193 0ZM0.897053 10.0819C0.888439 10.2076 0.879827 10.2808 0.879827 10.3548C0.879827 16.4241 0.879827 22.4928 0.879827 28.5609C0.879827 29.5079 1.428 30.096 2.30273 30.096H19.1842C19.9039 30.096 20.2986 29.6543 20.2993 28.8527C20.2993 27.8747 20.2993 26.8975 20.2993 25.9203C20.2993 24.566 21.0762 23.7093 22.3111 23.7016C23.1804 23.6964 24.0496 23.7016 24.9189 23.7016C25.7474 23.7016 26.1178 23.296 26.1178 22.3851C26.1178 18.4109 26.1178 14.437 26.1178 10.4633V10.0819H7.71009C7.57355 10.0871 7.43685 10.0802 7.30131 10.0613C7.20523 10.0412 7.11832 9.98548 7.05513 9.9034C6.99194 9.82133 6.95631 9.71789 6.9542 9.61038C6.95209 9.50288 6.98363 9.39784 7.04353 9.31285C7.10344 9.22785 7.18809 9.16806 7.2833 9.14347C7.41791 9.11986 7.55431 9.11092 7.69052 9.11678H26.1006C26.1077 8.98161 26.1163 8.88776 26.1163 8.79305C26.1163 7.45081 26.1163 6.1077 26.1163 4.76545C26.1163 3.75467 25.5791 3.17439 24.6526 3.1718C23.5093 3.1718 22.3662 3.1718 21.2234 3.1718C21.131 3.1718 21.0378 3.18127 20.9282 3.1873C20.9282 3.62381 20.9282 4.01985 20.9282 4.41676C20.9282 4.91526 20.9869 4.99102 21.4403 5.10553C21.6909 5.16924 21.8421 5.38277 21.8154 5.63589C21.7888 5.88901 21.6016 6.06035 21.3456 6.06035C21.2578 6.05986 21.1704 6.04889 21.0848 6.02763C20.7959 5.95813 20.5369 5.78327 20.3498 5.53147C20.1627 5.27967 20.0585 4.96572 20.0542 4.64061C20.0433 4.16105 20.0542 3.6815 20.0542 3.19763H4.95042C4.95042 3.62037 4.95042 4.01727 4.95042 4.41332C4.95042 4.88943 5.03343 4.99619 5.46806 5.10209C5.721 5.16494 5.86744 5.37157 5.84317 5.63158C5.81889 5.89159 5.64191 6.06207 5.3733 6.06207C5.28551 6.06239 5.19799 6.05141 5.11252 6.02935C4.48603 5.86577 4.07882 5.29409 4.06864 4.54849C4.06159 4.10079 4.06864 3.65308 4.06864 3.17094C3.47818 3.17094 2.92452 3.17094 2.37008 3.17094C1.40451 3.17094 0.882173 3.74435 0.876692 4.79645C0.876692 6.1166 0.876692 7.43675 0.876692 8.7569C0.876692 8.87054 0.885311 8.98333 0.891576 9.11333H1.27764C2.65487 9.11333 4.03236 9.11333 5.41011 9.11333C5.52707 9.10727 5.64425 9.11827 5.75858 9.14605C5.84643 9.17657 5.92302 9.23736 5.97701 9.31943C6.031 9.4015 6.05954 9.5005 6.0584 9.60178C6.05726 9.70306 6.0265 9.80125 5.97067 9.88183C5.91484 9.9624 5.83691 10.0211 5.7484 10.0492C5.63347 10.0743 5.51618 10.0838 5.39914 10.0776C4.02191 10.0776 2.64443 10.0776 1.26668 10.0776L0.897053 10.0819ZM26.1202 25.3779C25.9871 25.5156 25.9095 25.5922 25.8359 25.6732C24.4678 27.1764 23.095 28.6719 21.7363 30.1881C21.196 30.7908 20.5726 31.0706 19.8005 31.0697C14.1057 31.0577 8.41045 31.0577 2.71464 31.0697C2.08268 31.0697 1.46167 31.0525 0.875124 30.5833C0.886765 30.7178 0.905334 30.8514 0.930731 30.9836C1.10223 31.6379 1.60812 32.0314 2.28159 32.0323H24.7035C25.5736 32.0323 26.1131 31.4451 26.1202 30.4911C26.1264 29.6861 26.1202 28.8803 26.1202 28.0753V25.3779ZM21.1866 29.2935L25.395 24.6667H24.4553C23.6933 24.6667 22.9314 24.659 22.1702 24.6736C21.6385 24.6831 21.2046 25.0972 21.1937 25.6637C21.1678 26.8923 21.1843 28.1226 21.1843 29.2935H21.1866ZM4.94024 2.17825H6.07653C6.00605 1.77962 6.23942 1.31728 5.8416 1.06502C5.73841 1.01243 5.62604 0.985198 5.51231 0.985198C5.39857 0.985198 5.28619 1.01243 5.183 1.06502C4.78988 1.30264 5.00054 1.76929 4.94024 2.17825ZM22.0488 2.17825C21.9971 1.78134 22.2156 1.30781 21.8053 1.05899C21.6974 1.00736 21.5804 0.983107 21.4628 0.988026C21.3453 0.992944 21.2303 1.02691 21.1263 1.0874C20.7629 1.3543 20.983 1.80373 20.929 2.20666C21.2759 2.20666 21.5774 2.20666 21.8781 2.20666C21.9251 2.20063 21.9713 2.18772 22.0488 2.17653V2.17825Z" fill="black"/>
<path d="M4.52947 22.1777C4.19743 22.1777 3.8654 22.1777 3.53258 22.1777C3.00711 22.1708 2.65393 21.8169 2.64375 21.2478C2.62965 20.4747 2.62965 19.7015 2.64375 18.9284C2.65393 18.392 2.98361 18.0158 3.47775 17.9994C4.18046 17.9764 4.8837 17.9764 5.58745 17.9994C6.09021 18.014 6.42929 18.3946 6.44182 18.9465C6.45853 19.7081 6.45853 20.4707 6.44182 21.2341C6.42773 21.8161 6.06593 22.1708 5.52637 22.1759C5.19355 22.1803 4.86151 22.1777 4.52947 22.1777ZM5.54751 21.1927V18.9749H3.54119V21.1927H5.54751Z" fill="black"/>
<path d="M16.4954 22.1776C16.1438 22.1776 15.7906 22.1837 15.4405 22.1776C14.9769 22.1673 14.6183 21.8393 14.601 21.3322C14.5721 20.5074 14.5728 19.6791 14.601 18.8534C14.6175 18.3515 14.962 18.0123 15.4374 17.9985C16.1422 17.9787 16.847 17.9761 17.5471 17.9985C18.0514 18.0157 18.3764 18.3997 18.3858 18.9593C18.3983 19.7113 18.3983 20.4629 18.3858 21.2142C18.3764 21.8048 18.0263 22.169 17.4931 22.1768C17.1594 22.1811 16.8274 22.1776 16.4954 22.1776ZM15.4773 18.9705V21.1935H17.4852V18.9705H15.4773Z" fill="black"/>
<path d="M10.4944 22.1776C10.1522 22.1776 9.81076 22.1836 9.46854 22.1776C8.9932 22.1664 8.63767 21.822 8.62357 21.3029C8.60165 20.4979 8.60243 19.692 8.62357 18.887C8.63689 18.3704 8.97597 18.0131 9.46228 17.9993C10.1655 17.9781 10.8687 17.9781 11.572 17.9993C12.0755 18.0157 12.4044 18.398 12.4154 18.9576C12.431 19.7095 12.431 20.4614 12.4154 21.2133C12.4028 21.816 12.0505 22.1724 11.4913 22.1776C11.1561 22.1802 10.8265 22.1776 10.4944 22.1776ZM9.51162 18.9739V21.1952H11.5211V18.9739H9.51162Z" fill="black"/>
<path d="M4.52631 16.2034C4.20367 16.2034 3.88104 16.2102 3.55918 16.2034C2.98124 16.1887 2.64764 15.8306 2.63981 15.2012C2.63146 14.4711 2.63146 13.7407 2.63981 13.01C2.64764 12.4074 2.96715 12.0389 3.51063 12.0234C4.19454 12.0033 4.8782 12.0033 5.56159 12.0234C6.10194 12.038 6.43396 12.4125 6.44336 13.0066C6.45589 13.747 6.45589 14.488 6.44336 15.2296C6.43162 15.8202 6.09019 16.1836 5.55141 16.2025C5.20998 16.212 4.86775 16.2025 4.52631 16.2034ZM5.54436 15.221V13.0006H3.54195V15.2193L5.54436 15.221Z" fill="black"/>
<path d="M8.61027 14.1052C8.61027 13.7401 8.60166 13.3751 8.61027 13.01C8.6275 12.4074 8.93918 12.038 9.48266 12.0225C10.1666 12.0024 10.8502 12.0024 11.5336 12.0225C12.0771 12.0371 12.4037 12.4065 12.4138 13.0049C12.4264 13.7453 12.4264 14.4863 12.4138 15.2279C12.4029 15.8211 12.0646 16.1896 11.525 16.2008C10.8515 16.2146 10.1778 16.2146 9.5038 16.2008C8.95563 16.1905 8.6322 15.8297 8.61263 15.2339C8.60088 14.8577 8.61106 14.4814 8.61027 14.1052ZM11.5164 15.2176V13.0006H9.50615V15.2141L11.5164 15.2176Z" fill="black"/>
<path d="M24.3609 14.1121C24.3609 14.4771 24.3664 14.8422 24.3609 15.2072C24.3507 15.8099 24.0304 16.1862 23.4932 16.1982C22.8004 16.2137 22.1071 16.2137 21.4133 16.1982C20.9285 16.1862 20.5871 15.8478 20.5691 15.3183C20.5409 14.5142 20.5417 13.7074 20.5691 12.9076C20.5871 12.391 20.9136 12.0466 21.3866 12.0337C22.0985 12.0105 22.8127 12.0087 23.5253 12.0337C24.0375 12.0509 24.3429 12.428 24.3617 12.9911C24.3617 13.0126 24.3617 13.0342 24.3617 13.0557L24.3609 14.1121ZM21.4321 13.0014C21.4321 13.7117 21.4321 14.3867 21.4375 15.0617C21.4375 15.1194 21.5158 15.2253 21.5605 15.2262C22.1909 15.2374 22.8213 15.2339 23.4666 15.2339V13.0006L21.4321 13.0014Z" fill="black"/>
<path d="M22.4674 22.3248C22.126 22.3248 21.7838 22.3352 21.4423 22.3248C20.9153 22.3068 20.5746 21.9589 20.559 21.3778C20.5386 20.6158 20.5386 19.8521 20.559 19.091C20.5739 18.5237 20.9012 18.1629 21.4126 18.144C22.1054 18.1227 22.7987 18.1227 23.4925 18.144C24.0352 18.1595 24.3539 18.5357 24.3594 19.135C24.3667 19.8662 24.3667 20.5966 24.3594 21.3261C24.3531 21.9374 24.0211 22.3042 23.4643 22.3223C23.1323 22.3343 22.8002 22.3257 22.4674 22.3248ZM23.4651 19.1298H21.4517V21.3399H23.4651V19.1298Z" fill="black"/>
<path d="M18.3882 14.1198C18.3882 14.4849 18.396 14.8508 18.3882 15.215C18.3741 15.8177 18.0522 16.1905 17.515 16.2025C16.8311 16.218 16.1475 16.218 15.4641 16.2025C14.9394 16.1913 14.6026 15.8323 14.5878 15.2555C14.569 14.4935 14.5682 13.7298 14.5878 12.9687C14.6026 12.4022 14.9292 12.0458 15.4437 12.0303C16.1367 12.0096 16.8314 12.0096 17.5236 12.0303C18.053 12.0458 18.3702 12.4151 18.3851 12.9954C18.3968 13.3639 18.3882 13.7401 18.3882 14.1198ZM17.4829 15.2219V13.0075H15.4797V15.2176L17.4829 15.2219Z" fill="black"/>
<path d="M4.51618 28.163C4.18493 28.163 3.85289 28.1682 3.52164 28.163C3.00714 28.1527 2.65239 27.7851 2.64299 27.216C2.62942 26.4445 2.62942 25.6728 2.64299 24.9008C2.65317 24.3524 3.00322 23.9839 3.50441 23.9761C4.1865 23.965 4.86937 23.9667 5.55146 23.9761C6.06439 23.983 6.42462 24.3532 6.43793 24.918C6.4562 25.6791 6.4562 26.4402 6.43793 27.2013C6.42619 27.7816 6.06204 28.1484 5.53579 28.1613C5.19905 28.1673 4.85762 28.163 4.51618 28.163ZM5.54832 27.1815V24.9568H3.53573V27.1815H5.54832Z" fill="black"/>
<path d="M10.5383 23.9745C10.8601 23.9745 11.182 23.9702 11.503 23.9745C12.0403 23.984 12.3997 24.3413 12.413 24.9216C12.4302 25.6815 12.4302 26.4426 12.413 27.2048C12.4005 27.7869 12.0403 28.1519 11.5093 28.1597C10.8468 28.1654 10.184 28.1654 9.521 28.1597C8.983 28.1554 8.62826 27.7963 8.61495 27.2126C8.59824 26.4515 8.59824 25.6904 8.61495 24.9293C8.62669 24.3395 8.97596 23.9822 9.51395 23.9736C9.85539 23.9693 10.1968 23.9745 10.5383 23.9745ZM11.5258 24.9603H9.5116V27.1773H11.525L11.5258 24.9603Z" fill="black"/>
<path d="M17.4994 27.1963V24.9681H15.4523C15.4523 25.1713 15.4617 25.3736 15.4523 25.5708C15.4351 25.8704 15.2785 26.0434 15.0365 26.0529C14.782 26.0624 14.6129 25.8807 14.5823 25.5751C14.5823 25.5536 14.5823 25.532 14.5823 25.5105C14.5345 24.5135 14.6685 23.8919 15.9026 23.9677C16.4187 23.9986 16.9379 23.9677 17.4555 23.9737C18.0413 23.9788 18.3827 24.3491 18.3898 24.9948C18.3971 25.7042 18.3971 26.4131 18.3898 27.1214C18.3843 27.7878 18.0429 28.1545 17.4422 28.1606C16.7876 28.1606 16.1329 28.1666 15.4782 28.1606C14.9966 28.1554 14.6418 27.8067 14.5956 27.3168C14.5706 27.0465 14.6575 26.8424 14.8963 26.7632C15.1352 26.684 15.3098 26.7942 15.4304 27.0344C15.4649 27.1024 15.544 27.1877 15.6043 27.1885C16.2253 27.2006 16.8486 27.1963 17.4994 27.1963Z" fill="black"/>
</g>
<defs>
<clipPath id="clip0_1464_7102">
<rect width="27" height="33" fill="white"/>
</clipPath>
</defs>
</svg>
