<svg width="36" height="23" viewBox="0 0 36 23" fill="none" xmlns="http://www.w3.org/2000/svg">
<g clip-path="url(#clip0_1504_833)">
<path d="M27.5638 21.8459C21.2448 20.6661 14.7471 20.6719 8.43042 21.863C8.40662 21.9448 8.38084 22.0436 8.35109 22.1425C8.28792 22.3832 8.14327 22.597 7.9398 22.7505C7.73633 22.9039 7.48552 22.9883 7.22665 22.9905C5.80275 23.0019 4.37886 23.0038 2.95496 22.9905C2.32432 22.9905 1.93562 22.5874 1.76507 21.8364C1.12055 21.7147 0.842913 21.266 0.692194 20.6956C0.125823 18.6797 -0.0952017 16.5889 0.0377565 14.505C0.142863 13.1475 0.335228 11.7956 0.527592 10.4457C0.585016 10.0195 0.753824 9.61401 1.01835 9.267C1.28288 8.91999 1.63455 8.64267 2.04073 8.46077C2.23905 8.3657 2.4096 8.25923 2.59403 8.16037C2.84985 8.02347 2.88357 7.85806 2.69517 7.63751C2.53725 7.47251 2.43707 7.26432 2.40863 7.04206C2.38018 6.8198 2.42489 6.59456 2.53652 6.39786C2.63831 6.18963 2.80336 6.01575 3.01004 5.89903C3.21672 5.78232 3.45536 5.72821 3.69467 5.74381C4.03181 5.74381 4.37093 5.7229 4.70409 5.74381C4.97975 5.76663 5.10072 5.65255 5.20583 5.4301C5.65557 4.44149 6.25132 3.52007 6.97479 2.69413C7.94455 1.64272 9.21376 1.11035 10.5901 0.78333C13.5826 0.0703431 16.6287 -0.100774 19.7006 0.034218C21.5967 0.110433 23.4817 0.350334 25.3328 0.751008C27.6768 1.26816 29.3367 2.55724 30.3798 4.61445C30.479 4.76648 30.562 4.92762 30.6277 5.09547C30.7824 5.66586 31.1711 5.82177 31.7383 5.74191C31.9749 5.71631 32.2137 5.71631 32.4503 5.74191C32.6701 5.75143 32.8828 5.8192 33.0649 5.93768C33.2469 6.05617 33.3911 6.22073 33.4815 6.41307C33.5778 6.59649 33.6183 6.8022 33.5983 7.00664C33.5783 7.21109 33.4986 7.406 33.3684 7.56906C33.1027 7.93791 33.1146 7.99115 33.537 8.2155C33.6996 8.30486 33.8583 8.40563 34.0229 8.48549C34.4015 8.67276 34.7293 8.94213 34.9803 9.27219C35.2313 9.60225 35.3985 9.9839 35.4686 10.3868C36.1746 13.889 36.25 17.376 35.2544 20.8439C35.2102 21.0627 35.1058 21.2662 34.952 21.4333C34.7983 21.6004 34.6007 21.7252 34.3798 21.7946C34.3349 21.816 34.2951 21.8462 34.263 21.8831C34.2309 21.9201 34.2072 21.9631 34.1934 22.0094C33.9951 22.6806 33.5985 22.9848 32.8667 22.9867C31.5935 22.9867 30.3184 22.9867 29.0452 22.9867C28.1587 22.9943 27.7621 22.6977 27.5638 21.8459ZM17.9793 7.37133V7.43407C18.6654 7.43407 19.3536 7.41886 20.0397 7.43407C22.7229 7.50632 25.4081 7.59378 28.0913 7.67173C28.7854 7.69074 29.0571 7.29147 28.7656 6.70017C28.5573 6.27998 28.3273 5.8674 28.1111 5.44911C27.423 4.1182 26.3045 3.33677 24.7973 2.99834C23.1175 2.6302 21.4063 2.40874 19.6848 2.33669C16.9266 2.17439 14.1583 2.37914 11.4587 2.9451C10.3422 3.19037 9.23756 3.5155 8.54544 4.48326C8.09923 5.11259 7.75218 5.80466 7.33572 6.4587C6.86175 7.20591 7.07593 7.72877 8.16666 7.68314C11.4448 7.55005 14.717 7.4721 17.9872 7.37133H17.9793ZM18.0328 18.3266C20.2143 18.3266 22.3957 18.3532 24.5871 18.3038C25.0684 18.2611 25.5284 18.0935 25.9178 17.819C26.602 17.3722 26.5524 16.6535 25.8345 16.2485C25.4365 16.0262 25.0088 15.8567 24.5633 15.7446C20.3253 14.6742 16.0675 14.7141 11.8137 15.6401C11.1891 15.7915 10.5938 16.038 10.0506 16.3702C9.4557 16.7219 9.4557 17.2619 9.96537 17.7201C10.361 18.0972 10.893 18.3138 11.4507 18.3247C13.6461 18.3342 15.8434 18.3266 18.0447 18.3266H18.0328ZM5.18203 12.6645C6.21723 12.5809 7.11361 12.5143 8.00801 12.4231C8.14088 12.4098 8.34514 12.2862 8.36299 12.1892C8.36078 12.0341 8.29529 11.886 8.18054 11.7766C8.06364 11.6716 7.92967 11.5856 7.78391 11.5219C6.7388 10.9515 5.59254 10.6644 4.43637 10.4191C3.94647 10.3397 3.44816 10.3193 2.95298 10.3583C2.85854 10.3709 2.76823 10.4035 2.68863 10.4538C2.60903 10.5042 2.54216 10.5709 2.49289 10.6492C2.39716 10.8348 2.34792 11.0392 2.34909 11.2463C2.35026 11.4533 2.4018 11.6573 2.49961 11.8419C2.59743 12.0265 2.73882 12.1866 2.91254 12.3097C3.08626 12.4327 3.28753 12.5151 3.50032 12.5505C4.06087 12.6187 4.62497 12.6568 5.18996 12.6645H5.18203ZM30.9093 12.6645C31.3278 12.6265 32.0259 12.5999 32.71 12.4877C32.9371 12.4565 33.1454 12.3497 33.2984 12.1859C33.4515 12.0222 33.5395 11.812 33.5469 11.5922C33.5743 11.3313 33.583 11.069 33.5727 10.807C33.5762 10.7438 33.5662 10.6807 33.5434 10.6214C33.5205 10.5621 33.4852 10.5079 33.4398 10.4621C33.3942 10.4164 33.3395 10.38 33.2788 10.3553C33.2181 10.3306 33.1528 10.318 33.0868 10.3183C32.2718 10.229 31.5003 10.4229 30.7289 10.6168C29.7115 10.8716 28.7021 11.153 27.8355 11.7576C27.768 11.8176 27.7136 11.8898 27.6754 11.9701C27.6373 12.0504 27.6162 12.1372 27.6134 12.2253C27.6134 12.2938 27.8672 12.4155 28.01 12.4345C28.8925 12.5181 29.7651 12.579 30.9173 12.6721L30.9093 12.6645Z" fill="#2591FE"/>
</g>
<defs>
<clipPath id="clip0_1504_833">
<rect width="36" height="23" fill="white"/>
</clipPath>
</defs>
</svg>
