<svg width="42" height="28" viewBox="0 0 42 28" fill="none" xmlns="http://www.w3.org/2000/svg">
<path d="M14.921 25.68C13.21 27.2267 11.0398 28 8.41059 28C5.82312 28 3.77817 27.1107 2.27576 25.332C0.773357 23.5533 0.0221512 20.3827 0.0221508 15.82C0.0221504 11.7717 2.54188 6.94526 7.58133 1.3406C8.82881 -0.0467789 10.9098 -0.249194 12.4604 0.788397C14.1357 1.90942 14.656 4.11747 13.7924 5.93888C13.5464 6.45776 13.3179 6.96353 13.1068 7.45618C11.9445 10.1687 13.8932 12.9338 15.7811 15.2019C15.8076 15.2337 15.8339 15.2657 15.86 15.298C16.9451 16.69 17.4876 18.3913 17.4876 20.402C17.4876 22.374 16.6321 24.1333 14.921 25.68ZM39.1474 25.622C37.478 27.1687 35.3496 27.942 32.7621 27.942C30.1746 27.9807 28.1297 27.1107 26.6273 25.332C25.1249 23.5533 24.3737 20.3633 24.3737 15.762C24.3737 11.6759 26.8657 6.85512 31.8499 1.29969C33.0757 -0.0666783 35.1196 -0.276344 36.6555 0.729039C38.3938 1.86694 38.8887 4.16654 37.9731 6.03151C37.6965 6.59482 37.445 7.14625 37.2186 7.6858C36.1224 10.2975 38.0737 12.8865 39.8923 15.0579C39.9582 15.1365 40.0228 15.2165 40.0864 15.298C41.1297 16.6513 41.6514 18.256 41.6514 20.112C41.6514 20.1893 41.6514 20.7307 41.6514 21.736C41.6514 22.78 40.8167 24.0753 39.1474 25.622Z" fill="#2591FE"/>
</svg>
