<svg width="18" height="10" viewBox="0 0 18 10" fill="none" xmlns="http://www.w3.org/2000/svg">
<g clip-path="url(#clip0_1464_7115)">
<path d="M9.00452 8.04788C9.07505 7.94373 9.15128 7.84369 9.23283 7.74822C11.654 5.28189 14.0781 2.81856 16.5051 0.358248C16.6607 0.202015 16.8515 0.086954 17.0609 0.0231336C17.3753 -0.0672509 17.7191 0.123249 17.8859 0.411089C17.9692 0.553737 18.0085 0.718561 17.9987 0.884186C17.9888 1.04981 17.9302 1.2086 17.8305 1.33996C17.7711 1.41346 17.7072 1.48312 17.6392 1.54854C14.9924 4.23968 12.3475 6.93083 9.70448 9.62197C9.21027 10.1253 8.79056 10.126 8.29909 9.62197C5.63232 6.91507 2.96738 4.20724 0.304255 1.49848C-0.206359 0.979121 -0.0511881 0.215025 0.598871 0.0384274C0.916039 -0.0477855 1.18672 0.0474638 1.41571 0.279682L2.79035 1.67717C4.78495 3.70595 6.77955 5.7352 8.77415 7.76491C8.83977 7.8254 8.8931 7.90814 9.00452 8.04788Z" fill="black"/>
</g>
<defs>
<clipPath id="clip0_1464_7115">
<rect width="18" height="10" fill="white"/>
</clipPath>
</defs>
</svg>
