<svg width="22" height="14" viewBox="0 0 22 14" fill="none" xmlns="http://www.w3.org/2000/svg">
<g clip-path="url(#clip0_1504_1692)">
<path d="M21.9989 12.4822C21.9411 12.6461 21.8878 12.8099 21.8078 13.022L15.2829 6.9986L21.8078 0.980225C21.8822 1.19032 21.9411 1.35417 21.9989 1.51903V12.4822Z" fill="white"/>
<path d="M20.8812 0.177812C20.8223 0.234106 20.7701 0.278337 20.7257 0.327593C17.9704 2.80719 15.2144 5.28846 12.4576 7.77141C11.8632 8.3062 11.1655 8.51529 10.3623 8.25091C10.069 8.14955 9.80231 7.99413 9.57901 7.79453C6.78966 5.29885 4.00624 2.79613 1.22874 0.286378C1.1943 0.255216 1.16319 0.220033 1.0932 0.14866C1.36095 0.0963878 1.59315 0.0481362 1.82646 0.00692134C1.9046 -0.0016264 1.98344 -0.00364541 2.06199 0.000889889C8.01991 0.000889889 13.9775 0.000889889 19.9346 0.000889889C20.2611 -0.00828917 20.5854 0.0523253 20.8812 0.177812Z" fill="white"/>
<path d="M7.74924 7.79468C8.08809 8.10429 8.37695 8.37269 8.67248 8.63506C9.88902 9.7167 11.6488 9.84135 12.9687 8.91753C13.2054 8.73977 13.4306 8.5498 13.6431 8.34857C13.832 8.1817 14.013 8.00779 14.223 7.81177L20.7879 13.8714C20.6413 13.9015 20.4135 13.9518 20.1824 13.992C20.0969 14.0011 20.0106 14.0031 19.9247 13.998C13.9764 13.998 8.02736 13.9963 2.07759 13.993C1.76424 13.9757 1.45249 13.9397 1.14435 13.8854L7.74924 7.79468Z" fill="white"/>
<path d="M0.138875 12.9726C0.0922132 12.7263 0.00666599 12.48 0.00666599 12.2347C-0.002222 8.74183 -0.002222 5.24929 0.00666599 1.75708C0.00666599 1.5128 0.0955471 1.26752 0.14332 1.02325L0.2222 1.00415L6.7271 7.01047L0.236644 12.9967L0.138875 12.9726Z" fill="white"/>
</g>
<defs>
<clipPath id="clip0_1504_1692">
<rect width="22" height="14" fill="white"/>
</clipPath>
</defs>
</svg>
