<svg width="148" height="79" viewBox="0 0 148 79" fill="none" xmlns="http://www.w3.org/2000/svg">
<path d="M123.756 78.3772C129.278 78.1253 134.567 76.0692 138.821 72.5211C143.074 68.973 146.06 64.1266 147.325 58.7176C148.589 53.3087 148.064 47.6327 145.828 42.5512C143.592 37.4698 139.768 33.2604 134.936 30.5622C135.515 27.5526 135.424 24.4514 134.67 21.4813C133.916 18.5111 132.516 15.7457 130.573 13.3835C128.629 11.0213 126.19 9.12096 123.429 7.81878C120.669 6.5166 117.655 5.84493 114.606 5.85197C111.27 5.85003 107.984 6.66259 105.029 8.21977C101.379 5.62046 97.0651 4.12491 92.597 3.90956C88.1288 3.6942 83.6926 4.76804 79.8118 7.00436C77.9577 4.68915 75.5837 2.84925 72.8846 1.63589C70.1856 0.422535 67.2386 -0.129634 64.2859 0.0247489C61.3333 0.179132 58.4592 1.03566 55.8999 2.52396C53.3406 4.01225 51.1693 6.08981 49.5642 8.58589C49.206 8.56788 48.8477 8.53187 48.4835 8.53187C43.5231 8.53187 38.7659 10.5127 35.2583 14.0386C31.7508 17.5646 29.7803 22.3467 29.7803 27.3331C29.7803 27.4502 29.7952 27.5672 29.7982 27.6813C28.4669 27.4601 27.1204 27.3437 25.771 27.3331C22.4386 27.3331 19.1389 27.9929 16.0602 29.2749C12.9815 30.5568 10.1841 32.4357 7.82781 34.8044C5.47148 37.1731 3.60233 39.9851 2.32709 43.08C1.05186 46.1748 0.395508 49.4918 0.395508 52.8416C0.395508 56.1915 1.05186 59.5085 2.32709 62.6033C3.60233 65.6982 5.47148 68.5102 7.82781 70.8789C10.1841 73.2476 12.9815 75.1265 16.0602 76.4084C19.1389 77.6903 22.4386 78.3501 25.771 78.3501L123.756 78.3772Z" fill="white"/>
</svg>
