<svg width="150" height="96" viewBox="0 0 150 96" fill="none" xmlns="http://www.w3.org/2000/svg">
<path d="M130.107 95.7368C141.436 93.5573 150 83.2378 150 71.3865C149.997 67.5948 149.097 63.8565 147.371 60.4709C145.646 57.0852 143.144 54.1464 140.064 51.8896C141.301 49.4216 141.879 46.6819 141.746 43.9305C141.612 41.179 140.77 38.5069 139.3 36.1676C137.831 33.8283 135.781 31.8993 133.347 30.5636C130.912 29.2278 128.173 28.5296 125.389 28.5351C123.912 28.5398 122.442 28.7412 121.019 29.134C122.007 24.9804 121.565 20.6193 119.763 16.7428C117.96 12.8664 114.901 9.69668 111.071 7.73688C107.241 5.77709 102.858 5.13947 98.6199 5.92524C94.3815 6.71102 90.5298 8.87517 87.6761 12.0742C84.588 7.34206 80.048 3.71435 74.7228 1.72366C69.3976 -0.267022 63.5677 -0.515804 58.0891 1.01385C52.6105 2.54351 47.7718 5.771 44.2834 10.2225C40.7951 14.6739 38.8409 20.1149 38.7078 25.7464C38.0386 25.6677 37.3656 25.6258 36.6918 25.621C34.0135 25.6238 31.3734 26.2491 28.9841 27.4466C26.5948 28.644 24.5232 30.3801 22.9362 32.5149C21.3491 34.6498 20.291 37.1236 19.8472 39.7372C19.4033 42.3508 19.586 45.0311 20.3807 47.562C14.4254 48.8025 9.146 52.1828 5.56204 57.05C1.97808 61.9171 0.343858 67.9258 0.975048 73.9155C1.60624 79.9052 4.45806 85.451 8.97967 89.4818C13.5013 93.5125 19.3719 95.7422 25.4577 95.7402L130.107 95.7368Z" fill="white"/>
</svg>
