<svg width="150" height="80" viewBox="0 0 150 80" fill="none" xmlns="http://www.w3.org/2000/svg">
<path d="M130.322 79.5095C134.995 79.5123 139.516 77.856 143.076 74.8375C146.635 71.8191 149 67.6357 149.746 63.0371C150.492 58.4385 149.571 53.7254 147.147 49.7424C144.724 45.7594 140.956 42.767 136.521 41.3013C136.496 36.8298 134.747 32.5389 131.636 29.3179C128.524 26.0968 124.289 24.1925 119.807 23.9995C118.702 20.4798 116.757 17.2794 114.14 14.6719C111.523 12.0644 108.312 10.1275 104.781 9.02664C101.249 7.92581 97.503 7.69387 93.8621 8.35062C90.2211 9.00737 86.794 10.5333 83.8735 12.7979C81.6955 9.10156 78.632 6.00118 74.9574 3.77424C71.2827 1.5473 67.1114 0.26328 62.8169 0.0370973C58.5224 -0.189085 54.2386 0.649636 50.3489 2.47818C46.4593 4.30673 43.0851 7.06804 40.5285 10.515C35.6388 8.37886 30.2084 7.79314 24.9734 8.83723C19.7385 9.88131 14.9522 12.5047 11.2635 16.3517C7.57479 20.1988 5.16201 25.0835 4.35228 30.3435C3.54254 35.6036 4.375 40.9847 6.73682 45.7572C3.89887 48.4619 1.93863 51.9518 1.10879 55.7772C0.278952 59.6026 0.61755 63.5881 2.08093 67.2199C3.54432 70.8517 6.06541 73.9634 9.31924 76.1538C12.5731 78.3442 16.4105 79.513 20.3368 79.5095H130.322Z" fill="white"/>
</svg>
