<svg width="17" height="25" viewBox="0 0 17 25" fill="none" xmlns="http://www.w3.org/2000/svg">
<g clip-path="url(#clip0_1504_1705)">
<path d="M8.31088 24.9997C8.12918 24.8177 7.91341 24.6598 7.77019 24.4491C6.34369 22.3457 4.90647 20.2488 3.51845 18.1206C2.37082 16.3591 1.36893 14.5062 0.679338 12.4929C0.249055 11.235 -0.0209781 9.94845 -0.000157895 8.60252C0.059779 4.82502 2.56073 1.42853 6.07114 0.364436C7.1671 0.0260996 8.31782 -0.079989 9.45438 0.0525263C10.5909 0.185042 11.6899 0.553434 12.6855 1.13563C13.6811 1.71783 14.5528 2.50185 15.2484 3.44073C15.944 4.37961 16.4491 5.45402 16.7336 6.59959C17.2017 8.44659 17.0219 10.2597 16.4642 12.0512C15.856 14.0084 14.9393 15.8156 13.8491 17.5204C12.5828 19.4999 11.2503 21.4349 9.94684 23.3922C9.71025 23.7471 9.48754 24.1098 9.23202 24.453C9.07807 24.6572 8.87303 24.821 8.69132 25.003L8.31088 24.9997ZM8.49322 22.9531C8.53486 22.9042 8.55631 22.882 8.5746 22.8559C9.87934 20.9117 11.2093 18.9844 12.4793 17.0167C13.555 15.3505 14.4812 13.5942 15.0901 11.6793C15.5519 10.227 15.7557 8.74866 15.4213 7.23505C14.4017 2.61397 9.69889 0.197417 5.52098 2.14293C2.70142 3.45494 1.01562 6.70985 1.49385 9.87604C1.69827 11.2318 2.14558 12.5007 2.71404 13.7299C3.65347 15.7621 4.85915 17.6281 6.10647 19.4666C6.89132 20.6246 7.68691 21.7755 8.49385 22.9531H8.49322Z" fill="white"/>
<path d="M8.52178 4.39138C9.36254 4.39566 10.1832 4.65767 10.8799 5.1443C11.5767 5.63092 12.1182 6.32028 12.436 7.12519C12.7538 7.93011 12.8336 8.81441 12.6654 9.66624C12.4971 10.5181 12.0884 11.2992 11.4908 11.9108C10.8932 12.5223 10.1336 12.9369 9.30815 13.102C8.48269 13.2671 7.62841 13.1754 6.85337 12.8384C6.07833 12.5014 5.41735 11.9343 4.95404 11.2088C4.49072 10.4833 4.24588 9.63199 4.25049 8.76258C4.25833 7.59785 4.71226 6.48382 5.51285 5.6645C6.31344 4.84518 7.39542 4.38738 8.52178 4.39138ZM8.50033 5.85606C7.94015 5.85593 7.39249 6.02752 6.92658 6.34914C6.46066 6.67075 6.09739 7.12796 5.88268 7.663C5.66796 8.19804 5.61142 8.78688 5.72022 9.35513C5.82902 9.92338 6.09826 10.4455 6.49394 10.8556C6.88961 11.2657 7.39394 11.5452 7.94322 11.659C8.4925 11.7728 9.06206 11.7156 9.57994 11.4948C10.0978 11.2739 10.5408 10.8993 10.8528 10.4182C11.1649 9.93715 11.332 9.37122 11.3331 8.79194C11.3318 8.01485 11.0331 7.26988 10.5023 6.71978C9.97156 6.16968 9.25181 5.85916 8.50033 5.85606Z" fill="white"/>
</g>
<defs>
<clipPath id="clip0_1504_1705">
<rect width="17" height="25" fill="white"/>
</clipPath>
</defs>
</svg>
