<svg width="134" height="62" viewBox="0 0 134 62" fill="none" xmlns="http://www.w3.org/2000/svg">
<g clip-path="url(#clip0_1504_186)">
<path d="M107.696 4.70517C82.9023 -2.29833 53.6728 -1.15823 29.2969 5.88147C11.0824 11.1477 -2.61558 23.0554 0.417927 37.8406C4.12554 55.847 32.4922 61.7647 53.7267 61.9819C72.076 62.1809 96.2362 57.4034 112.752 47.9387C117.67 45.7883 122.399 42.9241 126.854 39.3969C144.031 25.408 127.259 10.2066 107.696 4.70517ZM97.8406 50.5084C83.118 54.7069 66.6157 55.1051 51.0168 54.2364C39.3277 53.5668 27.652 50.5084 18.5111 45.188C2.73686 35.9585 12.161 21.8429 25.7645 14.7128C35.2021 9.73611 49.5472 5.6643 64.2429 4.21655C79.2351 3.83652 96.6002 5.1214 109.516 10.46L110.109 10.8038C110.201 10.8496 110.301 10.8496 110.393 10.8038C116.958 13.645 122.311 17.5721 125.533 22.9107C130.427 31.0362 125.762 37.8587 117.134 43.324C110.849 46.378 104.399 48.7799 97.8406 50.5084ZM69.7032 58.4892C45.907 61.8371 12.471 57.4034 4.7592 38.1302C-3.88292 16.5405 27.9082 6.44247 53.4705 3.74604C52.8638 4.07178 52.4594 4.83185 53.4705 4.75946C55.7356 4.57849 58.1084 4.43372 60.5757 4.32514C53.8346 5.22998 47.5518 6.51486 42.0511 7.94452C26.4117 12.0163 4.70527 21.6982 7.90057 36.0671C11.9452 54.0192 44.4644 57.3129 64.6608 57.331C70.2829 57.331 76.0263 57.0052 81.7158 56.2994C77.1319 57.2948 72.9928 58.0367 69.7032 58.4892Z" fill="#299CFF"/>
</g>
<defs>
<clipPath id="clip0_1504_186">
<rect width="134" height="62" fill="white"/>
</clipPath>
</defs>
</svg>
