<svg width="22" height="26" viewBox="0 0 22 26" fill="none" xmlns="http://www.w3.org/2000/svg">
<path d="M21.2485 18.0486H8.43896C8.35668 18.0487 8.27519 18.0301 8.19915 17.9937C8.12312 17.9574 8.05403 17.9041 7.99584 17.8369C7.93766 17.7697 7.89152 17.6898 7.86006 17.602C7.8286 17.5142 7.81244 17.4201 7.8125 17.325V15.1626C7.81244 15.0675 7.8286 14.9734 7.86006 14.8855C7.89152 14.7977 7.93766 14.7179 7.99584 14.6507C8.05403 14.5835 8.12312 14.5302 8.19915 14.4938C8.27519 14.4575 8.35668 14.4388 8.43896 14.4389H21.2485C21.3308 14.4388 21.4123 14.4575 21.4883 14.4938C21.5644 14.5302 21.6335 14.5835 21.6917 14.6507C21.7498 14.7179 21.796 14.7977 21.8274 14.8855C21.8589 14.9734 21.8751 15.0675 21.875 15.1626V17.325C21.8751 17.4201 21.8589 17.5142 21.8274 17.602C21.796 17.6898 21.7498 17.7697 21.6917 17.8369C21.6335 17.9041 21.5644 17.9574 21.4883 17.9937C21.4123 18.0301 21.3308 18.0487 21.2485 18.0486ZM21.2485 3.60973H8.43896C8.35668 3.6098 8.27519 3.59114 8.19915 3.5548C8.12312 3.51846 8.05403 3.46516 7.99584 3.39795C7.93766 3.33074 7.89152 3.25093 7.86006 3.1631C7.8286 3.07527 7.81244 2.98114 7.8125 2.88609V0.723638C7.81244 0.628588 7.8286 0.534455 7.86006 0.446626C7.89152 0.358797 7.93766 0.278994 7.99584 0.211783C8.05403 0.144573 8.12312 0.0912726 8.19915 0.0549327C8.27519 0.0185928 8.35668 -7.3951e-05 8.43896 2.2017e-07H21.2485C21.3308 -7.3951e-05 21.4123 0.0185928 21.4883 0.0549327C21.5644 0.0912726 21.6335 0.144573 21.6917 0.211783C21.7498 0.278994 21.796 0.358797 21.8274 0.446626C21.8589 0.534455 21.8751 0.628588 21.875 0.723638V2.88609C21.8751 2.98114 21.8589 3.07527 21.8274 3.1631C21.796 3.25093 21.7498 3.33074 21.6917 3.39795C21.6335 3.46516 21.5644 3.51846 21.4883 3.5548C21.4123 3.59114 21.3308 3.6098 21.2485 3.60973ZM0.78125 7.21946H21.0937C21.301 7.21946 21.4997 7.31454 21.6462 7.48377C21.7927 7.65301 21.875 7.88255 21.875 8.12189V9.92675C21.875 10.1661 21.7927 10.3956 21.6462 10.5649C21.4997 10.7341 21.301 10.8292 21.0937 10.8292H0.78125C0.574049 10.8292 0.375336 10.7341 0.228823 10.5649C0.0823097 10.3956 0 10.1661 0 9.92675V8.12189C0 7.88255 0.0823097 7.65301 0.228823 7.48377C0.375336 7.31454 0.574049 7.21946 0.78125 7.21946ZM0.78125 21.6584H21.0937C21.301 21.6584 21.4997 21.7535 21.6462 21.9227C21.7927 22.0919 21.875 22.3215 21.875 22.5608V24.3657C21.875 24.605 21.7927 24.8345 21.6462 25.0038C21.4997 25.173 21.301 25.2681 21.0937 25.2681H0.78125C0.574049 25.2681 0.375336 25.173 0.228823 25.0038C0.0823097 24.8345 0 24.605 0 24.3657V22.5608C0 22.3215 0.0823097 22.0919 0.228823 21.9227C0.375336 21.7535 0.574049 21.6584 0.78125 21.6584Z" fill="#272525"/>
</svg>
