<svg width="20" height="20" viewBox="0 0 20 20" fill="none" xmlns="http://www.w3.org/2000/svg">
<g clip-path="url(#clip0_1504_1701)">
<path d="M11.2023 0C11.6537 0.116848 12.1097 0.217834 12.5552 0.354245C13.992 0.792837 15.3172 1.53603 16.4403 2.53311C17.6413 3.58015 18.595 4.88029 19.2328 6.33992C19.5654 7.1098 19.8094 7.91491 19.9603 8.73979C19.9712 8.78347 19.9845 8.82654 20 8.8688V8.98617C19.9952 8.9904 19.9878 8.99411 19.9862 8.99939C19.8651 9.3346 19.6688 9.49798 19.4069 9.48106C19.0894 9.46097 18.9011 9.27856 18.8302 8.89946C18.5805 7.51214 18.0234 6.19823 17.1995 5.05406C16.1075 3.54086 14.7075 2.40252 12.9668 1.71676C12.3595 1.47778 11.714 1.33397 11.0817 1.1616C10.7203 1.06326 10.533 0.914691 10.4997 0.645042C10.4664 0.36429 10.5934 0.173421 10.9288 0.00264378L11.2023 0Z" fill="white"/>
<path d="M6.23796 8.34958C6.96969 10.0616 9.5093 12.7581 11.6505 13.7362C11.7008 13.649 11.7595 13.5668 11.8256 13.4909C12.2754 13.0473 12.7145 12.5921 13.1891 12.1754C13.5192 11.8807 13.9478 11.7204 14.3904 11.726C14.833 11.7315 15.2575 11.9027 15.58 12.2056C16.5081 13.0903 17.4128 13.999 18.2943 14.9317C18.6004 15.2522 18.7766 15.675 18.7887 16.1179C18.8008 16.5609 18.648 16.9926 18.3599 17.3294C17.7691 18.0144 17.138 18.6636 16.47 19.2735C15.7822 19.8995 14.9219 20.0597 14.0087 19.9815C12.3209 19.8366 10.8214 19.1525 9.36909 18.3483C7.58178 17.3592 5.9635 16.092 4.57504 14.5943C2.87615 12.7681 1.47036 10.7479 0.585199 8.39717C0.262986 7.5417 0.0259548 6.6656 0.00320405 5.74298C-0.0195467 4.82036 0.214841 3.97652 0.878845 3.29764C1.40793 2.75887 1.91797 2.19631 2.48727 1.70301C3.36661 0.940062 4.32426 0.946406 5.17238 1.74108C6.07183 2.58227 6.93106 3.46366 7.76914 4.36354C8.41251 5.05511 8.40404 6.07713 7.77549 6.78615C7.33158 7.28791 6.84218 7.74896 6.37288 8.22745C6.33055 8.26922 6.28505 8.30623 6.23796 8.34958ZM1.13598 5.67953C1.15714 5.90636 1.17513 6.13318 1.20053 6.35894C1.21286 6.45554 1.23052 6.55139 1.25344 6.64604C1.56348 8.02495 2.13913 9.29547 2.87509 10.492C4.83959 13.6807 7.45539 16.172 10.832 17.8338C11.8632 18.3409 12.9283 18.7501 14.0896 18.8532C14.8171 18.9182 15.4552 18.7474 15.9742 18.2082C16.3975 17.7661 16.8297 17.3331 17.2572 16.8953C17.3102 16.8393 17.3631 16.7811 17.4128 16.7203C17.7138 16.3444 17.7176 15.9658 17.3906 15.61C17.0371 15.2277 16.662 14.8656 16.2943 14.4997C15.8393 14.0429 15.3864 13.5839 14.924 13.1351C14.5785 12.7998 14.1907 12.7961 13.8245 13.1065C13.7547 13.1652 13.6907 13.2302 13.6261 13.2947C13.1785 13.7404 12.7346 14.1899 12.2838 14.6324C11.9611 14.9496 11.6029 15.0067 11.2124 14.8095C10.9394 14.6715 10.6659 14.5335 10.4035 14.3776C9.22519 13.6754 8.19981 12.7866 7.27391 11.7805C6.45542 10.8912 5.70941 9.95109 5.20519 8.83971C4.94064 8.25283 4.99355 7.9652 5.45756 7.5179C5.92157 7.0706 6.39404 6.6122 6.84218 6.14322C7.19826 5.76942 7.18503 5.40618 6.84588 5.01493C6.80302 4.96629 6.75805 4.9187 6.71255 4.8727C5.97606 4.13214 5.23958 3.39439 4.50309 2.65947C4.02268 2.17992 3.60364 2.18045 3.12005 2.65947C2.69679 3.07663 2.28939 3.50542 1.85977 3.9136C1.35026 4.39685 1.11058 4.9795 1.13598 5.67953Z" fill="white"/>
<path d="M11.0188 3.63184C11.2659 3.69528 11.6278 3.7582 11.9674 3.88139C14.2023 4.69245 15.6409 6.2432 16.2604 8.54261C16.2959 8.67427 16.3218 8.80698 16.3483 8.94233C16.4118 9.26591 16.235 9.55776 15.9303 9.63654C15.7861 9.6715 15.634 9.64863 15.5065 9.57282C15.379 9.49701 15.2863 9.37431 15.2483 9.23101C15.1536 8.91378 15.1033 8.58121 14.9838 8.27455C14.2404 6.36322 12.8632 5.1884 10.85 4.76648C10.4728 4.6877 10.2712 4.40324 10.3495 4.06433C10.4087 3.81372 10.6421 3.63184 11.0188 3.63184Z" fill="white"/>
</g>
<defs>
<clipPath id="clip0_1504_1701">
<rect width="20" height="20" fill="white"/>
</clipPath>
</defs>
</svg>
